<?xml version="1.0" standalone="no"?>
<!DOCTYPE svg PUBLIC "-//W3C//DTD SVG 20010904//EN"
 "http://www.w3.org/TR/2001/REC-SVG-20010904/DTD/svg10.dtd">
<svg version="1.0" xmlns="http://www.w3.org/2000/svg"
 width="780.000000pt" height="390.000000pt" viewBox="0 0 780.000000 390.000000"
 preserveAspectRatio="xMidYMid meet">

<g transform="translate(0.000000,390.000000) scale(0.100000,-0.100000)"
fill="#000000" stroke="none">
<path d="M0 1950 l0 -1950 3900 0 3900 0 0 1950 0 1950 -3900 0 -3900 0 0
-1950z m3509 1300 c66 -24 98 -52 123 -107 19 -43 17 -106 -4 -119 -15 -9 -38
17 -38 43 0 37 -27 81 -63 100 -26 15 -56 18 -157 18 -123 0 -127 -1 -208 -37
-210 -93 -571 -342 -972 -667 -201 -164 -302 -254 -292 -262 4 -4 72 0 152 8
155 15 690 22 728 9 12 -4 22 -14 22 -22 0 -11 -20 -14 -97 -14 -150 0 -408
-25 -895 -87 -44 -5 -53 -12 -175 -137 -238 -243 -346 -369 -529 -616 -101
-136 -293 -412 -404 -578 -98 -148 -125 -172 -157 -139 -19 19 -12 39 55 162
162 293 498 726 884 1137 71 75 125 139 121 141 -9 5 -287 -35 -388 -56 -148
-32 -252 -22 -177 17 34 18 184 60 267 76 150 27 286 49 350 55 l70 7 110 100
c142 129 379 328 547 460 263 205 515 373 658 439 48 23 81 34 215 77 56 18
195 14 254 -8z m345 -788 c10 -17 -33 -65 -365 -403 -379 -387 -423 -434 -416
-446 3 -4 211 -5 464 -2 252 4 724 7 1048 8 325 1 678 6 785 11 107 5 546 12
976 16 l780 7 48 -23 c28 -15 46 -30 44 -39 -3 -12 -93 -14 -695 -12 -380 1
-815 -2 -965 -8 -150 -6 -514 -15 -808 -21 -294 -6 -733 -15 -975 -20 -242 -5
-516 -10 -608 -11 l-169 -1 -36 -32 c-75 -66 -133 -109 -138 -103 -4 3 8 31
25 61 17 31 31 58 31 61 0 3 -343 6 -762 7 -598 2 -762 6 -766 16 -2 8 8 12
35 12 21 0 92 4 158 10 204 16 500 32 740 39 l230 6 -3 30 c-1 20 8 45 27 75
17 24 28 46 26 48 -2 2 -50 -12 -107 -31 -140 -48 -269 -79 -309 -75 -129 12
107 235 321 302 130 41 219 21 220 -51 0 -12 5 -25 11 -28 5 -4 14 -18 19 -31
13 -34 -4 -69 -63 -130 -36 -38 -48 -58 -45 -75 l3 -24 165 -1 c91 -1 170 1
177 3 7 3 38 37 70 76 93 117 344 385 629 674 105 108 113 113 152 113 22 0
43 -3 46 -8z m482 -376 c13 -21 14 -29 2 -53 -15 -32 -75 -75 -97 -71 -12 3
-16 15 -15 42 l1 38 -44 -7 c-65 -10 -158 -42 -246 -86 -86 -43 -197 -115
-197 -128 0 -43 203 -70 375 -50 209 23 205 23 205 2 0 -25 -28 -38 -132 -60
-116 -24 -423 -25 -486 0 -129 50 -135 105 -20 190 128 95 434 202 585 206 45
1 55 -2 69 -23z m1125 -36 c31 -17 23 -37 -42 -100 -33 -33 -59 -65 -56 -72
12 -35 200 2 441 85 54 19 110 31 142 32 49 0 57 -3 96 -41 24 -23 53 -47 65
-53 27 -14 218 -14 332 -1 210 26 411 52 464 61 57 9 82 6 72 -11 -2 -4 -49
-17 -102 -29 -54 -12 -116 -26 -138 -31 -126 -30 -354 -70 -446 -80 -168 -17
-248 0 -319 68 -22 20 -32 23 -75 18 -27 -3 -99 -21 -160 -41 -127 -41 -203
-56 -331 -62 -151 -8 -207 36 -154 122 36 59 142 143 183 145 5 0 17 -5 28
-10z m-357 -30 c79 -30 44 -131 -66 -186 -108 -55 -337 -96 -417 -74 -61 16
-71 45 -36 98 54 81 133 117 360 165 39 9 134 7 159 -3z m-4092 -478 c23 -23
-10 -37 -95 -40 -148 -6 -223 27 -105 46 79 13 184 10 200 -6z m5064 -27 c7
-29 -10 -55 -37 -55 -12 0 -21 10 -25 25 -9 36 2 55 30 55 19 0 27 -7 32 -25z
m319 -48 c0 -14 8 -23 25 -27 21 -5 25 -12 25 -40 0 -28 -4 -35 -25 -40 -23
-5 -25 -11 -28 -72 -3 -73 8 -90 38 -63 17 16 20 16 26 2 22 -59 -33 -114 -82
-82 -33 22 -44 54 -44 132 0 47 -5 72 -16 84 -17 19 -13 30 45 107 25 34 36
34 36 -1z m-483 -42 c51 -21 71 -69 66 -156 -3 -59 -8 -73 -32 -98 -16 -17
-42 -33 -57 -36 -27 -6 -29 -9 -29 -60 0 -59 -13 -77 -47 -64 -23 8 -23 10
-23 212 0 112 3 207 7 210 11 12 79 7 115 -8z m163 -135 l0 -145 -30 0 -30 0
-3 134 c-1 74 0 141 3 149 3 8 16 12 32 10 l28 -3 0 -145z m176 137 c20 -16
33 -97 14 -97 -7 0 -18 7 -25 15 -15 18 -42 19 -58 3 -21 -21 -15 -102 9 -124
20 -18 22 -18 50 -1 34 19 43 10 37 -40 -2 -22 -10 -30 -38 -39 -80 -26 -135
34 -134 148 1 68 16 107 53 135 21 16 71 16 92 0z m293 -3 c3 -9 6 -60 6 -115
0 -90 2 -99 19 -99 27 0 31 18 31 131 l0 100 28 -3 27 -3 0 -145 0 -145 -55
-5 c-49 -5 -57 -3 -84 20 -29 26 -30 30 -34 138 -2 61 -2 118 1 126 8 21 53
21 61 0z m289 -2 c22 -19 21 -41 -3 -72 -17 -22 -19 -23 -25 -7 -10 24 -32 21
-41 -5 -3 -12 -8 -58 -9 -102 -2 -45 -3 -85 -4 -89 -1 -5 -13 -7 -28 -5 l-28
3 -3 134 c-1 74 -1 140 2 147 7 19 117 16 139 -4z m161 -7 c30 -33 47 -115 38
-190 -7 -56 -9 -61 -43 -78 -66 -32 -116 3 -140 97 -32 127 72 250 145 171z
m180 10 c16 -12 22 -44 17 -88 -1 -5 -13 1 -27 12 -15 11 -30 18 -35 15 -11
-7 8 -43 26 -50 8 -3 23 -25 35 -48 17 -36 18 -48 9 -75 -6 -18 -24 -38 -40
-46 -25 -13 -33 -14 -63 -1 -29 12 -34 19 -38 56 -4 50 4 58 32 30 19 -19 50
-28 50 -14 0 3 -18 26 -40 51 -33 38 -40 53 -40 89 0 70 62 108 114 69z"/>
<path d="M2440 1837 c-127 -57 -180 -85 -180 -97 0 -29 286 94 298 128 6 19
-17 13 -118 -31z"/>
<path d="M4855 1916 c-120 -46 -155 -65 -155 -82 0 -21 29 -24 108 -10 154 27
250 76 226 114 -18 28 -63 23 -179 -22z"/>
<path d="M5860 1284 c0 -66 2 -75 17 -72 57 11 52 147 -4 148 -9 0 -13 -22
-13 -76z"/>
<path d="M6927 1364 c-14 -15 -6 -34 14 -34 14 0 19 5 17 17 -3 18 -20 27 -31
17z"/>
<path d="M6915 1260 c-6 -9 24 -50 37 -50 17 0 69 41 63 50 -7 11 -93 11 -100
0z"/>
</g>
</svg>
