<?xml version="1.0" encoding="UTF-8"?>
<svg version="1.1" viewBox="0 0 1600 376" width="1280" height="1280" xmlns="http://www.w3.org/2000/svg">
<path transform="translate(206)" d="m0 0c0.99 0.495 0.99 0.495 2 1h3.5c3.5 0 3.5 0 5.5 1 1.46 0.308 2.93 0.58 4.4 0.832 9.57 1.69 18.6 3.46 27.6 7.17 1.93 0.689 3.86 1.38 5.79 2.06 8.18 2.94 15.7 6.61 23.2 10.9 1.14 0.617 2.28 1.23 3.46 1.87 11.6 6.33 21.7 14.3 31.5 23.1 0.862 0.748 1.72 1.5 2.61 2.27 6.55 5.76 12.1 11.8 17.4 18.7 0.813 1.02 1.63 2.04 2.46 3.09 24.2 30.5 38.6 67.8 39.5 107 0.04 1.07 0.0799 2.15 0.121 3.25 0.171 8.22-0.45 16.4-1.06 24.6-0.0868 1.18-0.174 2.35-0.263 3.57-0.0873 1.1-0.175 2.2-0.264 3.33-0.0786 0.995-0.157 1.99-0.238 3.01-0.297 2.28-0.297 2.28-1.3 3.28-0.628 3.67-1.19 7.35-1.72 11-0.791 5.13-2.13 9.25-4.28 14-0.538 2.17-0.538 2.17-0.812 4.19-1.02 4.96-3.15 9.06-5.49 13.5-1.49 2.89-2.84 5.81-4.16 8.78-5.32 11.9-12.3 22.4-20.5 32.5-0.722 0.918-1.44 1.84-2.19 2.78-3.8 4.77-7.52 9.15-12.3 13-1.73 1.36-1.73 1.36-3.85 3.56-2.54 2.54-5.12 5-7.75 7.44-0.837 0.779-1.67 1.56-2.54 2.36-2.32 1.82-3.6 2.33-6.4 2.89-0.289 0.619-0.577 1.24-0.875 1.88-1.64 3.1-3.99 3.61-7.12 5.12-1.18 0.896-2.35 1.82-3.5 2.75-4.69 3.64-9.9 6.08-15.2 8.64-2.86 1.41-5.54 2.96-8.27 4.61-8.24 3.26-16.3 4.73-25 3-0.768-0.117-1.54-0.235-2.33-0.355-9.18-1.97-17.3-8.77-22.6-16.4-4.94-9.55-5.26-19.1-2.1-29.2 3.85-9.83 10.4-16.4 19.9-20.6 1.04-0.447 2.08-0.895 3.15-1.36 14.2-6.67 28.3-15.4 38-28 1.67-1.67 3.33-3.33 5-5 2.75-3.3 5.19-6.69 7.5-10.3 0.567-0.883 1.13-1.77 1.72-2.68 3.71-6.27 6.66-12.8 9.34-19.6 0.291-0.697 0.581-1.39 0.881-2.11 4.9-12.4 6.03-24.8 5.87-38 0.00322-1.31 0.00645-2.62 0.00977-3.97-0.145-26.4-9.92-53.3-27.3-73.3-0.695-0.815-1.39-1.63-2.11-2.47-4.06-4.69-4.06-4.69-8.89-8.53v-2c-0.566-0.263-1.13-0.526-1.71-0.797-2.47-1.3-4.6-2.81-6.85-4.45-8.58-6.06-17.8-10.6-27.4-14.8-1.1-0.509-2.2-1.02-3.34-1.54-3.91-1.56-7.33-2.33-11.5-3.08-6.97-1.27-6.97-1.27-9.19-2.38-21-2.48-40.1-0.128-60 7-1.01 0.353-2.02 0.706-3.07 1.07-7.55 2.81-14.3 6.92-20.7 11.7-3.06 2.1-4.69 2.49-8.19 3.19-1.11 1.88-1.11 1.88-2 4-3.43 3-3.43 3-6 3l-0.688 2.19c-1.58 3.39-3.51 5.35-6.31 7.81l-3 1c-1.01 1.71-1.01 1.71-2 4-1.43 2.38-2.86 4.76-4.31 7.12-7.07 11.7-12.7 23.4-16.1 36.7-0.613 2.15-0.613 2.15-1.61 3.15-6.18 27.6-1.23 55.7 12.1 80.3 0.793 1.46 1.56 2.94 2.32 4.42 11.1 20.2 30.6 36.2 51.4 45.4 11.4 5.1 19.5 12.1 24.2 23.9 2.28 10.8 1.56 21-4 30.6-5.59 8.24-12.7 12.8-22.4 14.9-12.9 2.19-24.4-3.52-35.6-9.56l-2.4-1.25c-5.02-2.68-9.63-5.77-14.2-9.1-2.38-1.72-2.38-1.72-5.16-3.23-0.727-0.467-1.45-0.933-2.2-1.41v-2c-0.704-0.223-1.41-0.446-2.13-0.676-3.5-1.62-5.99-3.88-8.74-6.51-0.838-0.792-0.838-0.792-1.69-1.6-1.2-1.14-2.39-2.28-3.58-3.43-1.23-1.19-2.46-2.36-3.71-3.54-21.6-20.4-37.7-45-47.1-73.2l-1.29-3.79c-2.76-8.34-4.71-16.5-5.71-25.2h-1l0.0352-1.77c0.0508-4.62-0.0792-9.14-0.535-13.7-0.997-11-1.04-22.3 0.379-33.3 0.127-2.27-0.306-3.98-0.879-6.16l1-1c-0.0155-0.865-0.0309-1.73-0.0469-2.62 0.0791-5.7 1.94-11 3.5-16.5 0.484-1.69 0.954-3.38 1.42-5.07 5.84-20.2 14.5-40 27.1-56.8 1.38-1.92 2.75-3.83 4.12-5.75 5.73-7.82 5.73-7.82 8.88-11.2h2c0.336-0.826 0.336-0.826 0.68-1.67 5.52-9.75 17-18.3 26.3-24.3l1.38-1.43c1.91-1.85 3.89-3.04 6.18-4.38 3.9-2.28 3.9-2.28 7.75-4.63 14-8.71 29.1-15.8 45.1-19.9 1.75-0.466 3.48-0.999 5.18-1.59 13.7-4.47 26.7-5.66 41.1-5.4 1.7 0.0115 3.4 0.0213 5.09 0.0293 1.63 0.0134 3.26 0.0283 4.89 0.0449 0.744 0.00739 1.49 0.0148 2.25 0.0224 4.1 0.0749 7.99 0.431 12 1.22v-2zm-44 2 4 1zm-160 154 1 3z" fill="#00B10D"/>
<path transform="translate(652,82)" d="m0 0c0.33-7.92 0.66-15.8 1-24h56c0.0662 28.8 0.122 57.6 0.153 86.4 0.00375 3.41 0.00763 6.81 0.0116 10.2 7.87e-4 0.678 0.00157 1.36 0.00238 2.05 0.013 11 0.0367 21.9 0.0643 32.9 0.0281 11.3 0.0445 22.5 0.0508 33.8 0.0039 6.31 0.013 12.6 0.0349 18.9 0.0205 5.95 0.0266 11.9 0.0221 17.9 8.2e-4 2.18 0.00672 4.35 0.0183 6.53 0.134 26.5-5.27 50.2-22.4 71.4-0.677 0.842-1.35 1.68-2.05 2.55-17.7 20.8-43.4 31.7-69.9 35.4-2.72 0.126-5.41 0.21-8.12 0.238-0.776 0.00975-1.55 0.0195-2.35 0.0295-16.8 0.168-33.1 0.153-49.5-4.27-1.11-0.297-1.11-0.297-2.25-0.6-23-6.3-46.5-17.5-62.7-35.4 0-3 0-3 1.22-4.3 0.607-0.48 1.21-0.959 1.84-1.45 4.41-3.68 8.41-7.67 12.4-11.8 4.51-4.55 9.02-9 13.9-13.1 2.33-2 4.45-4.16 6.59-6.36 3.56 1.57 6.29 3.76 9.31 6.19 19.4 14.9 45.4 19.6 69.4 17.3 15.1-2.14 29.9-8.79 39.3-21.1 7.45-11 8.44-21 8.19-34-0.0151-1.4-0.0288-2.8-0.041-4.2-0.0351-3.39-0.0843-6.78-0.146-10.2-0.666 0.612-1.33 1.22-2.02 1.85-0.885 0.806-1.77 1.61-2.68 2.44-0.872 0.798-1.74 1.6-2.64 2.42-18.9 16.2-46.6 19.4-70.6 17.8-18.1-1.51-34.3-6.48-50.1-15.5-1.02-0.578-2.03-1.15-3.08-1.75-6.68-4.03-12.3-8.86-17.9-14.2-0.712-0.66-1.42-1.32-2.16-2-5.08-4.85-9.03-10.1-12.8-16-0.754-1.1-0.754-1.1-1.52-2.23-15.5-23.9-19-55.1-13.4-82.6 3.64-16.4 10.8-32.5 22-45.2 0.664-0.794 1.33-1.59 2.01-2.41 19.7-22.9 46.4-34.1 76-37.4 29.5-1.66 56.2 4.8 79 23.8zm-108 45.6c-10.1 10.5-14.8 23.3-15.4 37.8 0.332 17 4.32 32.7 16.3 45.4 12.8 12.1 29.6 16.5 46.9 16.2 16.4-0.573 34.1-5.35 46.2-17.1 8.64-9.9 12.8-18.9 12.9-32.1 0.0121-1.18 0.0121-1.18 0.0245-2.39 0.0138-1.67 0.0245-3.33 0.0324-5 0.0115-1.69 0.0319-3.37 0.0615-5.06 0.219-12.5-0.393-23.1-8.36-33.4-0.407-0.55-0.815-1.1-1.23-1.67-8.2-10.4-22.6-18.6-35.8-20.3-22.9-2.62-44.5 1.39-61.7 17.6z" fill="#000100"/>
<path transform="translate(1373,2)" d="m0 0h56v145c4.79-4.19 9.56-8.38 14.2-12.7 0.503-0.46 1.01-0.919 1.52-1.39 2.22-2.03 4.38-4.08 6.46-6.25 1.77-1.67 1.77-1.67 3.77-1.67v-2c1.44-1.44 1.44-1.44 3.45-3.11 4.59-3.91 8.98-8 13.4-12.1 1.12-1.06 1.12-1.06 2.27-2.14 3.84-3.59 3.84-3.59 7.52-7.33 1.39-1.28 1.39-1.28 3.39-1.28v-2c1.48-1.48 1.48-1.48 3.53-3.18 4.13-3.51 8.1-7.16 12-10.9 1.97-1.86 3.94-3.7 5.98-5.49 2-1.99 3.39-3.74 4.98-6.03 4.49-5.9 8.88-9.73 16.3-11.1 10.6-1.14 21.3-0.617 31.9-0.233 4.42 0.145 8.85 0.207 13.3 0.278 8.65 0.149 17.3 0.387 25.9 0.684-0.93 1.1-1.86 2.2-2.8 3.3-0.519 0.613-1.04 1.23-1.57 1.86-2.54 2.86-5.35 5.41-8.19 7.96-1.11 1-2.21 2-3.32 3.01-0.789 0.714-0.789 0.714-1.59 1.44-1.48 1.38-2.89 2.84-4.3 4.29-2.22 2.13-2.22 2.13-4.22 2.13v2c-1.47 1.45-1.47 1.45-3.5 3.12-2.97 2.52-5.78 5.1-8.5 7.88-2.56 2.6-5.17 5.06-7.94 7.44-2.99 2.57-5.79 5.26-8.56 8.06-2.73 2.77-5.49 5.41-8.44 7.94-3.17 2.72-6.13 5.59-9.06 8.56-3.53 3.58-7.16 6.94-11 10.2-3.19 2.85-6.16 5.92-9.14 8.98-1.88 1.82-1.88 1.82-3.88 2.82 1.28 2.7 2.67 5.06 4.47 7.43 0.483 0.642 0.966 1.28 1.46 1.94 0.517 0.68 1.03 1.36 1.57 2.06 0.54 0.714 1.08 1.43 1.64 2.17 4.01 5.29 8.06 10.6 12.1 15.8 3.38 4.39 6.68 8.84 10 13.3 5.48 7.33 11 14.6 16.7 21.8 4.27 5.47 8.45 11 12.6 16.6 3.54 4.74 7.11 9.45 10.7 14.1 0.524 0.685 1.05 1.37 1.59 2.08 2.42 3.16 4.84 6.31 7.26 9.47 2.2 2.86 4.39 5.72 6.59 8.58 0.696 0.902 1.39 1.8 2.11 2.73 0.649 0.847 1.3 1.69 1.97 2.57 0.577 0.751 1.15 1.5 1.75 2.27 1.4 1.98 2.43 3.94 3.49 6.11-8.51 0.42-17 0.738-25.5 0.933-3.96 0.0934-7.91 0.22-11.9 0.425-25.4 1.29-25.4 1.29-32.3-3.04-4.19-4.05-6.77-8.67-9.16-13.9-2.06-4.15-4.9-7.72-7.69-11.4-1.09-1.5-2.17-3-3.25-4.5-0.804-1.11-0.804-1.11-1.62-2.25-5.96-8.25-11.9-16.5-17.9-24.8-0.537-0.744-1.07-1.49-1.63-2.25-1.07-1.49-2.15-2.98-3.22-4.46-2.85-3.95-5.7-7.88-8.57-11.8-0.599-0.822-1.2-1.64-1.81-2.49-1.15-1.58-2.31-3.16-3.46-4.73-0.516-0.71-1.03-1.42-1.56-2.15-0.457-0.624-0.913-1.25-1.38-1.89-1.1-1.71-1.1-1.71-2.1-4.71-5.51 4.76-10.9 9.63-16.2 14.6-0.685 0.642-1.37 1.28-2.08 1.95-2.92 2.75-5.82 5.5-8.6 8.39-2.14 2.04-2.14 2.04-4.14 2.04v2c-1.22 0.867-1.22 0.867-2.46 1.75-2.77 2.01-2.77 2.01-3.18 5.01-0.00666 1.06-0.0133 2.11-0.0202 3.2-0.0295 1.8-0.0295 1.8-0.0595 3.64 0.0059 1.94 0.0059 1.94 0.0119 3.91-0.0131 1.34-0.0284 2.68-0.0458 4.02-0.0398 3.52-0.05 7.04-0.054 10.6-0.00933 3.59-0.0465 7.19-0.0818 10.8-0.0672 7.04-0.088 14.1-0.111 21.1h-56v-277z" fill="#000100"/>
<path transform="translate(1256,62)" d="m0 0c0.639 0.156 1.28 0.311 1.94 0.472 16.3 4.05 31.8 12 44.1 23.5 0.72 0.653 0.72 0.653 1.45 1.32 21.5 19.6 32.6 46.9 34.4 75.7 0.187 4.77 0.262 9.53 0.281 14.3 0.00467 0.843 0.00935 1.69 0.0142 2.55-0.0161 6.01-0.0161 6.01-1.14 7.13-2.19 0.097-4.38 0.122-6.57 0.12-0.695 8.54e-4 -1.39 0.00171-2.11 0.00259-2.35 0.00166-4.69-0.00387-7.04-0.00932-1.68-2.82e-4 -3.35-1.24e-4 -5.03 4.43e-4 -4.56 2.88e-4 -9.12-0.00561-13.7-0.0126-4.76-0.00623-9.52-0.00684-14.3-0.00803-9.02-0.00311-18-0.0113-27.1-0.0213-10.3-0.0112-20.5-0.0167-30.8-0.0217-21.1-0.0105-42.3-0.0281-63.4-0.0503 0.47 1.77 0.944 3.54 1.42 5.32 0.263 0.987 0.527 1.97 0.798 2.99 3.52 12.1 13.4 20.9 24.1 26.9 19.4 10.2 42.8 11.4 63.7 5.75 10.4-3.3 19.3-8.74 27.4-16 2.62-2 2.62-2 4.46-1.83 2.74 1.06 4.92 2.49 7.35 4.14 1.05 0.714 2.1 1.43 3.18 2.16 9.27 6.42 18.5 13 27.6 19.5-6.52 15.6-28.3 26.8-43 33-2.98 1.18-5.97 2.27-9 3.31-0.662 0.23-1.32 0.461-2.01 0.698-13.2 4.26-26.4 5.54-40.1 5.43-0.759-0.00304-1.52-0.00608-2.3-0.00922-12.8-0.0757-25.1-1.09-37.6-4.43-1.16-0.306-1.16-0.306-2.35-0.617-18.2-4.98-34.4-14-48.7-26.4-1.02-0.87-1.02-0.87-2.06-1.76-19.6-18.1-28.9-45.8-30.2-71.8-0.849-28.2 7.57-54.5 25.3-76.5 0.54-0.768 1.08-1.54 1.64-2.33 0.675-0.828 0.675-0.828 1.36-1.67h2c0.231-0.572 0.461-1.14 0.699-1.73 8.55-14.9 32.8-24.1 48.8-28.5 21.1-5.59 45.2-6.28 66.5-0.786zm-64 50c-0.893 0.482-1.79 0.964-2.71 1.46-10.9 6.38-17.7 15.4-21.3 27.5v5h113c-2.85-12.8-7.29-23.8-18.7-31.1-20.4-12.1-49-14.7-70.3-2.89z" fill="#000100"/>
<path transform="translate(950 90.2)" d="m0 0c19.3 18.2 30.8 45 31.7 71.4 0.586 27.9-6.14 53.5-24.2 75.4-0.772 0.937-1.54 1.87-2.34 2.84-20.2 23.4-50.1 35.4-80.4 38-32.9 2.37-65.2-6.04-90.9-27-10.4-9.03-18.6-18.8-25.3-30.8-0.545-0.944-1.09-1.89-1.65-2.86-13.2-24.4-14.4-54.3-7.13-80.7 4.36-14.6 11.4-28.1 21.8-39.4 0.728-0.8 0.728-0.8 1.47-1.62 46.2-50.1 127-49 177-5.18zm-132 35.5c-11.1 11.7-16 27.4-15.8 43.3 1.15 16.8 5.99 32.3 18.6 44.1 15.6 12.4 32.9 15.4 52.4 13.9 15-1.87 28.3-9.95 38-21.3 10.5-13.9 13.7-31.3 11.3-48.2-2.69-16.6-10.6-29.6-24.2-39.5-25.4-16-58.5-12.4-80.3 7.77z" fill="#000100"/>
<path transform="translate(1019 57.9)" d="m0 0c1.01 0.00222 2.02 0.00444 3.06 0.00673 1.71 1.13e-4 1.71 1.13e-4 3.46 2.29e-4 1.24 0.00516 2.48 0.0103 3.76 0.0156 1.9 0.00212 1.9 0.00212 3.83 0.00429 3.37 0.00466 6.73 0.0137 10.1 0.0247 3.43 0.0102 6.86 0.0148 10.3 0.0198 6.74 0.0111 13.5 0.0278 20.2 0.0488 0.0688 33 0.122 66 0.153 99 0.00375 3.9 0.00763 7.8 0.0116 11.7 7.87e-4 0.777 0.00157 1.55 0.00238 2.35 0.013 12.6 0.0367 25.1 0.0643 37.7 0.0281 12.9 0.0447 25.8 0.0508 38.7 0.0041 7.95 0.017 15.9 0.0415 23.8 0.0178 6.11 0.0196 12.2 0.0156 18.3 8.22e-4 2.49 0.00674 4.99 0.0183 7.48 0.102 23.2-1.32 45.7-18.6 63.2-16 14-39.3 16-59.7 15.8-1.31-0.00151-1.31-0.00151-2.65-0.00305-3.21-0.00516-6.41-0.0191-9.62-0.0321-7.2-0.0206-14.4-0.0412-21.8-0.0625v-52c18.4-0.312 18.4-0.312 24.2-0.388 1.54-0.0323 3.07-0.0657 4.61-0.1 1.16-0.00937 1.16-0.00937 2.35-0.0189 5.98-0.155 12.8-0.842 17.5-4.91 3.29-3.81 4.49-6.95 4.5-11.9 0.00486-0.883 0.00972-1.77 0.0147-2.68 2.96e-4 -0.971 5.92e-4 -1.94 8.97e-4 -2.94 0.00423-1.03 0.00846-2.06 0.0128-3.12 0.0131-3.47 0.0191-6.94 0.0251-10.4 0.00794-2.48 0.0163-4.96 0.0251-7.44 0.0181-5.35 0.0332-10.7 0.0458-16.1 0.0183-7.74 0.0429-15.5 0.0694-23.2 0.0428-12.6 0.0819-25.1 0.118-37.7 0.00216-0.752 0.00433-1.5 0.00655-2.28 0.0175-6.1 0.0349-12.2 0.0522-18.3 0.0152-5.34 0.0304-10.7 0.0457-16 0.00216-0.751 0.00432-1.5 0.00654-2.28 0.0361-12.5 0.076-25 0.119-37.5 0.0262-7.72 0.0488-15.4 0.067-23.2 0.0141-5.91 0.0332-11.8 0.0543-17.7 0.00779-2.43 0.0138-4.86 0.0181-7.29 6e-3 -3.3 0.018-6.61 0.0316-9.91 2.96e-4 -0.976 5.92e-4 -1.95 8.97e-4 -2.96 0.00486-0.878 0.00972-1.76 0.0147-2.66 0.00212-0.764 0.00423-1.53 0.00641-2.31 0.202-2.71 0.71-2.71 3.41-2.86z" fill="#000100"/>
<path transform="translate(233 134)" d="m0 0c5.69 4.75 9.87 10.1 13.9 16.3 0.554 0.777 1.11 1.55 1.68 2.36 9.8 14.5 11.1 35.1 7.89 51.9-3.32 14-10.7 24.5-20.6 34.7-0.629 0.673-1.26 1.35-1.91 2.04-13.8 12.9-32.3 16.5-50.5 16.3-7.35-0.249-19.2-0.864-24.6-6.29-1.73-0.749-3.45-1.5-5.19-2.21-3.92-1.7-6.82-3.79-9.81-6.79-1.17-0.938-2.33-1.88-3.5-2.81-12.7-11.2-21.4-25.7-22.7-42.9-0.0976-2.86-0.122-5.72-0.107-8.58 0.00274-1.01 0.00548-2.02 0.0083-3.05 0.261-18.7 0.261-18.7 5.3-23.7 0.697-1.93 1.39-3.85 2.09-5.78 2.49-6.09 6.16-10.7 10.9-15.2 0.566-0.777 1.13-1.55 1.71-2.36 2.76-3.19 5.7-5.1 9.29-7.27 4.67-2.85 4.67-2.85 9.13-6.02 22.8-16.6 57.2-6.35 77 9.33z" fill="#00B10A"/>
<path transform="translate(91,117)" d="m0 0c0.495 0.99 0.495 0.99 1 2-0.817 1.76-0.817 1.76-2.13 3.89-0.474 0.784-0.949 1.57-1.44 2.38-0.77 1.26-0.77 1.26-1.55 2.54-6.16 10.4-10.4 20.4-13.3 32.1-0.578 2.05-0.578 2.05-1.58 3.05-6.18 27.6-1.23 55.7 12.1 80.3 0.793 1.46 1.56 2.94 2.32 4.42 11.1 20.2 30.6 36.2 51.4 45.4 11.4 5.1 19.5 12.1 24.2 23.9 2.28 10.8 1.56 21-4 30.6-5.59 8.24-12.7 12.8-22.4 14.9-12.9 2.19-24.4-3.52-35.6-9.56-1.19-0.619-1.19-0.619-2.4-1.25-5.02-2.68-9.63-5.77-14.2-9.1-2.38-1.72-2.38-1.72-5.16-3.23-0.727-0.467-1.45-0.933-2.2-1.41v-2c-1.03-0.313-1.03-0.313-2.08-0.633-3.85-1.81-6.53-4.34-9.61-7.24-0.581-0.53-1.16-1.06-1.76-1.61-2.81-2.62-5.18-4.84-6.55-8.52 0.66-0.33 1.32-0.66 2-1v-8c-1.65-0.66-3.3-1.32-5-2v-3c-0.99-0.33-1.98-0.66-3-1-0.0619-0.949-0.124-1.9-0.188-2.88-0.268-1.03-0.536-2.06-0.812-3.12-2.46-1.23-2.46-1.23-5-2-0.33-0.99-0.66-1.98-1-3-0.742-0.619-0.742-0.619-1.5-1.25-2.26-2.64-2.18-5.37-2.5-8.75h-3c-0.66-1.98-1.32-3.96-2-6h-4v-12c2.79-0.194 5.58-0.381 8.38-0.562 0.794-0.0561 1.59-0.112 2.41-0.17 5.99-0.381 5.99-0.381 8.22 0.732v-2h8c0.33 2.97 0.66 5.94 1 9h2c0.33-3.63 0.66-7.26 1-11h3v-3h-3c-1.34-4.84-2.25-8.93-2-14l-2 1c-1.71 0.07-3.42 0.0844-5.12 0.0625-1.37-0.0135-1.37-0.0135-2.76-0.0273l-2.12-0.0352c-2.59-4.86-2.19-9.65-2-15h4v14h2c-0.164-0.541-0.327-1.08-0.496-1.64-0.59-2.76-0.6-5.29-0.566-8.11 0.00902-0.985 0.018-1.97 0.0273-2.98 0.0116-0.748 0.0232-1.5 0.0352-2.27-3.1-0.878-4.91-0.994-8 0l-1-2h3v-16h2c0.495-1.49 0.495-1.49 1-3h3v-2h-4v-13h-2c0.33-1.65 0.66-3.3 1-5 3 1 3 1 4 3 0.495-1.49 0.495-1.49 1-3h2c0.33 1.65 0.66 3.3 1 5h2c0.495 0.99 0.495 0.99 1 2l1-2h7c0.0297 0.832 0.0297 0.832 0.0601 1.68 0.0955 2.52 0.205 5.05 0.315 7.57 0.0309 0.873 0.0619 1.75 0.0938 2.64 0.058 1.27 0.058 1.27 0.117 2.56 0.0314 0.775 0.0628 1.55 0.0952 2.35 0.351 2.42 1.18 4.05 2.32 6.2 0.345 2.12 0.632 4.24 0.875 6.38 0.744 5.3 1.96 8.27 5.12 12.6 0.904 2.96 1.43 5.96 2 9 0.364 1.52 0.738 3.04 1.12 4.56 0.433 1.7 0.433 1.7 0.875 3.44h3c0.33 0.66 0.66 1.32 1 2 0.614 0.112 1.23 0.224 1.86 0.34 3.03 0.933 3.75 2.57 5.39 5.22 0.521 0.826 1.04 1.65 1.58 2.5 0.387 0.638 0.773 1.28 1.17 1.93-0.66 0.99-1.32 1.98-2 3 0.933 2.42 0.933 2.42 4.5 3.38 3.5 1.62 3.5 1.62 4.44 3.81 0.0206 0.598 0.0413 1.2 0.0625 1.81h3c1.55 2.26 2.78 4.55 4 7h2c0.33-0.66 0.66-1.32 1-2 0.33 1.32 0.66 2.64 1 4 0.99-0.66 1.98-1.32 3-2-3.49-4.32-7.1-8.05-11.4-11.6-2.17-1.91-3.85-4.14-5.61-6.42-0.66-0.33-1.32-0.66-2-1v-2h-2c-3.9-4.1-5.8-7.75-8-13-1.09-2.15-2.2-4.3-3.31-6.44-1.25-2.51-2.47-5.03-3.69-7.56-0.556-1.14-1.11-2.27-1.68-3.45-5.93-13.7-7.32-29.7-7.32-44.6h-6c-1.48-4.45-1.48-4.45-3-9 0.66-0.66 1.32-1.32 2-2 0.66 0.33 1.32 0.66 2 1 0.33-0.99 0.66-1.98 1-3h2l1 4c0.186-1.58 0.186-1.58 0.375-3.19 0.625-3.81 0.625-3.81 1.69-6.25 1.17-2.68 1.17-2.68 0.742-6.23-0.0508-4.92 1.79-8.12 4.26-12.3 3.75-6.63 6.85-13.3 9.47-20.4 1.74-4.56 3.82-7.4 7.47-10.6l1-1z" fill="#00B10A"/>
<path transform="translate(305,179)" d="m0 0h3c1.04 7.36 0.859 14.2 0.0625 21.6-0.15 1.49-0.15 1.49-0.303 3.02-0.182 1.82-0.368 3.63-0.56 5.45-0.216 1.81-0.216 1.81-0.199 2.97 0.66-0.33 1.32-0.66 2-1 0.33 0.33 0.66 0.66 1 1v-7h3v-3h-3v-11l1 2h2v-2h2v-5c8.57-0.143 8.57-0.143 12 1v6h-4v6h4v2h2c0.178 4.55-0.00215 7.88-2 12h-3v7h3c0.66 0.99 1.32 1.98 2 3h1c0.0268 2.81 0.0468 5.62 0.0625 8.44 0.00838 0.802 0.0168 1.6 0.0254 2.43 0.00862 2.04-0.0356 4.09-0.0879 6.13-1 1-1 1-3.72 1.1-1.65-0.0174-1.65-0.0174-3.34-0.0352-1.1-0.00902-2.21-0.018-3.35-0.0273-0.855-0.0116-1.71-0.0232-2.59-0.0352 0.0412 1.2 0.0825 2.39 0.125 3.62 0.0135 3.8-0.705 6.82-2.12 10.4 1.21 0.217 1.21 0.217 2.44 0.438 2.56 0.562 2.56 0.562 3.56 1.56 0.0406 1.67 0.0427 3.33 0 5 2.64 0.33 5.28 0.66 8 1v8h-4c0.0206 0.928 0.0412 1.86 0.0625 2.81-0.0625 3.19-0.0625 3.19-1.06 6.19 0.394 2.64 0.394 2.64 1 5h-3c0.33 1.32 0.66 2.64 1 4-3.7 1.58-7.34 2.64-11.2 3.56-3.68 0.615-3.68 0.615-6.75 2.44-0.0721 1.69-0.0839 3.38-0.0625 5.06 0.00902 0.919 0.018 1.84 0.0273 2.79 0.0116 0.71 0.0232 1.42 0.0352 2.15-3.96 1.98-3.96 1.98-8 4-0.198 6.08-0.198 6.08 1 12-0.33-0.66-0.66-1.32-1-2h-2v4h3c0.66 1.98 1.32 3.96 2 6-1.81 2.19-1.81 2.19-5 4-3.9-0.381-7.46-1.33-11-3-1.02-1.32-2.02-2.65-3-4-5.85-1.31-11.1-0.886-17 0-0.33 0.99-0.66 1.98-1 3h-2c0.186 0.784 0.371 1.57 0.562 2.38 0.438 2.62 0.438 2.62-0.562 4.62 0.99-0.33 1.98-0.66 3-1 0.33 0.99 0.66 1.98 1 3h-11v-3c-3.96-0.33-7.92-0.66-12-1l1 4c0.66 0.33 1.32 0.66 2 1-0.577 0.0825-1.16 0.165-1.75 0.25-2.42 0.571-2.42 0.571-3.81 2.81-3.98 3.16-8.54 2.24-13.4 1.94-0.33-1.32-0.66-2.64-1-4-1.65-0.33-3.3-0.66-5-1 0.835-1.58 0.835-1.58 1.69-3.19 1.21-2.87 1.42-3.47 0.438-6.56-2.81-2.97-5.3-3.83-9.12-5.25-0.33-0.33-0.66-0.66-1-1 0.735-9.37 5.4-16.5 12-23 3.82-2.44 7.84-4.21 12-6 14.2-6.67 28.3-15.4 38-28 1.67-1.67 3.33-3.33 5-5 2.75-3.3 5.19-6.69 7.5-10.3 0.851-1.32 0.851-1.32 1.72-2.68 13-21.9 16.2-43.9 16.8-69z" fill="#00B10A"/>
<path transform="translate(217,160)" d="m0 0c0.495 2.97 0.495 2.97 1 6 1.98 0.33 3.96 0.66 6 1 2.3 8.15 2.17 16 2 24.4-0.0533 2.7-0.093 5.39-0.125 8.09-0.0232 1.18-0.0464 2.37-0.0703 3.59-0.0385 3.14-0.0385 3.14 2.2 5.95 3.57 0.736 3.57 0.736 7 1v-6c0.639-0.248 1.28-0.495 1.94-0.75 2.26-1.05 2.26-1.05 2.69-3.33 0.122-0.634 0.245-1.27 0.371-1.92 0.996-0.147 0.996-0.147 2.01-0.297 5.36-0.908 9.01-1.72 13-5.7 1.25 15.3-5.9 29.6-15.2 41.2-0.584 0.606-1.17 1.21-1.77 1.84h-2v2c-0.99 0.66-1.98 1.32-3 2-0.724 2.06-0.724 2.06-1 4-1.11-0.289-2.23-0.577-3.38-0.875-5.16-0.699-8.26 1.62-12.4 4.43-2.2 1.45-2.2 1.45-5.2 2.45v3c-1.21-0.278-1.21-0.278-2.44-0.562-0.846-0.144-1.69-0.289-2.56-0.438-0.33 0.33-0.66 0.66-1 1-1.41 0.156-2.83 0.251-4.25 0.316-0.854 0.0419-1.71 0.0838-2.59 0.127-0.898 0.0393-1.8 0.0786-2.72 0.119-1.35 0.0648-1.35 0.0648-2.73 0.131-2.23 0.106-4.47 0.208-6.71 0.307-0.33-0.99-0.66-1.98-1-3 6.62-0.125 6.62-0.125 10 1 0.33-1.65 0.66-3.3 1-5h2c-0.186-0.784-0.371-1.57-0.562-2.38-0.438-2.62-0.438-2.62 0.562-4.62h-2c-0.33-1.32-0.66-2.64-1-4h3v-3h12v-3c1.45-0.217 1.45-0.217 2.94-0.438 2.93-0.238 2.93-0.238 4.06-1.56 3.44-0.188 3.44-0.188 7 0 0.66 0.66 1.32 1.32 2 2h-3v5h6v-3h3c0.103-0.577 0.206-1.16 0.312-1.75 0.785-2.57 1.99-4.19 3.69-6.25-0.695 0.164-1.39 0.327-2.11 0.496-3.13 0.545-6.03 0.601-9.21 0.566-1.07-0.00902-2.14-0.018-3.24-0.0273-1.21-0.0174-1.21-0.0174-2.45-0.0352 0.495-1.49 0.495-1.49 1-3 0.226-2.39 0.408-4.79 0.562-7.19 0.0838-1.27 0.168-2.54 0.254-3.86 0.0909-1.46 0.0909-1.46 0.184-2.96-1.46-0.027-2.92-0.0464-4.38-0.0625-1.22-0.0174-1.22-0.0174-2.46-0.0352-2.21-0.047-2.21-0.047-4.16 1.1-0.656 2.53-0.656 2.53-1 5h-4l-1 2c-0.309-0.825-0.619-1.65-0.938-2.5-1.76-2.67-1.76-2.67-4.2-2.94-2.41-0.0621-4.51-0.0996-6.87 0.438-0.66 0.99-1.32 1.98-2 3-3.47-0.495-3.47-0.495-7-1v-2h-6c-0.66 1.32-1.32 2.64-2 4h-4v2h-3c-0.268-0.639-0.536-1.28-0.812-1.94-1.07-2.39-1.07-2.39-4.19-3.06-1.18-2.94-1.03-3.9 0-7 1.32-0.372 2.66-0.706 4-1 0.33-0.66 0.66-1.32 1-2h4c0.049-0.748 0.098-1.5 0.148-2.27 0.0748-0.985 0.15-1.97 0.227-2.98 0.0696-0.975 0.139-1.95 0.211-2.95 0.407-2.75 1.18-4.36 2.41-6.8 0.451-2.59 0.451-2.59 0.625-5.25 0.0748-0.892 0.15-1.78 0.227-2.7 0.049-0.675 0.098-1.35 0.148-2.05 1.65-0.33 3.3-0.66 5-1-0.66-2.97-1.32-5.94-2-9-3.96-0.33-7.92-0.66-12-1v2c-2.33 0.381-4.66 0.713-7 1-1-1-1-1-1.1-2.85 0.0326-2.05 0.0651-4.1 0.0977-6.15 39.8-1.71 39.8-1.71 58 1z" fill="#00B10E"/>
<path transform="translate(123,28)" d="m0 0v10h4v-6h5v3h-3v4c-2.25 1.12-3.51 1.13-6 1.12-1.05 0.00387-1.05 0.00387-2.12 0.00781-1.88-0.133-1.88-0.133-3.88-1.13v2h-14v6c0.99-0.495 0.99-0.495 2-1 2.04 0.0878 4.09 0.242 6.12 0.438 1.1 0.102 2.19 0.204 3.32 0.309 0.843 0.0838 1.69 0.168 2.55 0.254v4c5.61 0.66 11.2 1.32 17 2-0.33-1.65-0.66-3.3-1-5 0.433 0.474 0.866 0.949 1.31 1.44 1.71 1.8 1.71 1.8 4.69 2.56v4h3v2c-0.66 0.66-1.32 1.32-2 2 0.66 0.33 1.32 0.66 2 1v2c-1.49 0.495-1.49 0.495-3 1v-3h-2v2c-1.49 0.495-1.49 0.495-3 1v-3h-4v4c-1.32 0.33-2.64 0.66-4 1-0.33 1.32-0.66 2.64-1 4-7.43 1.29-7.43 1.29-11 0v2h-3c-0.495 0.99-0.495 0.99-1 2-3-1-3-1-5-3-0.495 0.99-0.495 0.99-1 2-7-1-7-1-10.3-1.56-8.29-0.984-14.9-0.598-22.7 2.56v-2h2v-3h-6v9h-4v3h11v-2c2.99-1.49 5.71-1.12 9-1 0.99 0.495 0.99 0.495 2 1v-4c5.75-0.125 5.75-0.125 8 1v2h2v3c1.48 0.495 1.48 0.495 3 1-0.33 1.32-0.66 2.64-1 4h-2v2h-4v4h-2v3h-6v2h-6c-0.495 1.98-0.495 1.98-1 4h-3v2c-2.6 1.3-4.54 1.13-7.44 1.12-0.968 0.00258-1.94 0.00516-2.93 0.00781-2.63-0.133-2.63-0.133-5.63-1.13v-2h-4l-1 4h-2v7h-3v7h-7v-2l-5-1v-7l-5-1c-1.75-4.48-2.54-8.19-2-13 1.88-1.69 1.88-1.69 4-3l1-2.12c0.495-0.928 0.495-0.928 1-1.88 2.06-0.617 2.06-0.617 4-1 0.227-1.28 0.454-2.56 0.688-3.88 0.547-2.24 0.547-2.24 1.31-4.12 1.65-0.717 3.31-1.38 5-2 1.03-2.32 2.04-4.65 3-7 2.9-2.23 5.41-2.2 9-2 0.248-0.866 0.495-1.73 0.75-2.62 1.73-4.66 4.27-9.26 8.25-12.4h3c0.289-0.619 0.578-1.24 0.875-1.88 1.12-2.12 1.12-2.12 3.12-4.12 2.38-0.633 2.38-0.633 5.12-1.12 0.91-0.168 1.82-0.335 2.76-0.508 0.699-0.121 1.4-0.242 2.12-0.367 0.11-0.603 0.219-1.21 0.332-1.83 1.06-3.46 3.62-5.43 6.67-7.17 3.38-0.312 3.38-0.312 6 0 0.331-1.18 0.331-1.18 0.668-2.39 1.33-2.61 1.33-2.61 3.7-3.76 7.65-1.73 14.8-2.2 22.6-1.86z" fill="#00B10A"/>
<path transform="translate(206)" d="m0 0c0.99 0.495 0.99 0.495 2 1h3.5c3.5 0 3.5 0 5.5 1 1.46 0.308 2.93 0.58 4.4 0.832 0.886 0.157 1.77 0.314 2.68 0.476 0.941 0.167 1.88 0.333 2.85 0.505 7.7 1.4 14.9 3.02 22.1 6.19v2c0.99 0.33 1.98 0.66 3 1-4.15 0.0741-8.03 0.0469-12.1-0.625-4.72-0.457-7.71 0.541-11.9 2.62-1.71 0.07-3.42 0.0844-5.12 0.0625-0.91-0.00902-1.82-0.018-2.76-0.0273-0.699-0.0116-1.4-0.0232-2.12-0.0352-0.33 0.66-0.66 1.32-1 2v-2h-4v2c-0.64-0.0303-1.28-0.0606-1.94-0.0918-2.92-0.137-5.83-0.273-8.75-0.408-1.51-0.0715-1.51-0.0715-3.05-0.145-0.976-0.0451-1.95-0.0902-2.96-0.137-0.895-0.0419-1.79-0.0838-2.71-0.127-2.53-0.0898-5.05-0.108-7.59-0.0918-0.33 0.66-0.66 1.32-1 2h-2v3h2v2c-0.99 0.33-1.98 0.66-3 1-0.289-0.804-0.577-1.61-0.875-2.44-0.858-2.7-0.858-2.7-3.12-3.56v7c-0.99-0.33-1.98-0.66-3-1 0.278-1.3 0.278-1.3 0.562-2.62 0.61-4.7 0.338-9.48-2.56-13.4-8.1-1.76-17.1-1.57-25 1-0.33 0.33-0.66 0.66-1 1-5.36 1.01-10.6 1.11-16 1v-2c17-5.66 32.8-8.63 50.8-8.31 1.7 0.0115 3.4 0.0213 5.09 0.0293 1.63 0.0134 3.26 0.0283 4.89 0.0449 1.12 0.0111 1.12 0.0111 2.25 0.0224 4.1 0.0749 7.99 0.431 12 1.22v-2zm-44 2 4 1z" fill="#00B10A"/>
<path transform="translate(200,161)" d="m0 0c0.33 0.99 0.66 1.98 1 3 1.42-0.0309 1.42-0.0309 2.88-0.0625 3.12 0.0625 3.12 0.0625 5.12 1.06v4h2c0.495 1.49 0.495 1.49 1 3 3 1.71 3 1.71 6 3v6c-2.65 1.46-3.89 2-7 2l1 2c0.04 2 0.0435 4 0 6-2.31 0.33-4.62 0.66-7 1v3c-0.639 0.103-1.28 0.206-1.94 0.312-0.681 0.227-1.36 0.454-2.06 0.688-0.33 0.99-0.66 1.98-1 3h2v6c-3.76 2.49-6.87 2.03-11.2 1.62-1.26-0.111-2.53-0.222-3.83-0.336-0.964-0.0954-1.93-0.191-2.92-0.289v3h-8v-6h2c0.33-0.99 0.66-1.98 1-3 3.21-1.61 6.44-1.06 10-1v-3c1.98-0.495 1.98-0.495 4-1-0.0116-0.603-0.0232-1.21-0.0352-1.83-0.00902-0.799-0.018-1.6-0.0273-2.42-0.0116-0.789-0.0232-1.58-0.0352-2.39 0.0938-2.27 0.465-4.19 1.1-6.36h-3v-6c-2.97-0.495-2.97-0.495-6-1v-6h3c0.33-1.65 0.66-3.3 1-5h3v-2c2.71-1.35 5.01-1.07 8-1z" fill="#00B20A"/>
<path transform="translate(301,219)" d="m0 0 4 2c0.632 6-1.62 10.6-4 16h-3c-0.227 1.22-0.454 2.43-0.688 3.69-1.39 6.36-3.88 12.3-6.31 18.3h-2c-0.227 0.598-0.454 1.2-0.688 1.81-1.31 2.19-1.31 2.19-3.75 3.62-3.53 2.15-4.88 4.83-6.38 8.62-1.79 2.92-4.27 4.24-7.19 5.94h-2c-0.248 0.784-0.495 1.57-0.75 2.38-1.44 3.03-2.31 3.3-5.25 4.62-0.495 1.49-0.495 1.49-1 3h-4c-0.103 0.763-0.206 1.53-0.312 2.31-0.753 2.94-1.33 3.85-3.69 5.69-2.19 1.19-2.19 1.19-4 2v3c-0.892 0.133-1.78 0.266-2.7 0.402-1.76 0.265-1.76 0.265-3.55 0.535-1.74 0.261-1.74 0.261-3.52 0.527-2.47 0.408-4.83 0.874-7.23 1.54v2c-0.94 0.346-0.94 0.346-1.9 0.699-5.22 1.92-5.22 1.92-8.66 6.05-0.144 0.742-0.289 1.49-0.438 2.25-2.39-0.576-4.67-1.22-7-2 1-5.8 4.92-9.98 9-14 3.82-2.44 7.84-4.21 12-6 14.2-6.67 28.3-15.4 38-28l5-5c2.75-3.3 5.19-6.69 7.5-10.3 0.851-1.32 0.851-1.32 1.72-2.68 3.89-6.57 6.83-13.4 9.53-20.5 0.316-0.822 0.632-1.64 0.957-2.49 0.768-2 1.53-4 2.29-6.01z" fill="#00B10E"/>
<path transform="translate(121,193)" d="m0 0c5.34 0.525 5.34 0.525 8 2 1.26 2.48 1.85 4.78 2.43 7.49 0.744 3.27 1.64 5.65 4.13 7.95 1.92 2.07 2.08 3.73 2.5 6.5 0.539 3.4 1.25 6.05 2.94 9.06 0.33-0.99 0.66-1.98 1-3h3c0.33 1.98 0.66 3.96 1 6h2v2h2c-0.33-1.32-0.66-2.64-1-4h-2v-4h4v6h2v4l2 1-2 1c0.507 4.44 2.17 6.62 5 10v2c2.31 0.33 4.62 0.66 7 1v2c-2 1.25-2 1.25-5 2-2.88-0.97-5.4-2.45-8-4-0.928-0.516-1.86-1.03-2.81-1.56-2.05-1.34-3.47-2.71-5.19-4.44-1.17-0.938-2.33-1.88-3.5-2.81-12.2-10.7-20.2-24-22.5-40.2-0.125-3.06-0.125-3.06 0-5 0.66 0.66 1.32 1.32 2 2 0.33-0.99 0.66-1.98 1-3z" fill="#00B10E"/>
<path transform="translate(178 120)" d="m0 0c2.48 1.17 4.33 1.23 7.05 1.31 3.93 0.313 4.86 0.524 8.06 3.12 0.66 0.846 1.32 1.69 2 2.56 0.99 0.99 0.99 0.99 2 2 0.33-0.99 0.66-1.98 1-3 0.99 0.99 0.99 0.99 2 2h-2c0.309 0.557 0.619 1.11 0.938 1.69 1.12 2.44 1.62 4.67 2.06 7.31h-8c0.495-1.49 0.495-1.49 1-3h-2v-2h-3v2h-2v-3c-1.32-0.33-2.64-0.66-4-1v-2c-1.61 0.495-1.61 0.495-3.25 1-3.75 1-3.75 1-7.75 1-0.33 0.66-0.66 1.32-1 2-0.66-0.33-1.32-0.66-2-1v2c-0.687 0.11-1.37 0.219-2.08 0.332-0.901 0.159-1.8 0.317-2.73 0.48-0.893 0.151-1.79 0.302-2.71 0.457-2.71 0.799-3.57 1.74-5.48 3.73h-3c-0.33 0.99-0.66 1.98-1 3-2.07 0.73-2.07 0.73-4.56 1.19-0.826 0.159-1.65 0.317-2.5 0.48-0.638 0.11-1.28 0.219-1.93 0.332-0.33 1.32-0.66 2.64-1 4h-5c-0.33 0.99-0.66 1.98-1 3-1.44 1.69-1.44 1.69-3 3h-2c-0.616-7.26-0.616-7.26 2.25-10.7 0.908-0.763 1.82-1.53 2.75-2.31 0.859-1.17 0.859-1.17 1.73-2.36 2.75-3.21 5.69-5.1 9.27-7.27 4.66-2.85 4.66-2.85 9.11-6.01 5.55-3.99 15.3-7.79 21.8-4.36z" fill="#00B10E"/>
<path transform="translate(144,324)" d="m0 0h5c0.553 2.08 1 3.84 1 6 0.66 0.33 1.32 0.66 2 1v-2c0.66-0.33 1.32-0.66 2-1 0.33-0.99 0.66-1.98 1-3 2.06-0.688 2.06-0.688 4-1 1.89 3.19 2.2 5.44 2.06 9.12-0.202 3.58-0.202 3.58 0.938 6.88-3.02 6.2-6.82 13.1-12.8 16.7-3.72 0.364-4.25-0.0673-7.06-2.31-1.8-1.6-1.8-1.6-3.12-3.38v-4c-1.98 0.348-1.98 0.348-4 1-0.33 0.66-0.66 1.32-1 2h3c-0.33 0.66-0.66 1.32-1 2h-8c0.639-0.289 1.28-0.577 1.94-0.875 2.21-0.953 2.21-0.953 3.06-3.12-0.784 0.0412-1.57 0.0825-2.38 0.125-2.62-0.125-2.62-0.125-4.62-2.12 0.33-3.3 0.623-4.62 3-7 2.62-0.125 2.62-0.125 5 0v-2c-2.47-0.99-2.47-0.99-5-2 2.04-0.51 4.05-1.01 6.12-1.38 2.26-0.541 2.26-0.541 3.88-3.62v3h3v-4c0.613-1.69 1.27-3.36 2-5z" fill="#00B10E"/>
<path transform="translate(26,109)" d="m0 0c0.33 0.99 0.66 1.98 1 3 0.66-0.99 1.32-1.98 2-3h2v19h-6v3h2v14c-0.99-0.66-1.98-1.32-3-2v-2h-2c-0.33 1.32-0.66 2.64-1 4-1.32-1.32-2.64-2.64-4-4-0.33 4.29-0.66 8.58-1 13-1.48 0.495-1.48 0.495-3 1-0.33-1.32-0.66-2.64-1-4-0.33 1.32-0.66 2.64-1 4h-2c-0.0374-0.615-0.0748-1.23-0.113-1.86-0.0657-0.808-0.131-1.62-0.199-2.45l-0.176-2.43c-0.3-2.35-0.3-2.35-2.08-3.65-1.43-1.61-1.43-1.61-1.43-3.47 1.67-6.33 3.77-12.4 6.06-18.6 0.364-0.992 0.728-1.98 1.1-3.01 2.65-7.2 2.65-7.2 3.83-9.56h3c0.33 0.66 0.66 1.32 1 2 0.619-0.495 1.24-0.99 1.88-1.5 2.12-1.5 2.12-1.5 4.12-1.5z" fill="#00B10A"/>
<path transform="translate(202,123)" d="m0 0c5.75-0.205 10.5 0.354 16 2 1.58 0.433 1.58 0.433 3.19 0.875 5.6 2.24 9.03 6.35 12.8 10.8 1.4 1.62 2.84 3.21 4.31 4.77 7.93 8.46 7.93 8.46 9.66 14.5-0.33 0.99-0.66 1.98-1 3-1.32-0.66-2.64-1.32-4-2v-2c-0.99 0.33-1.98 0.66-3 1-0.66-0.66-1.32-1.32-2-2-2.07-0.643-2.07-0.643-4-1v-3h-4c-0.33 0.99-0.66 1.98-1 3v-3c-0.99-0.33-1.98-0.66-3-1 0.99-0.33 1.98-0.66 3-1v-3c-1.05-0.0619-2.1-0.124-3.19-0.188-4.51-0.961-5.99-2.24-8.81-5.81-0.362-1.33-0.697-2.66-1-4-1.31-1.35-2.64-2.69-4-4v-2c-2.31-0.33-4.62-0.66-7-1v-2h-2c-0.33-0.99-0.66-1.98-1-3z" fill="#00B10E"/>
<path transform="translate(370,146)" d="m0 0h1c2.36 11 3.66 21.7 4 33 0.0412 1.08 0.0825 2.16 0.125 3.27 0.162 8.21-0.454 16.4-1.06 24.5-0.13 1.77-0.13 1.77-0.263 3.57-0.0873 1.1-0.175 2.2-0.264 3.33-0.0786 0.995-0.157 1.99-0.238 3.01-0.297 2.28-0.297 2.28-1.3 3.28-0.628 3.67-1.19 7.35-1.72 11-0.791 5.13-2.13 9.25-4.28 14-0.538 2.17-0.538 2.17-0.812 4.19-1.02 4.94-3.13 9.02-5.46 13.5-2.28 4.44-4.33 8.97-6.36 13.5-2.14 4.7-2.14 4.7-4.36 5.81 1.75-6.01 4.14-11.5 6.88-17.1 4.78-9.86 8.54-20 10.1-30.9h2c0.0269-2.15 0.0463-4.29 0.0625-6.44 0.0116-1.19 0.0232-2.39 0.0352-3.62 0.241-2.83 0.241-2.83-1.1-3.94-0.33 1.32-0.66 2.64-1 4v-5h3v-9c-1.65 2.31-3.3 4.62-5 7-3.33-1.33-6.67-2.67-10-4v-5h6v-2h5c-0.0619-0.763-0.124-1.53-0.188-2.31 0.188-2.69 0.188-2.69 1.69-4.5 0.495-0.392 0.99-0.784 1.5-1.19 0.66 2.31 1.32 4.62 2 7 1.93-4.82 2.21-9.07 2.06-14.2-0.104-6.67 0.135-13.2 0.938-19.8h-2c-0.495-12.4-0.495-12.4-1-25z" fill="#00B10A"/>
<path transform="translate(245,27)" d="m0 0h11c1 6.63 1 6.63 1 10h3v-9c1.98 0.464 1.98 0.464 4 0.938 4.32 0.966 8.6 1.58 13 2.06v5c-1.32 0.33-2.64 0.66-4 1v2h-2v5c-6 2.13-11.6 2.45-18 2-0.66-0.33-1.32-0.66-2-1v-5h-2v-11h-5c0.33-0.66 0.66-1.32 1-2z" fill="#00B10A"/>
<path transform="translate(9,173)" d="m0 0c0.33 0.66 0.66 1.32 1 2 1.65-0.66 3.3-1.32 5-2v2c1.65-0.33 3.3-0.66 5-1v15h-2c0.156 0.58 0.312 1.16 0.473 1.76 1.19 4.77 1.78 8.37 0.527 13.2-3.96 0.495-3.96 0.495-8 1-0.33-1.32-0.66-2.64-1-4-1.32-0.33-2.64-0.66-4-1-0.934-6.05-1.05-11 0.52-16.9 0.703-3.1 0.615-5.95 0.48-9.12 0.66-0.33 1.32-0.66 2-1z" fill="#00B20A"/>
<path transform="translate(117,285)" d="m0 0c0.959 0.402 0.959 0.402 1.94 0.812 2.9 1.17 2.9 1.17 5.29 1.85 0.79 0.236 1.58 0.472 2.39 0.715 0.755 0.214 1.51 0.428 2.29 0.648 2.09 0.977 2.09 0.977 3.43 2.86 2.28 2.91 5.18 4.07 8.46 5.55 6.28 2.85 11.6 5.7 15.1 11.9 1.17 3.76 1.36 6.72 1.12 10.6h-3c-0.33-0.66-0.66-1.32-1-2l-2 1c-0.562-1.94-0.562-1.94-1-4l1-1c-3.3-0.99-6.6-1.98-10-3 0.99-0.33 1.98-0.66 3-1v-3c-0.99-0.66-1.98-1.32-3-2h3v-2c-4.07-2.39-7.82-2.41-12.4-2.66-2.56-0.344-2.56-0.344-5.56-2.34-3.2-0.46-3.2-0.46-6.69-0.625-1.18-0.0748-2.36-0.15-3.57-0.227-0.904-0.049-1.81-0.098-2.74-0.148 0.685-2.94 1.65-5.31 3-8 0.368-1.32 0.712-2.66 1-4z" fill="#00B10E"/>
<path transform="translate(271,349)" d="m0 0c0.66 1.65 1.32 3.3 2 5-4.53 3.01-8.68 5.62-14 7-0.752 0.196-1.5 0.392-2.28 0.594-9.69 2.27-17.4 0.499-26.7-2.59 0.33-0.66 0.66-1.32 1-2 2.1-0.363 2.1-0.363 4.85-0.527 0.998-0.0703 2-0.141 3.03-0.213 2.1-0.13 4.2-0.257 6.3-0.383 6.23-0.442 11.1-1.52 16.8-3.88h4v-2c3-1 3-1 5-1z" fill="#00B10A"/>
<path transform="translate(206)" d="m0 0c0.66 0.33 1.32 0.66 2 1 2.33 0.0402 4.67 0.0432 7 0 0.495 1.48 0.495 1.48 1 3h-7c0.186 0.639 0.371 1.28 0.562 1.94 0.144 0.681 0.289 1.36 0.438 2.06-1 1-1 1-3.29 1.1-1.37-0.0174-1.37-0.0174-2.78-0.0352-0.919-0.00902-1.84-0.018-2.79-0.0273-0.71-0.0116-1.42-0.0232-2.15-0.0352v-2c1.65-0.33 3.3-0.66 5-1-2.31-0.33-4.62-0.66-7-1v2c-3.96 1.98-3.96 1.98-8 4v1c-8.57 0.286-8.57 0.286-12-2 0.99-0.99 1.98-1.98 3-3v3h4c-0.33-0.99-0.66-1.98-1-3 1.65-0.33 3.3-0.66 5-1v-3c-0.846 0.186-1.69 0.371-2.56 0.562-3.71 0.473-6.77 0.0981-10.4-0.562 2-2 2-2 4.24-2.24 1.37 0.00616 1.37 0.00616 2.77 0.0125 1 0.00193 2.01 0.00387 3.04 0.00586 1.58 0.0184 1.58 0.0184 3.19 0.0371 1.04 6.45e-4 2.08 0.00129 3.14 0.00195 4.97 0.0286 9.72 0.134 14.6 1.19v-2z" fill="#00B10E"/>
<path transform="translate(56.7 128)" d="m0 0c1.14-0.00258 2.28-0.00516 3.45-0.00781 2.86 0.133 2.86 0.133 4.86 1.13v2h-2v3h2v2h-2v5h-12v-6h-11v-3h5v-3c3.95-0.933 7.63-1.13 11.7-1.12z" fill="#00B20A"/>
<path transform="translate(320,101)" d="m0 0c1.33 1.33 2.67 2.67 4 4 2.48 0.99 2.48 0.99 5 2 0.33 4.62 0.66 9.24 1 14h4c2.47 2.18 4.52 4.04 6 7-0.66 0.33-1.32 0.66-2 1-0.468 2.36-0.468 2.36-0.625 5.06-0.0748 0.919-0.15 1.84-0.227 2.79-0.049 0.71-0.098 1.42-0.148 2.15h-1c-0.309-1.11-0.619-2.23-0.938-3.38-0.886-3.42-0.886-3.42-2.06-5.62-1.65-0.33-3.3-0.66-5-1-0.66-6.93-1.32-13.9-2-21-2.31-0.33-4.62-0.66-7-1-0.66-0.33-1.32-0.66-2-1v-2h-3v-2c3-1 3-1 6-1z" fill="#00B10F"/>
<path transform="translate(30,246)" d="m0 0h13c-0.33 1.32-0.66 2.64-1 4-0.557-0.186-1.11-0.371-1.69-0.562-2.71-0.513-4.66-0.102-7.31 0.562 0.99 1.49 0.99 1.49 2 3v-2h8v6h-13v-11z" fill="#00B20A"/>
<path transform="translate(62,324)" d="m0 0c1.48 0.281 2.96 0.575 4.44 0.875 1.24 0.244 1.24 0.244 2.5 0.492 0.682 0.209 1.36 0.418 2.07 0.633 0.33 0.66 0.66 1.32 1 2h4v2c0.99 0.33 1.98 0.66 3 1v2c1.32 0.33 2.64 0.66 4 1-0.99 0.33-1.98 0.66-3 1 0.33 1.65 0.66 3.3 1 5-1.65-0.66-3.3-1.32-5-2v-2c-0.726-0.248-1.45-0.495-2.2-0.75-3.08-1.37-5.12-3-7.61-5.25-0.79-0.701-1.58-1.4-2.39-2.12-1.79-1.88-1.79-1.88-1.79-3.88z" fill="#00B10E"/>
<path transform="translate(58,142)" d="m0 0v8c-0.99 0.33-1.98 0.66-3 1v2c-2.71 1.35-5.01 1.07-8 1v-11c1.44-0.165 2.89-0.33 4.38-0.5 0.812-0.0928 1.62-0.186 2.46-0.281 2.16-0.219 2.16-0.219 4.16-0.219z" fill="#00B20A"/>
<path transform="translate(89,95)" d="m0 0c2.97 0.495 2.97 0.495 6 1-0.66 1.98-1.32 3.96-2 6h-2c-0.0619 0.557-0.124 1.11-0.188 1.69-1.16 3.3-3.21 5.03-5.81 7.31h-2c-0.0424-2.33-0.0409-4.67 0-7l1-1c0.0408-2 0.0425-4 0-6h5v-2z" fill="#00B20A"/>
<path transform="translate(220,28)" d="m0 0h9v11c-2.73 1.37-4.98 1.13-8 1-1-1-1-1-1.1-3.5 0.0116-1.01 0.0232-2.02 0.0352-3.06 0.00902-1.01 0.018-2.02 0.0273-3.07 0.0116-0.782 0.0232-1.56 0.0352-2.37z" fill="#00B20A"/>
<path transform="translate(230,28)" d="m0 0c3.96 0.33 7.92 0.66 12 1v9h-11c-0.33-3.3-0.66-6.6-1-10z" fill="#00B10A"/>
<path transform="translate(311,264)" d="m0 0c0.66 0.33 1.32 0.66 2 1 0.731 2.31 1.4 4.65 2 7-2.71 1.35-5.01 1.07-8 1 0.186 1.13 0.371 2.27 0.562 3.44 0.144 1.18 0.289 2.35 0.438 3.56-1 1-1 1-2.85 1.1-2.05-0.0326-4.1-0.0651-6.15-0.0977-0.103 0.639-0.206 1.28-0.312 1.94-0.227 0.681-0.454 1.36-0.688 2.06-0.99 0.33-1.98 0.66-3 1v-6h11c-0.186-2.2-0.186-2.2-0.375-4.44-0.0696-0.824-0.139-1.65-0.211-2.5-0.205-1.02-0.205-1.02-0.414-2.07-0.66-0.33-1.32-0.66-2-1 3-2 3-2 6-2v-3c0.66-0.33 1.32-0.66 2-1z" fill="#00B10F"/>
<path transform="translate(334,244)" d="m0 0h7c-0.468 4.06-0.88 7.47-3 11h-7v-7c0.99-0.33 1.98-0.66 3-1v-3z" fill="#00B20A"/>
<path transform="translate(212,234)" d="m0 0c2.31 0.33 4.62 0.66 7 1v7h-8c0.33-2.64 0.66-5.28 1-8z" fill="#00B20A"/>
<path transform="translate(113,94)" d="m0 0v3c-4.34 4-4.34 4-7 4-0.227 0.722-0.454 1.44-0.688 2.19-1.58 3.39-3.51 5.35-6.31 7.81-0.99 0.33-1.98 0.66-3 1 1.14-2.81 2.26-4.25 4.5-6.38 2.72-2.44 2.72-2.44 3.38-5.81 0.371-0.928 0.743-1.86 1.12-2.81 3.56-1.31 3.56-1.31 7-2l1-1z" fill="#00B10A"/>
<path transform="translate(36,214)" d="m0 0h7v7h-7v-7z" fill="#00B20A"/>
<path transform="translate(210,32)" d="m0 0c2-0.0425 4-0.0408 6 0 1 1 1 1 1.06 4.06-0.0206 0.969-0.0412 1.94-0.0625 2.94h-7v-7z" fill="#00B20A"/>
<path transform="translate(65,111)" d="m0 0h6c0.33 1.65 0.66 3.3 1 5-2.31 0.66-4.62 1.32-7 2v-7z" fill="#00B20A"/>
<path transform="translate(42,272)" d="m0 0h3v2c0.99 0.33 1.98 0.66 3 1-0.33 1.65-0.66 3.3-1 5h-5v-8z" fill="#00B10F"/>
<path transform="translate(286,28)" d="m0 0c1.59 0.935 3.17 1.87 4.75 2.81 0.882 0.522 1.76 1.04 2.67 1.58 2.3 1.43 4.44 2.94 6.58 4.61-0.33 0.66-0.66 1.32-1 2-2.35-1.31-4.68-2.64-7-4-0.594-0.347-1.19-0.694-1.8-1.05-1.64-1.01-1.64-1.01-4.2-2.95v-3z" fill="#00B10A"/>
<path transform="translate(12,159)" d="m0 0c0.99 0.33 1.98 0.66 3 1 1.12 7.62 1.12 7.62 0 11-2.42-4.23-3.35-7.12-3-12z" fill="#00B20A"/>
<path transform="translate(42,143)" d="m0 0c1.98 0.99 1.98 0.99 4 2-0.33 1.98-0.66 3.96-1 6h-3v-8z" fill="#00B20A"/>
<path transform="translate(175,26)" d="m0 0h8v4c-5.75 0.125-5.75 0.125-8-1v-3z" fill="#00B20A"/>
<path transform="translate(172,223)" d="m0 0h4c-0.33 0.99-0.66 1.98-1 3h-3v3h-4c0.33-1.32 0.66-2.64 1-4h3v-2z" fill="#00B10F"/>
<path transform="translate(9,159)" d="m0 0h2v12c-0.66-0.33-1.32-0.66-2-1-0.813-3.92-1.38-7.18 0-11z" fill="#00B20A"/>
<path transform="translate(375,193)" d="m0 0h1v9h-1v-9z" fill="#000100"/>
<path transform="translate(375,173)" d="m0 0h1v6h-1v-6z" fill="#000100"/>
<path transform="translate(372,220)" d="m0 0 1 4z" fill="#000100"/>
<path transform="translate(203,71)" d="m0 0c3 1 3 1 3 1z" fill="#000100"/>
<path transform="translate(252,362)" d="m0 0 2 1z" fill="#000100"/>
</svg>
