<?xml version="1.0" standalone="no"?>
<!DOCTYPE svg PUBLIC "-//W3C//DTD SVG 20010904//EN"
 "http://www.w3.org/TR/2001/REC-SVG-20010904/DTD/svg10.dtd">
<svg version="1.0" xmlns="http://www.w3.org/2000/svg"
 width="200.000000pt" height="200.000000pt" viewBox="0 0 200.000000 200.000000"
 preserveAspectRatio="xMidYMid meet">

<g transform="translate(0.000000,200.000000) scale(0.100000,-0.100000)"
fill="#000000" stroke="none">
<path d="M0 1000 l0 -1000 1000 0 1000 0 0 1000 0 1000 -1000 0 -1000 0 0
-1000z m170 63 l5 -102 58 70 c48 56 64 69 88 69 36 0 37 -9 3 -41 -14 -13
-35 -37 -46 -52 l-20 -28 62 -69 62 -70 -35 0 c-28 0 -41 8 -77 51 l-42 50
-29 -27 c-16 -15 -29 -38 -29 -51 0 -18 -6 -23 -25 -23 l-25 0 0 166 0 165 23
-3 c21 -3 22 -9 27 -105z m290 87 c0 -13 -7 -20 -20 -20 -13 0 -20 7 -20 20 0
13 7 20 20 20 13 0 20 -7 20 -20z m690 -15 c0 -33 2 -35 35 -35 31 0 35 -3 35
-25 0 -22 -4 -25 -35 -25 l-35 0 0 -67 c0 -78 5 -89 43 -98 17 -5 27 -14 27
-26 0 -30 -64 -26 -95 6 -24 23 -25 29 -25 165 l0 140 25 0 c22 0 25 -4 25
-35z m158 13 c3 -13 -3 -18 -22 -18 -20 0 -26 5 -26 21 0 15 5 20 22 17 13 -2
24 -11 26 -20z m-838 -178 l0 -130 -25 0 -25 0 0 130 0 130 25 0 25 0 0 -130z
m231 115 c51 -27 69 -69 69 -162 0 -82 0 -83 -25 -83 -25 0 -25 1 -25 80 0 73
-3 83 -25 105 -15 16 -36 25 -55 25 -19 0 -40 -9 -55 -25 -22 -22 -25 -32 -25
-105 0 -79 0 -80 -25 -80 -25 0 -25 1 -25 80 0 93 15 131 63 160 39 24 87 25
128 5z m609 -115 l0 -130 -25 0 -25 0 0 130 0 130 25 0 25 0 0 -130z m240 108
c19 -13 35 -29 38 -37 5 -14 -7 -13 -96 5 -85 17 -134 -76 -73 -137 33 -32 62
-36 105 -14 33 17 66 20 66 5 0 -21 -52 -59 -89 -65 -91 -15 -175 68 -156 155
8 36 49 88 79 100 39 16 92 11 126 -12z m261 7 c52 -27 69 -68 69 -167 0 -81
-2 -88 -20 -88 -12 0 -20 7 -20 16 0 11 -5 14 -17 9 -63 -25 -76 -27 -113 -16
-47 14 -87 59 -96 108 -5 28 -2 47 16 79 35 68 114 93 181 59z m-772 -1 c21
-5 31 -12 31 -25 0 -18 -10 -19 -130 -19 -122 0 -130 1 -130 19 0 12 8 21 23
24 36 7 172 8 206 1z m29 -121 l-3 -28 -127 -3 -128 -3 0 31 0 30 131 0 130 0
-3 -27z m0 -95 c-2 -19 -12 -24 -57 -31 -30 -5 -87 -6 -128 -2 -69 6 -73 8
-73 31 l0 24 131 0 c129 0 130 0 127 -22z"/>
<path d="M1690 1030 c-44 -44 -34 -108 21 -139 52 -29 119 13 119 74 0 72 -91
114 -140 65z"/>
</g>
</svg>
