<?xml version="1.0" standalone="no"?>
<!DOCTYPE svg PUBLIC "-//W3C//DTD SVG 20010904//EN"
 "http://www.w3.org/TR/2001/REC-SVG-20010904/DTD/svg10.dtd">
<svg version="1.0" xmlns="http://www.w3.org/2000/svg"
 width="225.000000pt" height="225.000000pt" viewBox="0 0 225.000000 225.000000"
 preserveAspectRatio="xMidYMid meet">

<g transform="translate(0.000000,225.000000) scale(0.100000,-0.100000)"
fill="#000000" stroke="none">
<path d="M1280 1825 c0 -8 15 -24 33 -36 43 -27 155 -24 176 4 9 12 22 17 37
14 14 -2 27 0 30 5 3 5 16 13 28 18 20 8 19 9 -5 9 -15 1 -40 -6 -55 -14 -37
-19 -135 -19 -181 0 -45 19 -63 19 -63 0z"/>
<path d="M1397 1833 c18 -2 50 -2 70 0 21 2 7 4 -32 4 -38 0 -55 -2 -38 -4z"/>
<path d="M1626 1831 c-4 -5 3 -7 14 -4 23 6 26 13 6 13 -8 0 -17 -4 -20 -9z"/>
<path d="M1670 1836 c0 -2 9 -6 20 -9 11 -3 20 -1 20 4 0 5 -9 9 -20 9 -11 0
-20 -2 -20 -4z"/>
<path d="M1818 1833 c6 -2 18 -2 25 0 6 3 1 5 -13 5 -14 0 -19 -2 -12 -5z"/>
<path d="M1874 1824 c3 -9 6 -18 6 -20 0 -13 31 -1 40 16 10 18 8 20 -21 20
-24 0 -30 -3 -25 -16z"/>
<path d="M295 1126 l0 -704 44 -6 c24 -3 79 -6 122 -6 l79 0 0 208 c0 188 2
209 20 232 10 14 21 23 23 20 5 -5 188 -302 248 -402 l34 -57 148 -1 c81 0
147 2 147 5 0 2 -95 158 -211 345 -115 188 -212 347 -215 354 -3 7 88 163 201
347 114 184 211 342 216 352 9 16 0 17 -138 17 l-148 0 -140 -230 c-77 -126
-143 -230 -147 -230 -4 0 -14 13 -23 30 -12 23 -15 69 -15 230 l0 200 -122 0
-123 0 0 -704z"/>
<path d="M1720 1794 c-13 -34 -14 -34 19 -34 17 0 31 6 35 16 12 31 6 44 -19
44 -18 0 -28 -7 -35 -26z"/>
<path d="M1940 1806 c0 -8 5 -18 10 -21 6 -3 10 3 10 14 0 12 -4 21 -10 21 -5
0 -10 -6 -10 -14z"/>
<path d="M1583 1803 c-15 -5 -17 -32 -5 -51 14 -22 43 -3 40 26 -3 26 -14 34
-35 25z"/>
<path d="M1640 1779 c0 -24 3 -30 16 -25 9 3 20 6 25 6 5 0 9 11 9 25 0 20 -5
25 -25 25 -21 0 -25 -5 -25 -31z"/>
<path d="M1802 1780 c-9 -26 -8 -30 10 -36 15 -4 26 -1 35 12 21 29 16 54 -11
54 -18 0 -27 -8 -34 -30z"/>
<path d="M1504 1779 c-3 -6 -1 -23 6 -39 10 -25 15 -27 30 -18 14 9 16 16 8
34 -12 26 -34 38 -44 23z"/>
<path d="M1280 1753 c0 -22 2 -25 10 -13 13 20 13 40 0 40 -5 0 -10 -12 -10
-27z"/>
<path d="M1878 1754 c-10 -21 -9 -27 3 -35 24 -15 39 -10 51 17 10 21 9 27 -3
35 -24 15 -39 10 -51 -17z"/>
<path d="M1312 1739 c-10 -15 -10 -19 2 -19 15 0 29 27 18 34 -5 3 -13 -4 -20
-15z"/>
<path d="M1356 1733 c-9 -22 -7 -30 3 -14 8 12 12 12 25 2 13 -11 16 -11 16 2
0 20 -37 29 -44 10z"/>
<path d="M1423 1733 c-7 -17 15 -64 32 -69 6 -2 18 8 28 22 18 24 18 26 1 45
-21 23 -52 25 -61 2z"/>
<path d="M1610 1725 c-64 -18 -109 -43 -124 -68 -9 -16 -5 -23 24 -48 42 -35
48 -36 56 -4 9 35 77 93 119 101 87 16 181 -12 242 -73 l33 -34 0 26 c0 18
-11 32 -41 51 -91 57 -211 76 -309 49z"/>
<path d="M1944 1709 c-3 -6 -1 -16 4 -21 8 -8 11 -5 9 11 -1 24 -3 25 -13 10z"/>
<path d="M1280 1697 c0 -7 14 -23 30 -35 28 -21 30 -22 30 -4 0 21 -14 35 -42
45 -11 4 -18 1 -18 -6z"/>
<path d="M1391 1678 c15 -28 119 -138 131 -138 21 0 5 38 -24 55 -18 10 -52
38 -75 62 -26 25 -39 34 -32 21z"/>
<path d="M1660 1680 c-13 -8 -12 -10 3 -10 9 0 17 5 17 10 0 12 -1 12 -20 0z"/>
<path d="M1696 1671 c-11 -17 6 -41 28 -41 30 0 37 9 25 31 -10 20 -44 26 -53
10z"/>
<path d="M1368 1660 c-4 -8 -12 -33 -17 -56 -6 -22 -24 -60 -41 -82 -17 -23
-30 -54 -30 -69 1 -27 1 -27 16 -8 36 48 85 165 82 197 -3 21 -6 28 -10 18z"/>
<path d="M1780 1650 c0 -23 25 -27 33 -6 7 16 -1 26 -20 26 -7 0 -13 -9 -13
-20z"/>
<path d="M1280 1637 c0 -14 5 -29 10 -32 6 -3 10 -18 10 -33 0 -21 2 -24 10
-12 16 25 11 66 -10 85 -20 18 -20 17 -20 -8z"/>
<path d="M1622 1628 c4 -31 53 -34 53 -3 0 15 -8 21 -28 23 -25 3 -28 0 -25
-20z"/>
<path d="M1855 1640 c-11 -17 5 -32 21 -19 7 6 11 15 8 20 -7 12 -21 11 -29
-1z"/>
<path d="M1420 1595 c27 -38 55 -67 83 -87 50 -36 28 -3 -35 52 -35 30 -56 46
-48 35z"/>
<path d="M1700 1595 c-23 -13 -17 -14 70 -14 87 0 93 1 70 14 -14 8 -45 14
-70 14 -25 0 -56 -6 -70 -14z"/>
<path d="M1887 1604 c-9 -10 2 -24 19 -24 8 0 14 7 14 15 0 15 -21 21 -33 9z"/>
<path d="M1588 1583 c6 -2 18 -2 25 0 6 3 1 5 -13 5 -14 0 -19 -2 -12 -5z"/>
<path d="M1361 1522 c-12 -26 -36 -68 -53 -94 -16 -26 -28 -55 -26 -65 2 -10
26 28 57 90 29 60 51 110 49 112 -2 3 -14 -17 -27 -43z"/>
<path d="M1343 1420 c-43 -85 -63 -136 -62 -160 0 -31 2 -29 18 25 10 33 39
102 65 153 26 52 46 97 44 100 -2 4 -31 -49 -65 -118z"/>
<path d="M1469 1503 c45 -55 61 -70 61 -56 0 5 -23 31 -52 58 l-52 50 43 -52z"/>
<path d="M1466 1465 c51 -73 64 -88 64 -74 0 8 -21 37 -46 64 -43 46 -44 47
-18 10z"/>
<path d="M1373 1407 c-52 -102 -85 -228 -74 -277 11 -46 32 -90 43 -90 7 0 45
17 55 24 1 1 -9 24 -22 51 -37 71 -34 144 10 269 19 55 33 101 32 102 -1 2
-21 -34 -44 -79z"/>
<path d="M1400 1375 c-36 -122 -38 -181 -6 -250 19 -43 30 -56 42 -51 8 3 17
6 19 6 2 0 -7 24 -21 53 -34 75 -41 160 -19 230 9 30 15 63 13 73 -2 11 -14
-17 -28 -61z"/>
<path d="M1467 1415 c4 -11 21 -45 39 -76 51 -92 68 -143 60 -195 -6 -45 -5
-45 22 -42 25 3 27 6 26 53 0 54 -20 105 -57 145 -12 14 -28 36 -35 50 -19 37
-64 90 -55 65z"/>
<path d="M1431 1340 c-8 -25 -10 -64 -7 -90 8 -57 34 -138 48 -146 15 -10 4
179 -15 236 l-14 45 -12 -45z"/>
<path d="M1495 1291 c3 -18 5 -72 5 -118 0 -74 2 -84 17 -81 18 3 30 35 32 83
1 17 -13 57 -29 90 -26 51 -30 55 -25 26z"/>
<path d="M1602 1269 c25 -40 33 -65 36 -115 4 -54 7 -64 22 -64 23 0 28 28 18
92 -8 57 -60 138 -88 138 -17 0 -16 -5 12 -51z"/>
<path d="M1640 1316 c0 -3 14 -28 32 -56 27 -44 32 -62 33 -115 0 -53 3 -65
18 -69 39 -10 45 80 10 149 -25 48 -64 95 -79 95 -8 0 -14 -2 -14 -4z"/>
<path d="M1719 1281 c56 -71 73 -137 51 -195 -9 -24 -7 -26 15 -26 24 0 25 3
25 65 0 66 -8 94 -47 158 -17 27 -30 37 -49 37 l-26 0 31 -39z"/>
<path d="M1772 1313 c2 -5 16 -33 32 -63 24 -44 29 -68 30 -122 1 -74 13 -84
33 -27 19 54 15 109 -12 167 -21 46 -27 52 -55 52 -18 0 -30 -3 -28 -7z"/>
<path d="M1866 1305 c4 -8 8 -15 10 -15 2 0 4 7 4 15 0 8 -4 15 -10 15 -5 0
-7 -7 -4 -15z"/>
<path d="M1281 1063 c-1 -43 7 -57 26 -45 7 5 4 20 -8 47 l-18 40 0 -42z"/>
<path d="M1473 1065 c-35 -8 -91 -29 -125 -47 l-63 -33 -3 -55 -3 -54 53 50
c56 52 107 87 147 99 l24 7 -24 -33 c-37 -52 -39 -140 -4 -218 15 -33 34 -66
43 -73 13 -11 14 -7 7 42 -9 65 -9 115 0 228 l7 82 82 1 c56 1 73 3 56 9 -38
12 -128 10 -197 -5z"/>
<path d="M1380 941 c0 -6 9 -15 20 -21 13 -7 20 -7 20 -1 0 6 -9 15 -20 21
-13 7 -20 7 -20 1z"/>
<path d="M1354 918 c-7 -11 13 -28 34 -28 16 0 15 3 -8 22 -13 12 -22 14 -26
6z"/>
<path d="M1322 888 c8 -23 58 -41 82 -30 20 10 20 11 -5 11 -14 1 -34 8 -45
16 -24 18 -37 19 -32 3z"/>
<path d="M1290 854 c0 -30 104 -57 139 -35 19 12 -3 24 -29 16 -13 -4 -37 2
-61 14 -47 25 -49 25 -49 5z"/>
<path d="M1300 800 c-11 -7 -12 -12 -4 -20 8 -8 14 -7 23 4 14 17 1 28 -19 16z"/>
<path d="M1404 789 c-3 -6 -1 -16 4 -21 13 -13 45 8 36 23 -7 12 -31 11 -40
-2z"/>
<path d="M1346 781 c-3 -5 0 -11 8 -14 15 -6 26 1 26 15 0 11 -27 10 -34 -1z"/>
<path d="M1280 751 c0 -14 28 -21 83 -21 57 0 97 8 97 19 0 4 -24 4 -52 0 -29
-3 -57 -4 -62 -1 -16 9 -66 12 -66 3z"/>
<path d="M1440 718 c-14 -5 -55 -8 -92 -5 -52 3 -68 1 -68 -9 0 -8 18 -15 45
-20 67 -10 155 11 155 36 0 12 -8 12 -40 -2z"/>
<path d="M1455 679 c-44 -20 -110 -24 -149 -9 -20 7 -26 6 -26 -5 0 -8 15 -17
36 -21 81 -15 225 17 192 43 -9 7 -24 5 -53 -8z"/>
<path d="M1460 633 c-29 -9 -69 -13 -112 -10 -53 3 -68 1 -68 -9 0 -20 42 -27
123 -22 77 6 127 23 127 45 0 16 -12 15 -70 -4z"/>
<path d="M1485 584 c-27 -10 -67 -14 -123 -12 -45 2 -82 0 -82 -4 0 -5 42 -8
94 -8 91 0 156 13 156 31 0 5 -1 9 -2 8 -2 0 -21 -7 -43 -15z"/>
<path d="M1490 550 c-14 -4 -67 -8 -117 -9 -73 -1 -93 -4 -93 -15 0 -9 17 -16
50 -21 79 -11 200 14 200 41 0 15 -3 16 -40 4z"/>
<path d="M1503 499 c-25 -9 -31 -34 -10 -42 21 -8 39 8 35 30 -2 17 -7 19 -25
12z"/>
<path d="M1280 470 c0 -11 2 -20 5 -20 2 0 9 9 15 20 9 16 8 20 -5 20 -8 0
-15 -9 -15 -20z"/>
<path d="M1411 477 c-15 -19 9 -50 32 -41 24 9 23 54 -2 54 -10 0 -24 -6 -30
-13z"/>
<path d="M1320 467 c0 -14 19 -37 31 -37 11 0 39 30 39 41 0 5 -16 9 -35 9
-22 0 -35 -5 -35 -13z"/>
<path d="M1285 430 c-4 -6 6 -10 22 -10 22 0 25 2 13 10 -19 12 -27 12 -35 0z"/>
<path d="M1465 430 c-4 -6 9 -10 29 -10 20 0 36 3 36 8 0 11 -58 13 -65 2z"/>
</g>
</svg>
