<?xml version="1.0" standalone="no"?>
<!DOCTYPE svg PUBLIC "-//W3C//DTD SVG 20010904//EN"
 "http://www.w3.org/TR/2001/REC-SVG-20010904/DTD/svg10.dtd">
<svg version="1.0" xmlns="http://www.w3.org/2000/svg"
 width="700.000000pt" height="350.000000pt" viewBox="0 0 700.000000 350.000000"
 preserveAspectRatio="xMidYMid meet">

<g transform="translate(0.000000,350.000000) scale(0.100000,-0.100000)"
fill="#000000" stroke="none">
<path d="M0 1750 l0 -1750 3500 0 3500 0 0 1750 0 1750 -3500 0 -3500 0 0
-1750z m1059 521 c51 -36 61 -74 61 -226 l0 -140 184 185 c188 190 222 214
279 203 16 -3 43 -20 61 -37 l32 -31 25 28 c30 35 82 47 173 40 87 -7 118 -22
140 -67 14 -29 16 -80 16 -379 0 -200 4 -356 10 -371 12 -33 66 -66 105 -66
35 0 83 29 101 62 10 17 13 93 14 294 l0 272 -30 12 c-52 22 -80 64 -80 122 0
45 4 54 34 83 27 25 46 33 88 38 137 14 219 -17 236 -91 5 -20 10 -192 11
-382 l1 -345 35 -32 c24 -23 44 -33 67 -33 42 0 96 33 108 66 13 33 13 564 1
564 -5 0 -26 10 -45 23 -45 28 -63 78 -50 139 16 74 93 107 220 93 53 -5 69
-12 96 -38 l33 -32 31 33 32 32 103 0 c90 0 107 -3 135 -22 18 -13 38 -33 43
-46 7 -15 11 -165 11 -427 0 -364 2 -405 16 -405 44 0 104 -70 104 -122 0 -42
-32 -90 -73 -108 -64 -29 -193 -28 -238 3 -59 40 -59 35 -59 472 l0 401 -36
13 c-19 7 -38 19 -41 27 -17 45 -22 -19 -23 -310 0 -178 -4 -337 -9 -353 -29
-99 -107 -188 -209 -236 -59 -28 -77 -32 -152 -31 -76 0 -92 4 -150 33 -36 19
-67 37 -70 42 -3 4 -43 -11 -89 -34 -80 -40 -89 -42 -170 -41 -73 0 -95 4
-142 28 -63 30 -130 92 -164 151 -48 81 -55 138 -55 435 l0 276 -37 18 c-21
10 -43 26 -50 36 -12 18 -29 3 -209 -176 l-196 -195 189 -190 c103 -104 194
-202 201 -219 17 -43 -1 -111 -38 -138 -41 -30 -91 -37 -131 -17 -19 9 -114
98 -211 198 l-178 181 -1 -49 c-1 -28 -1 -91 1 -141 3 -116 -14 -158 -76 -185
-69 -31 -138 -8 -168 56 -14 29 -16 95 -16 508 l0 474 23 34 c43 65 117 82
176 40z m2614 7 c10 -5 27 -24 37 -41 17 -28 20 -51 20 -181 l0 -149 193 190
c197 195 220 210 278 196 42 -11 76 -41 93 -84 14 -35 15 -48 5 -73 -7 -17
-98 -118 -203 -223 l-191 -193 187 -187 c108 -108 193 -202 201 -222 36 -87
-45 -184 -140 -166 -32 6 -67 36 -230 197 l-192 191 -3 -161 c-3 -154 -4 -161
-27 -186 -32 -34 -85 -48 -131 -36 -53 14 -80 48 -88 111 -4 30 -5 257 -2 506
5 439 6 452 26 480 35 48 109 61 167 31z m1402 2 c11 -4 29 -17 39 -29 l19
-21 26 24 c37 36 66 43 161 42 65 -1 93 -5 114 -19 53 -35 56 -56 56 -425 0
-336 0 -339 23 -373 61 -91 167 -106 245 -35 50 44 52 64 52 425 0 360 1 366
52 404 38 28 186 37 240 14 67 -28 97 -111 64 -176 -17 -32 -63 -65 -88 -64
-17 2 -18 -17 -18 -257 0 -143 -5 -283 -11 -312 -31 -156 -153 -284 -310 -324
-117 -30 -238 0 -346 86 -52 42 -69 64 -105 136 l-43 87 -3 294 c-3 281 -4
293 -23 293 -10 0 -33 12 -50 28 l-31 28 -186 -188 c-103 -103 -187 -191 -187
-196 0 -5 84 -96 187 -202 201 -207 212 -223 188 -294 -12 -38 -49 -70 -93
-81 -59 -15 -94 10 -284 204 l-183 186 0 -145 c0 -159 -12 -203 -60 -227 -40
-20 -113 -16 -144 8 -56 44 -55 38 -55 538 0 265 5 475 10 496 28 100 179 116
233 25 13 -23 16 -57 16 -176 l0 -148 193 191 c120 120 201 193 217 195 25 5
48 2 85 -12z"/>
</g>
</svg>
