<?xml version="1.0" standalone="no"?>
<!DOCTYPE svg PUBLIC "-//W3C//DTD SVG 20010904//EN"
 "http://www.w3.org/TR/2001/REC-SVG-20010904/DTD/svg10.dtd">
<svg version="1.0" xmlns="http://www.w3.org/2000/svg"
 width="184.000000pt" height="55.000000pt" viewBox="0 0 184.000000 55.000000"
 preserveAspectRatio="xMidYMid meet">

<g transform="translate(0.000000,55.000000) scale(0.100000,-0.100000)"
fill="#000000" stroke="none">
<path d="M194 541 c3 -4 -6 -13 -19 -19 -26 -12 -54 -58 -65 -109 l-8 -32 40
25 c22 14 49 29 61 34 12 5 16 9 10 9 -7 1 -13 6 -13 12 0 5 5 7 11 3 6 -3 15
0 21 7 7 12 8 11 6 -1 -2 -8 -1 -17 2 -19 8 -7 50 23 50 35 0 7 14 17 30 23
17 5 30 13 30 17 0 3 -7 4 -14 1 -10 -4 -13 -1 -9 9 4 11 -8 14 -67 14 -39 0
-69 -4 -66 -9z"/>
<path d="M912 412 c-26 -24 -30 -33 -30 -85 0 -38 4 -57 12 -54 6 2 11 25 11
50 0 56 20 80 69 82 19 0 33 -2 30 -6 -2 -4 2 -12 10 -18 9 -8 12 -24 9 -49
-4 -29 0 -41 15 -55 20 -19 21 -18 18 35 -4 70 -11 90 -37 106 -39 24 -75 22
-107 -6z"/>
<path d="M1142 429 c-23 -7 -38 -20 -49 -45 -16 -33 -16 -37 1 -69 12 -22 30
-38 50 -44 37 -10 76 -10 76 1 0 7 -4 9 -36 12 -6 1 -22 9 -37 19 -28 18 -38
69 -17 82 6 4 7 11 4 17 -4 6 1 8 15 3 13 -4 21 -2 21 6 0 8 4 9 13 0 13 -10
37 2 37 19 0 9 -42 9 -78 -1z"/>
<path d="M1240 432 c0 -12 32 -32 47 -30 15 2 18 -5 21 -42 4 -67 11 -90 28
-90 13 0 15 12 13 68 -2 58 0 67 15 64 9 -2 26 4 38 13 l23 15 -25 0 c-14 -1
-55 0 -92 2 -38 2 -68 2 -68 0z"/>
<path d="M1440 362 c0 -58 4 -83 15 -92 13 -11 15 -2 15 68 0 58 -4 83 -15 92
-13 11 -15 2 -15 -68z"/>
<path d="M1575 430 c3 -5 0 -7 -9 -4 -26 10 -66 -36 -66 -76 0 -51 36 -84 96
-86 34 -1 43 1 35 9 -7 7 -17 12 -24 13 -25 2 -57 17 -57 26 0 5 -4 7 -8 4 -5
-3 -9 13 -9 35 0 34 3 40 26 46 28 6 43 22 35 35 -3 4 -10 8 -15 8 -6 0 -7 -4
-4 -10z"/>
<path d="M1603 425 c0 -10 6 -14 14 -10 8 3 17 5 19 5 2 0 4 5 4 10 0 6 -8 10
-18 10 -10 0 -19 -7 -19 -15z"/>
<path d="M1710 427 c-14 -8 -24 -19 -22 -26 1 -7 -2 -10 -8 -6 -5 3 -15 -5
-21 -18 -15 -34 13 -92 49 -105 67 -22 163 -8 121 19 -9 6 -10 9 -2 9 7 0 12
16 11 40 0 22 -4 38 -8 35 -4 -2 -12 7 -18 21 -7 13 -23 29 -38 34 -32 13 -34
12 -64 -3z m77 -55 c12 -15 19 -29 15 -32 -4 -3 -7 -14 -7 -25 0 -17 -6 -20
-39 -17 -22 1 -45 7 -53 13 -16 14 -17 53 -1 79 16 25 55 17 85 -18z"/>
<path d="M205 420 c-3 -5 -1 -10 4 -10 6 0 11 5 11 10 0 6 -2 10 -4 10 -3 0
-8 -4 -11 -10z"/>
<path d="M622 348 c2 -57 7 -83 17 -86 10 -3 12 5 9 36 l-5 40 41 -5 c41 -5
76 -32 76 -59 0 -8 7 -14 15 -14 20 0 19 39 -2 62 -15 17 -15 21 0 54 21 43
21 54 2 54 -8 0 -15 -9 -15 -19 0 -31 -28 -51 -71 -51 -32 0 -39 4 -39 19 0
27 -10 51 -22 51 -5 0 -8 -35 -6 -82z"/>
<path d="M822 354 c2 -52 7 -79 16 -82 10 -3 12 14 10 74 -2 51 -8 79 -16 82
-10 3 -12 -14 -10 -74z"/>
<path d="M220 375 c13 -14 25 -25 27 -25 2 0 -4 11 -13 25 -9 14 -21 25 -27
25 -6 0 0 -11 13 -25z"/>
<path d="M435 370 c5 -8 10 -19 11 -25 0 -5 2 -16 2 -24 2 -11 5 -11 17 -1 13
11 14 10 9 -6 -6 -15 -4 -17 6 -7 16 14 3 36 -17 29 -10 -4 -13 -2 -10 8 3 8
-2 20 -11 28 -13 11 -14 11 -7 -2z"/>
<path d="M1153 363 c-17 -6 -16 -20 2 -27 18 -7 71 12 61 21 -9 9 -48 13 -63
6z"/>
<path d="M991 154 c0 -11 3 -14 6 -6 3 7 2 16 -1 19 -3 4 -6 -2 -5 -13z"/>
</g>
</svg>
