<?xml version="1.0" encoding="UTF-8"?>
<svg version="1.1" viewBox="0 0 1600 880" width="1280" height="1280" xmlns="http://www.w3.org/2000/svg">
<path transform="translate(0)" d="m0 0h1600v880h-1600v-880z" fill="#FBFDFD"/>
<path transform="translate(285,370)" d="m0 0v2c0.587 0.273 1.17 0.547 1.78 0.828 15.4 8.09 25.7 27.5 31.1 43.2 0.383 1.31 0.76 2.62 1.12 3.94 0.557 1.61 0.557 1.61 1.12 3.25 1.06 4.55 1.36 8.99 1.65 13.6 0.177 2.47 0.443 4.85 0.848 7.29 0.375 2.81 0.375 2.81-0.625 4.81-0.0201 1.54 0.00764 3.08 0.0625 4.62 0.0338 4.73-0.654 8.87-2.06 13.4-0.233 0.847-0.467 1.69-0.707 2.57-7.46 25.1-23.9 43.8-46.6 56.3-22.1 11.5-44.7 13.5-68.5 6.06-6.84-2.29-13.2-4.83-19.2-8.91-1.61-1.05-1.61-1.05-3.25-2.13-21.2-14.1-34.9-33.3-40.3-58.4-4.6-26.1 0.91-50.8 15.7-72.7 2.2-3.01 4.47-5.93 6.84-8.81 0.59-0.718 1.18-1.44 1.79-2.18 9.66-10.6 24.7-18.4 38.3-22.5 0.677-0.212 1.35-0.424 2.05-0.643 26.2-8.04 56.9-2.05 78.8 14.3z" fill="#07A30B"/>
<path transform="translate(630 364)" d="m0 0c1.44 0.799 2.9 1.54 4.38 2.26 19.6 10.2 32.4 31.5 39.3 51.7 0.349 1.01 0.699 2.01 1.06 3.05 2.15 7.62 2.39 15.4 2.75 23.3 0.0533 1.12 0.107 2.24 0.162 3.4 0.205 6.23-0.125 11.3-1.97 17.3-0.499 1.88-0.499 1.88-1.01 3.79-3.86 13.2-9.77 24.8-19 35.2-0.423 0.483-0.846 0.966-1.28 1.46-14.5 16.2-34.8 28.1-56.7 30.5-29.1 1.67-52.2-6.98-74.5-25.7-16.7-15-26.5-37.3-27.7-59.6-0.72-21.7 3.73-41.5 16.1-59.7 0.447-0.669 0.895-1.34 1.36-2.03 13.3-18.9 34.1-30.5 56.3-35.6 21.7-2.55 41.6-0.0606 60.6 10.7z" fill="#00A50E"/>
<path transform="translate(1049 379)" d="m0 0c14.6 15.4 25.8 38 25.7 59.5-0.0477 0.937-0.0954 1.87-0.145 2.84-0.216 2.26-0.216 2.26 0.957 4.22 0.137 3.33 0.0428 6.66 0 10-8.54 0.854-17 1.14-25.6 1.11-1.95 2.19e-4 -1.95 2.19e-4 -3.94 4.43e-4 -3.52 2.84e-4 -7.04-0.00555-10.6-0.0126-3.7-0.0063-7.39-0.00684-11.1-0.00803-6.98-0.00309-14-0.0113-20.9-0.0213-7.95-0.0112-15.9-0.0167-23.9-0.0217-16.3-0.0104-32.7-0.028-49-0.0503 0.13 1.43 0.268 2.85 0.409 4.28 0.076 0.795 0.152 1.59 0.23 2.41 1.16 7.46 6.93 16.2 12.4 21.3 15.9 10.9 30.5 17.1 50 15 9.95-2.43 18.9-8.6 25.9-16 0.479-0.503 0.959-1.01 1.45-1.52 1.34-1.44 2.65-2.91 3.96-4.39 2.7-2.12 2.7-2.12 6.09-2.73 4.55 0.763 7.04 2.49 10.6 5.29 0.577 0.435 1.15 0.87 1.75 1.32 1.17 0.878 2.33 1.76 3.48 2.66 1.83 1.38 3.7 2.68 5.58 3.98 3.32 2.45 4.88 3.92 5.75 7.98-0.878 5.27-4.14 8.41-7.56 12.4-0.54 0.684-1.08 1.37-1.64 2.07-11.3 13.9-29.9 22.9-47.4 25.9-3.89 0.217-7.79 0.185-11.7 0.188-1.04 0.0122-2.08 0.0245-3.15 0.0371-22.6 0.0425-45.2-9.46-62.2-24.2-0.911-0.78-1.82-1.56-2.76-2.36-5.2-4.55-5.2-4.55-7.24-6.64v-2h-2c-14.1-16.8-22.4-40.4-20.8-62.3 2.08-20.7 10.3-40.8 23.8-56.7 0.445-0.588 0.889-1.18 1.35-1.78 11.7-15 34-25.8 52.7-28.2 29.7-2.93 57.7 5.63 79.5 26.4z" fill="#00A50E"/>
<path transform="translate(1267,277)" d="m0 0c2.17 2.17 1.43 7.09 1.55 10.1 0.0421 0.975 0.0842 1.95 0.128 2.95 0.506 13.1 0.465 26.1 0.453 39.2-0.00258 3.69-1.73e-4 7.38 0.00139 11.1 0.0018 6.17-5.37e-4 12.3-0.00534 18.5-0.00549 7.13-0.00364 14.3 0.00183 21.4 0.00453 6.16 0.00518 12.3 0.00256 18.5-0.00156 3.66-0.00177 7.33 0.00154 11 0.00341 4.06-0.00131 8.12-0.0069 12.2 0.00202 1.21 0.00405 2.42 0.00613 3.67-0.00282 1.1-0.00564 2.2-0.00854 3.33-5.66e-4 1.44-5.66e-4 1.44-0.00114 2.9-0.126 2.28-0.126 2.28-1.13 4.28-0.059 3.36-0.021 6.7 0.0391 10.1 0.039 3.53-0.179 6.55-1.04 9.94-0.146 1.55-0.269 3.09-0.375 4.64-0.508 5.33-1.83 10.1-3.62 15.1-0.307 0.865-0.614 1.73-0.93 2.62-2.98 8.02-7 14.8-12.1 21.6-0.66 0.911-1.32 1.82-2 2.76-13.4 17.7-34 29.8-56 33.2-3.69 0.31-7.36 0.381-11.1 0.375-1.01-0.00161-2.01-0.00322-3.05-0.00488-8.84-0.144-16.5-1.61-24.9-4.37-1.48-0.451-1.48-0.451-3-0.91-7.24-2.38-13.6-6.02-20-10.1-0.868-0.547-1.74-1.09-2.63-1.66-22.3-14.8-31.9-36.8-37.4-62.2-4.86-24.2 0.804-47.8 14.4-68.3 1.47-2.03 3.01-3.97 4.61-5.9 0.634-0.791 1.27-1.58 1.92-2.4 12.3-14.6 29.7-23.2 48.1-27.6 0.752-0.191 1.5-0.382 2.28-0.578 18.6-2.89 38.5 0.296 55.2 8.76 4.04 2.98 7.87 6.01 8.96 11.1 0.134 2.51 0.0838 4.94-0.054 7.45-0.0187 0.849-0.0374 1.7-0.0566 2.57-0.103 3.51-0.263 6.32-1.38 9.68-0.068 1.73-0.085 3.46-0.0625 5.19 0.00902 0.901 0.018 1.8 0.0273 2.73 0.0116 0.687 0.0232 1.37 0.0352 2.08-3.76-0.56-6.18-1.57-9.31-3.69-4.46-2.78-8.97-4.78-13.9-6.62-0.665-0.254-1.33-0.508-2.01-0.77-12.5-4.56-30.1-4.73-42.5 0.145-14.4 7.29-22.8 16.8-28.2 31.9-0.514 2.73-0.799 5.3-0.895 8.07-0.105 1.93-0.105 1.93-1.11 3.93-1.26 17.7 1.93 33.8 12.7 48.3 7.89 8.82 21.6 14.9 33.3 15.8 9.32 0.488 18.1 0.266 27-3.16 0.69-0.255 1.38-0.51 2.09-0.773 12.8-5.51 20.2-17.1 25.8-29.2 2.79-7.95 3.44-16 3.69-24.4 0.0375-1.08 0.075-2.16 0.114-3.27 0.376-11.8 0.441-23.6 0.474-35.3 0.012-3.96 0.0313-7.92 0.0531-11.9 0.061-11.2 0.116-22.5 0.149-33.7 0.0184-6.25 0.0474-12.5 0.088-18.8 0.0209-3.29 0.0348-6.57 0.0388-9.86 0.00492-3.65 0.0281-7.3 0.0553-10.9-0.00451-1.6-0.00451-1.6-0.00911-3.23 0.122-11 2.56-19.7 10.4-27.7 6.72-5.7 16-10.7 25-10z" fill="#00A50E"/>
<path transform="translate(842,371)" d="m0 0c16.9 13.8 28.3 35.5 32.5 56.7 0.299 1.44 0.63 2.88 1 4.31 1.49 5.83 1.65 11.1 1.28 17.1-0.0512 0.914-0.102 1.83-0.155 2.77-0.747 11.5-2.62 22.6-7.66 33.1-0.63 1.32-0.63 1.32-1.27 2.67-10.8 21.1-29.6 37.5-51.9 45.2-24 7.5-49 2.73-71-8.45-2.83-2.39-2.83-2.39-3.52-5.97 9.44e-4 -1.42 0.0345-2.84 0.0952-4.25 0.00849-0.749 0.017-1.5 0.0257-2.27 0.0335-2.39 0.109-4.77 0.185-7.15 0.0301-1.62 0.0575-3.24 0.082-4.86 0.0661-3.96 0.17-7.93 0.293-11.9 4.02-1.14 5.97-0.937 9.66 0.984 0.87 0.44 1.74 0.88 2.64 1.33 1.37 0.709 1.37 0.709 2.77 1.43 16.4 8.06 31.7 10.8 49.5 5.19 13.7-5.24 22.5-13.2 28.8-26.6 3.47-7.95 4.05-15.5 4-24.1-0.00846-1.6-0.00846-1.6-0.0171-3.23-0.193-12.5-2.43-22.4-9.3-33.1-0.491-0.793-0.982-1.59-1.49-2.4-6.77-9.83-18.2-15.5-29.5-18.6-4-0.539-7.91-0.621-11.9-0.562-1.05 0.00951-2.11 0.019-3.19 0.0288-7.87 0.211-14.1 1.44-20.9 5.53-0.886 0.458-1.77 0.915-2.68 1.39-11.9 6.45-18.2 17.3-22.4 29.9-1.55 5.89-2.34 11.7-2.93 17.7-0.33 0.66-0.66 1.32-1 2-0.0917 1.95-0.118 3.9-0.114 5.85 7.05e-5 1.25 1.41e-4 2.49 2.14e-4 3.77 0.00513 1.39 0.0104 2.77 0.0157 4.16 0.00192 1.46 0.00338 2.91 0.00443 4.37 0.00317 3.14 0.00944 6.28 0.0181 9.41 0.0135 4.96 0.0194 9.91 0.0241 14.9 0.0111 10.5 0.0306 21 0.051 31.6 0.022 11.4 0.0426 22.7 0.0534 34.1 0.00499 4.93 0.0149 9.86 0.0284 14.8 0.00744 3.06 0.0108 6.13 0.013 9.19 0.00188 1.42 0.00549 2.85 0.0109 4.27 0.00718 1.94 0.00767 3.88 0.00778 5.82 0.00222 1.09 0.00444 2.17 0.00673 3.29-0.12 2.55-0.12 2.55-1.12 4.55-0.23 2.37-0.411 4.75-0.562 7.12-0.0838 1.28-0.168 2.56-0.254 3.88-0.0909 1.48-0.0909 1.48-0.184 2.99-10.1-0.387-19-5.3-26.3-12.1-13.3-14.7-8.85-40-8.86-58.4-0.0024-1.97-0.00481-3.95-0.00746-5.92-0.00808-6.19-0.0106-12.4-0.00987-18.6 6.01e-4 -6.33-0.00996-12.7-0.0257-19-0.0132-5.49-0.0184-11-0.0178-16.5 2.52e-4 -3.25-0.00338-6.51-0.0132-9.76-0.082-30 2.44-57.6 20.2-82.8 0.496-0.754 0.993-1.51 1.5-2.29 11.7-16.7 33.2-26.8 52.8-30.3 25-2.83 50.3 2.48 70.7 17.6z" fill="#07A20A"/>
<path transform="translate(1538 372)" d="m0 0c12.3 11.8 21.4 27.1 24.6 43.8 0.168 0.649 0.337 1.3 0.51 1.97 1.53 6.07 1.7 11.7 1.55 18-0.0343 1.86-0.0645 3.73-0.0898 5.59-0.018 0.812-0.0359 1.62-0.0544 2.46-0.0532 2.08-0.0532 2.08 1.08 4.01 0.0993 3.04 0.14 6.05 0.133 9.09 9.57e-4 0.902 0.00191 1.8 0.0029 2.73 6.81e-4 1.91-0.00117 3.82-0.00534 5.73-0.00535 2.93-5.27e-5 5.86 0.00635 8.79-6.61e-4 1.85-0.00194 3.71-0.00391 5.56 0.00202 0.88 0.00405 1.76 0.00613 2.67-0.024 6.2-0.024 6.2-1.14 8.43-0.0748 2.81-0.0912 5.59-0.0625 8.4 0.00379 0.834 0.00757 1.67 0.0115 2.53 0.0164 3.57 0.0445 7.15 0.0715 10.7 0.0181 2.61 0.0302 5.21 0.042 7.82 0.0124 1.21 0.0124 1.21 0.0251 2.45 0.0144 3.29-0.0385 5.93-1.09 9.08-5.58 0.378-9.36-0.694-14.2-3.31-0.603-0.309-1.21-0.617-1.83-0.936-3.2-1.67-6.28-3.35-8.99-5.75v-2c-0.577-0.227-1.15-0.454-1.75-0.688-3.32-1.93-5.7-4.52-6.84-8.23-0.701-3.59-0.782-7.24-0.945-10.9-0.0419-0.91-0.0839-1.82-0.127-2.76-0.342-8.15-0.459-16.3-0.545-24.4-0.0144-1.31-0.0287-2.62-0.0435-3.97-0.0579-5.43-0.114-10.9-0.147-16.3-0.017-2.72-0.0418-5.44-0.0749-8.15-0.0305-2.53-0.0503-5.05-0.0571-7.58-0.193-13.4-3.53-24.8-12.5-35-14.5-11.9-29-14.5-47.3-13.3-6.09 0.635-11.3 2.47-16.7 5.29-0.98 0.508-1.96 1.02-2.97 1.54-13 7.55-21 19.2-24.9 33.6-3.53 17.7-1.04 34.6 8.88 49.9 7.75 11 19.1 17.4 32.1 20.3 12.8 2.11 26 0.0294 36.9-7.31 3.53-2.92 6.83-6.07 10.1-9.26 2.23-2.12 4.38-3.99 6.88-5.74 1.68 3.65 2.23 6.44 2.16 10.4-0.0164 1.52-0.0164 1.52-0.0332 3.07-0.0213 1.05-0.0425 2.09-0.0645 3.17-0.0343 2.09-0.0645 4.17-0.0898 6.26-0.018 0.921-0.0359 1.84-0.0544 2.79-0.0732 2.29-0.0732 2.29 1.08 4.26 0.259 4.58 0.076 7.9-2 12-8.56 8.04-20.8 12.8-32 16-0.6 0.172-1.2 0.344-1.82 0.521-10.9 2.39-24.9 1.55-35.2-2.52-1.75-0.621-1.75-0.621-3.53-1.25-24.1-8.83-40.9-24.3-52.2-47.2-9.7-21.4-12.3-44.8-6.31-67.6 0.267-1.01 0.534-2.02 0.809-3.07 6.6-22 21.3-39.8 41.4-51 32.8-17 78.1-14.2 107 9.3z" fill="#07A20B"/>
<path transform="translate(381,277)" d="m0 0c0.144 4.93 0.287 9.85 0.427 14.8 0.0479 1.67 0.0964 3.34 0.146 5.01 0.071 2.42 0.14 4.84 0.208 7.26 0.0222 0.782 0.0445 1.56 0.0674 2.37 0.139 5.21 0.173 10.4 0.0713 15.6-0.0497 2.03-0.0497 2.03 1.08 3.94 0.0981 2.68 0.139 5.32 0.125 8 0.0058 1.11 0.0058 1.11 0.0117 2.23-0.0101 5.51-0.0101 5.51-1.14 7.77-0.0922 2.34-0.117 4.68-0.114 7.02-1.46e-4 0.722-2.92e-4 1.44-4.43e-4 2.19 6.98e-4 2.39 0.00848 4.78 0.0163 7.17 0.00186 1.66 0.00329 3.31 0.00429 4.97 0.00382 4.36 0.0136 8.73 0.0247 13.1 0.0102 4.45 0.0148 8.9 0.0198 13.4 0.0107 8.74 0.0278 17.5 0.0488 26.2 2.56 0.0152 5.12 0.0264 7.69 0.0352 0.721 0.00471 1.44 0.00943 2.19 0.0143 8.59 0.0221 14.7-0.524 21-6.65 7.93-9.15 13.7-20 19.6-30.5 3.25-5.75 6.57-11.4 10-17.1 0.405-0.665 0.811-1.33 1.23-2.02 1.88-3.01 3.21-4.8 6.21-6.8 2.65-0.208 5.19-0.304 7.84-0.301 0.766-0.00429 1.53-0.00857 2.32-0.013 1.62-0.00574 3.23-0.00625 4.85-0.00191 2.48 0.00316 4.95-0.0203 7.43-0.0457 1.57-0.00227 3.14-0.00298 4.71-0.00195 0.741-0.00921 1.48-0.0184 2.24-0.0279 5.15 0.0464 5.15 0.0464 7.59 1.91 0.333 0.488 0.666 0.975 1.01 1.48-0.378 0.646-0.755 1.29-1.14 1.96-2.79 4.78-5.58 9.57-8.35 14.4-2.82 4.9-5.66 9.79-8.51 14.7-0.503 0.864-1.01 1.73-1.52 2.62-6.59 11.3-13.3 22-21.7 32.1-1.95 2.09-1.95 2.09-1.75 4.31 0.69 0.34 1.38 0.681 2.09 1.03 12.4 6.41 22 14.9 26.7 28.5 0.19 0.685 0.38 1.37 0.575 2.08 0.449 1.61 0.929 3.21 1.44 4.8 2.26 7.37 2.66 14.2 2.6 21.8 7.48e-4 1.83 7.48e-4 1.83 0.00151 3.7-0.00233 2.56-0.012 5.12-0.0286 7.67-0.0238 3.93-0.0205 7.85-0.0139 11.8-0.00557 2.49-0.0127 4.98-0.0215 7.48 9.11e-4 1.17 0.00182 2.35 0.00276 3.56-0.00953 1.09-0.0191 2.17-0.0289 3.29-0.00461 0.955-0.00921 1.91-0.014 2.89-0.261 2.41-0.261 2.41-2.26 5.41-7.81 1.14-15-2.34-21.2-6.81-7.81-6.32-12.8-13.4-14.2-23.6-0.272-3.71-0.461-7.41-0.604-11.1-0.526-16.3-0.526-16.3-7.94-30.5-5.22-3.36-9.77-3.47-15.8-3.51-0.924-0.018-1.85-0.0359-2.8-0.0544-2.93-0.0539-5.87-0.0879-8.8-0.121-2-0.0332-3.99-0.0677-5.99-0.104-4.88-0.0848-9.76-0.152-14.6-0.209-0.935 2.8-1.12 4.45-1.1 7.35 0.0033 0.874 0.00661 1.75 0.01 2.65 0.0083 0.941 0.0166 1.88 0.0251 2.85 0.00379 0.968 0.00757 1.94 0.0115 2.93 0.0122 3.09 0.0309 6.19 0.051 9.28 0.0265 4.07 0.0465 8.15 0.0625 12.2 0.0083 0.943 0.0166 1.89 0.0251 2.86 0.00495 1.31 0.00495 1.31 0.01 2.64 0.00524 0.768 0.0105 1.54 0.0159 2.33-0.114 1.89-0.114 1.89-1.11 3.89-0.0723 1.52-0.0838 3.05-0.0625 4.58 0.0116 1.37 0.0116 1.37 0.0234 2.77 0.0258 1.92 0.0519 3.84 0.0781 5.76 0.04 4.76-0.034 9.21-1.04 13.9-12-0.786-20-5.72-28.3-14.1-8.35-10-7.12-23.5-7.08-35.9-0.00407-1.9-0.00942-3.79-0.0159-5.69-0.0136-5.12-0.00841-10.2 0.00114-15.4 0.00763-5.37 5.42e-4 -10.7-0.00416-16.1-0.00545-9.02 0.00171-18 0.016-27.1 0.0163-10.4 0.011-20.8-0.00548-31.2-0.0136-8.96-0.0155-17.9-0.00768-26.9 0.00466-5.34 0.00534-10.7-0.00461-16-0.0087-5.02-0.0026-10 0.0147-15.1 0.00395-1.84 0.00286-3.67-0.00379-5.51-0.0716-21.8-0.0716-21.8 6.27-30.9 0.472-0.699 0.944-1.4 1.43-2.12 3.58-4.24 7.82-6.77 12.8-9.2 1.02-0.509 2.04-1.02 3.1-1.54 4.19-1.87 7.27-2.31 11.8-2.27z" fill="#00A50E"/>
<path transform="translate(1569,871)" d="m0 0c-0.66 0.33-1.32 0.66-2 1 0.186 0.763 0.371 1.53 0.562 2.31 0.438 2.69 0.438 2.69-0.562 5.69h-1554v-7h6v-2c47.2-0.0361 94.5-0.072 142-0.108 0.925-6.99e-4 1.85-0.0014 2.8-0.00212 99-0.0748 198-0.148 297-0.219 2.2-0.00156 4.4-0.00313 6.6-0.00469 46.2-0.0328 92.3-0.0654 138-0.0978 23.2-0.0163 46.4-0.0326 69.6-0.0489 3.5-0.00246 7-0.00493 10.5-0.00739 53.9-0.0379 108-0.0767 162-0.118 1.16-8.87e-4 2.32-0.00177 3.51-0.00269 18.7-0.0143 37.4-0.0287 56.1-0.0431 53.8-0.0414 108-0.0824 161-0.12 1.66-0.00115 1.66-0.00115 3.35-0.00233 24.3-0.0169 48.5-0.0335 72.8-0.0498 9.77-0.00658 19.5-0.0132 29.3-0.0198 1.07-7.25e-4 2.14-0.00145 3.24-0.0022 34.5-0.0234 68.9-0.05 103-0.0783 34.7-0.0284 69.4-0.0538 104-0.0748 4.79-0.0029 9.58-0.00583 14.4-0.00878 1.41-8.67e-4 1.41-8.67e-4 2.85-0.00175 14.9-0.00926 29.8-0.0219 44.7-0.036 14.6-0.0137 29.3-0.0239 43.9-0.0302 8.59-0.00383 17.2-0.0104 25.8-0.0211 5.7-0.00678 11.4-0.00996 17.1-0.0101 3.24-2.05e-4 6.47-0.00256 9.71-0.00822 3.47-0.00583 6.94-0.00557 10.4-0.00369 1.01-0.00317 2.01-0.00634 3.05-0.0096 1.38 0.00265 1.38 0.00265 2.79 0.00535 0.791-5.76e-4 1.58-0.00115 2.4-0.00175 2.51 0.135 4.84 0.578 7.29 1.12z" fill="#FCFDFF"/>
<path transform="translate(68,312)" d="m0 0c0.202 4.17 0.384 8.33 0.562 12.5 0.0841 1.73 0.0841 1.73 0.17 3.5 0.376 9.08-0.0244 18-0.732 27 0.732 0.00809 1.46 0.0162 2.22 0.0245 6.9 0.0779 13.8 0.165 20.7 0.263 3.55 0.05 7.1 0.0963 10.6 0.134 4.08 0.0439 8.16 0.104 12.2 0.164 1.28 0.0116 2.55 0.0231 3.86 0.035 1.77 0.0298 1.77 0.0298 3.58 0.0602 1.56 0.02 1.56 0.02 3.16 0.0404 2.6 0.278 2.6 0.278 5.6 2.28 0.267 2.55 0.348 4.86 0.293 7.41-0.00424 0.73-0.00849 1.46-0.0129 2.21-0.0168 2.33-0.0545 4.67-0.0926 7-0.015 1.58-0.0287 3.16-0.041 4.74-0.0331 3.88-0.0849 7.76-0.146 11.6-3.57 0.821-6.83 1.11-10.5 1.07-1.07-0.00976-2.15-0.0195-3.26-0.0296-1.15-0.0146-2.3-0.0291-3.48-0.0442-2.44-0.0175-4.87-0.0344-7.31-0.0508-3.84-0.0311-7.68-0.0667-11.5-0.113-3.71-0.0421-7.41-0.0657-11.1-0.0864-1.16-0.0186-2.31-0.0372-3.5-0.0564-1.06-0.00345-2.13-0.00691-3.23-0.0105-0.94-0.00968-1.88-0.0194-2.85-0.0293-1.12 0.175-1.12 0.175-2.26 0.354-2.38 3.57-2.24 5.07-2.21 9.3 0.00338 1.3 0.00676 2.6 0.0102 3.94 0.0135 1.42 0.0271 2.85 0.0408 4.27 0.00627 1.46 0.0115 2.92 0.0158 4.38 0.0133 3.85 0.0377 7.7 0.0654 11.5 0.0431 6.15 0.0729 12.3 0.096 18.5 0.0102 2.14 0.0272 4.29 0.045 6.43 0.00653 1.31 0.0131 2.62 0.0198 3.97 0.00825 1.15 0.0165 2.3 0.025 3.49-0.107 3.21-0.107 3.21-0.674 6.5-0.695 2.67-0.695 2.67 0.568 4.71 0.0458 1.35 0.0382 2.71 0 4.06-0.0642 6.66 0.037 13.9 3 19.9 4.46 2.53 9.62 3.11 14.7 3.21 0.901 0.0199 1.8 0.0399 2.73 0.0604 0.959 0.0167 1.92 0.0334 2.9 0.0506 0.992 0.0208 1.98 0.0416 3.01 0.063 3.16 0.0652 6.32 0.124 9.48 0.183 2.15 0.0432 4.29 0.0868 6.44 0.131 5.25 0.107 10.5 0.209 15.8 0.307 2.08 3.8 2.25 6.55 2.23 10.9-4.58e-4 0.658-9.16e-4 1.32-0.00139 1.99-0.00301 1.38-0.0109 2.77-0.0233 4.15-0.0183 2.13-0.0205 4.25-0.0203 6.38-0.038 10.4-0.038 10.4-1.19 11.6-1.53 0.109-3.07 0.149-4.6 0.161-0.982 0.00961-1.96 0.0192-2.98 0.0291-1.07 0.00425-2.15 0.0085-3.25 0.0129-1.65 0.00855-1.65 0.00855-3.34 0.0173-2.34 0.00947-4.69 0.016-7.03 0.0198-3.55 0.00962-7.11 0.0406-10.7 0.0723-2.28 0.00654-4.56 0.0118-6.84 0.0156-1.05 0.0123-2.1 0.0247-3.18 0.0374-10.8-0.0318-20.4-2.08-29.4-8.12-0.684-0.447-1.37-0.894-2.07-1.35-11.3-7.52-17.3-16.2-20.4-29.6-3.01-16.9-2.34-34.3-2.32-51.4-2.24e-4 -2.71-0.00165-5.43-0.0029-8.14-0.00181-5.66 5.48e-4 -11.3 0.00534-17 0.00546-6.52 0.00366-13-0.00183-19.6-0.00455-5.63-0.00517-11.3-0.00256-16.9 0.00155-3.35 0.00139-6.7-0.00154-10-0.00255-3.73 0.00134-7.46 0.0069-11.2-0.00202-1.09-0.00405-2.19-0.00613-3.31 0.0329-11.9 0.927-22.3 8.89-31.9 5.22-4.93 19.9-15.6 27.2-11.9z" fill="#03A910"/>
<path transform="translate(241,388)" d="m0 0c0.928 0.103 1.86 0.206 2.81 0.312 13.6 2.93 24.7 11.1 32.2 22.7 8.97 15.7 11.3 32.9 6.77 50.2-3.84 13.6-11.9 25.9-24.2 33.3-9.01 4.73-17 5.86-27.1 5.78-1.49 0.0116-1.49 0.0116-3.01 0.0234-14.2-0.0376-26-5.01-36.3-14.9-11.1-11.9-15.8-28.8-15.4-44.9 0.334-4.25 1.16-8.3 2.19-12.4 0.195-0.813 0.389-1.63 0.59-2.46 3.86-14.5 11.3-24.2 24-31.7 6.55-3.48 12.8-6.38 20.4-5.8 4.88-2.44 11.8-0.863 17 0z" fill="#FBFDFD"/>
<path transform="translate(620 398)" d="m0 0c11.1 9.05 18.5 22.1 20.5 36.2 1.54 18.7-1.49 35.8-13.6 50.7-10.8 11.5-24.2 15.8-39.5 16.3-14.8 0.0146-27.8-5.27-39-15-6.78-7.01-10.8-16.6-13-26-0.184-0.688-0.369-1.38-0.559-2.09-3.96-16.4-1.14-32.3 6.82-47.1 6.79-11 16.3-17.8 28.5-21.7 2.05-0.469 4.13-0.796 6.21-1.1 0.713-0.175 1.43-0.351 2.16-0.531 15.5-2.56 28.7 1.43 41.4 10.3z" fill="#FBFDFD"/>
<path transform="translate(1217 361)" d="m0 0c4.04 2.98 7.87 6.01 8.96 11.1 0.134 2.51 0.0838 4.94-0.054 7.45-0.0187 0.849-0.0374 1.7-0.0566 2.57-0.103 3.51-0.263 6.32-1.38 9.68-0.068 1.73-0.085 3.46-0.0625 5.19 0.00902 0.901 0.018 1.8 0.0273 2.73 0.0116 0.687 0.0232 1.37 0.0352 2.08-3.76-0.56-6.18-1.57-9.31-3.69-4.46-2.78-8.97-4.78-13.9-6.62-0.665-0.254-1.33-0.508-2.01-0.77-12.5-4.56-30.1-4.73-42.5 0.145-14.4 7.29-22.8 16.8-28.2 31.9-0.514 2.73-0.799 5.3-0.895 8.07-0.105 1.93-0.105 1.93-1.11 3.93-1.24 17.5 1.65 34.5 13 48.4 3.92 4.12 7.94 7.02 13 9.56v2c-3.11-1.17-5.97-2.53-8.88-4.12-3.94-2.02-6.74-2.24-11.1-1.88v4l-2 1c-1.25 2.92-1.25 2.92-2 6 0.33 0.66 0.66 1.32 1 2-0.33 0.66-0.66 1.32-1 2h2c0.247 0.619 0.495 1.24 0.75 1.88 1.49 2.54 2.65 2.87 5.25 4.12 0.474 0.639 0.949 1.28 1.44 1.94 1.87 2.47 3.86 3.6 6.56 5.06-0.371 1.07-0.743 2.14-1.12 3.25-1.19 3.57-1.19 3.57 0 6.19 0.371 0.516 0.743 1.03 1.12 1.56-19.1-5.71-34.4-22.1-44-39-11-21.8-15.8-49.5-8.37-73 4.04-12 9.24-23.2 17.4-33 0.634-0.791 1.27-1.58 1.92-2.4 12.3-14.6 29.7-23.2 48.1-27.6 0.752-0.191 1.5-0.382 2.28-0.578 18.6-2.89 38.5 0.296 55.2 8.76z" fill="#07A20B"/>
<path transform="translate(1538 372)" d="m0 0c12.3 11.8 21.4 27.1 24.6 43.8 0.168 0.649 0.337 1.3 0.51 1.97 1.53 6.07 1.7 11.7 1.55 18-0.0343 1.86-0.0645 3.73-0.0898 5.59-0.018 0.812-0.0359 1.62-0.0544 2.46-0.0532 2.08-0.0532 2.08 1.08 4.01 0.0993 3.04 0.14 6.05 0.133 9.09 9.57e-4 0.902 0.00191 1.8 0.0029 2.73 6.81e-4 1.91-0.00117 3.82-0.00534 5.73-0.00535 2.93-5.27e-5 5.86 0.00635 8.79-6.61e-4 1.85-0.00194 3.71-0.00391 5.56 0.00202 0.88 0.00405 1.76 0.00613 2.67-0.024 6.2-0.024 6.2-1.14 8.43-0.0748 2.81-0.0912 5.59-0.0625 8.4 0.00379 0.834 0.00757 1.67 0.0115 2.53 0.0164 3.57 0.0445 7.15 0.0715 10.7 0.0181 2.61 0.0302 5.21 0.042 7.82 0.0124 1.21 0.0124 1.21 0.0251 2.45 0.0144 3.29-0.0385 5.93-1.09 9.08-5.58 0.378-9.36-0.694-14.2-3.31-0.603-0.309-1.21-0.617-1.83-0.936-3.2-1.67-6.28-3.35-8.99-5.75v-2c-0.577-0.227-1.15-0.454-1.75-0.688-3.32-1.93-5.7-4.52-6.84-8.23-0.701-3.59-0.782-7.24-0.945-10.9-0.0419-0.91-0.0839-1.82-0.127-2.76-0.342-8.15-0.459-16.3-0.545-24.4-0.0144-1.31-0.0287-2.62-0.0435-3.97-0.0579-5.43-0.114-10.9-0.147-16.3-0.017-2.72-0.0418-5.44-0.0749-8.15-0.0305-2.53-0.0503-5.05-0.0571-7.58-0.185-12.9-3.21-25.5-12.5-35-2.61-1.92-5.26-3.75-7.95-5.55-0.675-0.48-1.35-0.959-2.05-1.45v-1c0.699-0.0606 1.4-0.121 2.12-0.184 0.91-0.0838 1.82-0.168 2.76-0.254 0.905-0.0812 1.81-0.162 2.74-0.246 2.39-0.186 2.39-0.186 4.38-1.32 2.73 0.251 5.41 0.56 8.12 0.938 0.754 0.0999 1.51 0.2 2.29 0.303 1.86 0.248 3.73 0.503 5.59 0.76-0.0391-8.44-3.15-13.2-9-19-2.67-0.243-2.67-0.243-5.62-0.125-1 0.018-2.01 0.0361-3.04 0.0547-0.771 0.0232-1.54 0.0464-2.34 0.0703-0.33-1.65-0.66-3.3-1-5-0.818-0.164-0.818-0.164-1.65-0.332-4.87-1.02-9.52-2.31-14.2-3.98-4.37-1.4-8.37-1.8-13-1.75-1.46 0.0135-1.46 0.0135-2.96 0.0273-0.736 0.0116-1.47 0.0232-2.23 0.0352v1c-0.583-0.0464-1.17-0.0928-1.77-0.141-6.51-0.287-11.6 0.981-17.7 3.27-2.57 0.875-2.57 0.875-5.57 0.875 0.495 1.49 0.495 1.49 1 3-2 1-2 1-5.81 0.188-7.66-0.993-15 3.43-21 7.91-2.18 1.82-2.18 1.82-3.9 3.65-1.31 1.25-1.31 1.25-3.31 1.25 0.33 0.99 0.66 1.98 1 3-1.29 1.38-2.63 2.71-4 4h-2c-5.04 5.6-7.59 11.2-9.26 18.4-1.16 3.99-2.99 6.47-5.74 9.56h-3c-0.495 0.99-0.495 0.99-1 2-2.56 0.625-2.56 0.625-5 1-0.0606 1.19-0.121 2.38-0.184 3.61-0.0844 1.57-0.169 3.13-0.254 4.7-0.0393 0.786-0.0786 1.57-0.119 2.38-0.0419 0.757-0.0838 1.51-0.127 2.29-0.0367 0.696-0.0733 1.39-0.111 2.11-0.205 1.9-0.205 1.9-1.21 4.9 0.456 2.43 1.21 4.64 2 7 0.809 0.291 1.62 0.583 2.45 0.883 2.55 1.12 2.55 1.12 3.65 3.3 0.328 1.33 0.328 1.33 0.663 2.7 0.375 1.48 0.375 1.48 0.758 2.99 0.24 1.04 0.48 2.07 0.727 3.14 0.255 1 0.51 2.01 0.773 3.04 1.88 7.64 2.98 15.1 2.98 23 2.76 8.5 8.79 14.1 16 19v2h2c0.33-0.66 0.66-1.32 1-2 0.247 1.05 0.495 2.1 0.75 3.19 1.02 3.64 2.79 5.94 5.25 8.81v2c-16.5-5.86-26.4-22.5-33.7-37.4-9.7-21.4-12.3-44.8-6.31-67.6 0.267-1.01 0.534-2.02 0.809-3.07 6.6-22 21.3-39.8 41.4-51 32.8-17 78.1-14.2 107 9.3z" fill="#07A20A"/>
<path transform="translate(630 364)" d="m0 0c1.44 0.799 2.9 1.54 4.38 2.26 19.4 10.2 32.6 31.5 39.3 51.7 1.32 4.25 2.61 8.55 3 13-0.66 0.66-1.32 1.32-2 2-2.31-0.66-4.62-1.32-7-2 0.66-0.33 1.32-0.66 2-1-0.879-3.59-1.38-5.53-4.38-7.81-2.25-1.02-4.24-1.63-6.62-2.19-4.2 4.7-4.2 4.7-4.69 10.7 0.227 1.09 0.454 2.19 0.688 3.31-0.664 1.33-1.33 2.67-2 4-0.242 2.32-0.242 2.32-0.125 4.79 0.0171 0.934 0.0342 1.87 0.0518 2.83 0.0242 0.992 0.0483 1.98 0.0732 3.01 0.0837 7.56 0.0052 15-0.75 22.6-0.0619 0.735-0.124 1.47-0.188 2.23-0.515 4.54-1.54 6.7-5.06 9.59-1.36 1.97-1.36 1.97-2 4 0.33 0.99 0.66 1.98 1 3h3v5h-2c-0.66 1.32-1.32 2.64-2 4-1.98-0.33-3.96-0.66-6-1v5c-3.93 0.0837-7.66-0.0464-11.6-0.562-3.71-0.459-6.75-0.0935-10.4 0.562-2-0.32-4-0.653-6-1-1.34 0.325-2.67 0.659-4 1-1.35 0.0429-2.71 0.0405-4.06 0-3.54-0.0466-6.98 0.148-10.5 0.5-8.02 0.76-13.9 0.723-21.4-2.5v-1c1.23 0.0232 2.46 0.0464 3.73 0.0703 18.3 0.245 35-1.22 49.3-14.1 12.8-14.2 16-31 15.2-49.5-1.14-14.5-7.57-25.1-17.3-35.5-1.86-2.03-1.86-2.03-2.86-4.03 5.45-1.39 10.4-2.24 16-2v-2c-3.63 0.33-7.26 0.66-11 1 0.33-0.66 0.66-1.32 1-2 4.36-0.856 8.56-1.11 13-1 0.749-3.66 1.24-6.42 0-10h-2v-3h-2v-2c-2.31-0.33-4.62-0.66-7-1-0.33-1.32-0.66-2.64-1-4h-4c-3.55-0.404-6.63-1.19-9.94-2.5-3.71-1.46-7.1-2.09-11.1-2.5v-3c-1.98-0.194-3.96-0.38-5.94-0.562-1.1-0.104-2.2-0.209-3.34-0.316-0.898-0.04-1.8-0.0799-2.72-0.121-0.33 0.33-0.66 0.66-1 1-2.33 0.352-4.66 0.683-7 1-1.34 0.309-2.68 0.629-4 1v2c-4.09 3.91-8.19 6.86-14 7-1.49-0.495-1.49-0.495-3-1-1.99 0.455-1.99 0.455-4 1.31-0.681 0.264-1.36 0.529-2.06 0.801-2.79 1.28-4.63 2.18-5.89 5.05-0.244 0.812-0.487 1.62-0.738 2.46-0.377 1.23-0.377 1.23-0.762 2.48-0.182 0.626-0.364 1.25-0.551 1.9h-2c-0.0928 0.928-0.0928 0.928-0.188 1.88-0.812 2.12-0.812 2.12-3.25 3.25-0.846 0.289-1.69 0.577-2.56 0.875-2.18 1.87-2.18 1.87-2.81 4.62-1.46 4.15-3.45 7.91-6.19 11.4h-2c-0.17 0.58-0.34 1.16-0.516 1.76-1.56 5.02-3.2 9.11-6.48 13.2h-2c-0.481 1.9-0.959 3.79-1.44 5.69-0.267 1.06-0.534 2.11-0.809 3.2-2.82 11.7-1.59 23.3-0.754 35.1h2c0.169 1.6 0.335 3.21 0.5 4.81 0.0928 0.893 0.186 1.79 0.281 2.71 0.219 2.48 0.219 2.48 0.219 5.48h2c1.29 1.39 1.29 1.39 2.62 3.25 0.446 0.603 0.892 1.21 1.35 1.83 1.02 1.92 1.02 1.92 1.02 5.92 0.99 0.33 1.98 0.66 3 1 0.433 0.928 0.433 0.928 0.875 1.88 1.01 2.36 1.01 2.36 3.69 3.62 2.44 1.5 2.44 1.5 3.06 3.62 0.124 0.619 0.247 1.24 0.375 1.88 0.99 0.33 1.98 0.66 3 1v2.12c1.17 3.37 2.04 3.77 4.94 5.69 3.15 2.18 4.61 3.55 5.5 7.31 0.186 1.28 0.371 2.56 0.562 3.88 0.319 1.34 0.649 2.67 1 4-8.88-4.01-16.5-8.85-24-15-0.889-0.723-1.78-1.45-2.7-2.19-16-13.6-26-34.6-28.1-55.4-1.81-23.2 2.52-44.9 15.8-64.4 0.447-0.669 0.895-1.34 1.36-2.03 13.3-18.9 34.1-30.5 56.3-35.6 21.7-2.55 41.6-0.0606 60.6 10.7z" fill="#07A20B"/>
<path transform="translate(778,363)" d="m0 0c2.43-0.341 2.43-0.341 5.45-0.293 1.08 0.00967 2.15 0.0193 3.26 0.0293 1.69 0.0377 1.69 0.0377 3.42 0.0762 1.14 0.0135 2.27 0.0271 3.44 0.041 2.81 0.0354 5.62 0.0848 8.43 0.146v3c1.3-0.0619 1.3-0.0619 2.62-0.125 3.55 0.131 6.03 0.988 9.38 2.12 2.66 0.439 5.31 0.722 8 1v2h3v5c0.577 0.0825 1.15 0.165 1.75 0.25 2.25 0.75 2.25 0.75 4.12 2.69 2.54 2.46 4.75 3.14 8.12 4.06 1.12 6.75 1.12 6.75 0 9h-13c0.983 1.21 0.983 1.21 2.85 1.1 2.05-0.0326 4.1-0.0651 6.15-0.0977v2c-1.24 0.144-2.48 0.289-3.75 0.438-2.19 0.264-4.15 0.53-6.25 1.19-6.63 1.24-11.8-1.26-17.5-4.37-10.5-5.29-25.1-4.99-36.4-2.34-2.88 1.17-5.45 2.49-8.11 4.09-0.886 0.458-1.77 0.915-2.68 1.39-11.9 6.45-18.2 17.3-22.4 29.9-1.55 5.89-2.34 11.7-2.93 17.7-0.33 0.66-0.66 1.32-1 2-0.0917 1.95-0.118 3.9-0.114 5.85 7.05e-5 1.25 1.41e-4 2.49 2.14e-4 3.77 0.00513 1.39 0.0104 2.77 0.0157 4.16 0.00192 1.46 0.00338 2.91 0.00443 4.37 0.00317 3.14 0.00944 6.28 0.0181 9.41 0.0135 4.96 0.0194 9.91 0.0241 14.9 0.0111 10.5 0.0306 21 0.051 31.6 0.022 11.4 0.0426 22.7 0.0534 34.1 0.00499 4.93 0.0149 9.86 0.0284 14.8 0.00744 3.06 0.0108 6.13 0.013 9.19 0.00188 1.42 0.00549 2.85 0.0109 4.27 0.00718 1.94 0.00767 3.88 0.00778 5.82 0.00222 1.09 0.00444 2.17 0.00673 3.29-0.12 2.55-0.12 2.55-1.12 4.55-0.23 2.37-0.411 4.75-0.562 7.12-0.126 1.92-0.126 1.92-0.254 3.88-0.0909 1.48-0.0909 1.48-0.184 2.99-8.16-0.669-8.16-0.669-11-4-1.17-0.694-2.36-1.36-3.56-2-3.44-2-3.44-2-5.44-5-0.125-3.19-0.125-3.19 0-6h2c-0.312-2.67-0.625-5.33-0.938-8-0.087-0.744-0.174-1.49-0.264-2.25-0.577-4.92-1.18-9.83-1.8-14.7h-2c0.00524-0.556 0.0105-1.11 0.0159-1.69 0.112-13.8-0.227-27.5-1.02-41.3h1c0.931-8.84 1.42-16.5-1.17-25.1-1.16-4.05-1.71-8.14-2.3-12.3-0.515-2.53-1.33-4.33-2.53-6.59-0.352-2-0.688-4-1-6-0.33-0.33-0.66-0.66-1-1-0.0726-2.19-0.0837-4.38-0.0625-6.56 0.00902-1.2 0.018-2.4 0.0273-3.63 0.0116-0.927 0.0232-1.85 0.0352-2.81h2c0.33-1.32 0.66-2.64 1-4 0.838 4.66 1.02 8.37 0 13h2v-2.31-5.69c-0.504-3.38-1.11-6.7-2-10h2c0.459-1.67 0.918-3.33 1.38-5 0.278-1 0.557-2 0.844-3.04 0.649-2.46 1.17-4.91 1.66-7.4 1.31-4.15 2.65-5.1 6.12-7.56 1.02-1.66 2.02-3.32 3-5h2v-7c3-1 3-1 6-1v-2c0.804-0.639 1.61-1.28 2.44-1.94 2.8-1.87 2.8-1.87 3.56-5.06 0.66-0.33 1.32-0.66 2-1 1.84-4.96 1.84-4.96 1-10h3c0.289-0.722 0.577-1.44 0.875-2.19 0.371-0.928 0.742-1.86 1.12-2.81 0.206-0.804 0.413-1.61 0.625-2.44 2.54-4.73 7.35-7.89 12.4-9.56v-2c0.99-0.33 1.98-0.66 3-1v-1c0.603-0.11 1.21-0.219 1.83-0.332 4.49-0.891 7.64-1.63 11.2-4.67 1.03-0.495 2.06-0.99 3.12-1.5 3.11-1.33 3.11-1.33 4.88-4.5z" fill="#00A50E"/>
<path transform="translate(1319 355)" d="m0 0c1.41 0.00773 1.41 0.00773 2.84 0.0156 0.979 0.0206 1.96 0.0412 2.97 0.0625 1.43 0.00773 1.43 0.00773 2.88 0.0156 4.72 0.0514 9.43 0.227 14.1 0.562 1.2 0.0836 1.2 0.0836 2.43 0.169 1.98 0.503 1.98 0.503 3.98 3.5 0.249 3.02 0.249 3.02 0.247 6.79 0.00241 0.695 0.00483 1.39 0.00732 2.11 0.00565 2.33-0.00303 4.67-0.0116 7 0.00107 1.67 0.00301 3.34 0.00575 5.01 0.00485 4.54-0.00281 9.08-0.013 13.6-0.00877 4.75-0.00702 9.49-0.00664 14.2-9.37e-4 7.97-0.00963 15.9-0.0233 23.9-0.0157 9.22-0.021 18.4-0.0203 27.7 6.1e-4 8.86-0.00449 17.7-0.0128 26.6-0.00354 3.78-0.00536 7.55-0.00589 11.3-1e-3 4.45-0.0071 8.89-0.0172 13.3-0.00293 1.63-0.00415 3.27-0.00357 4.9 4.89e-4 2.23-0.00515 4.45-0.0124 6.68-0.00168 1.25-0.00335 2.49-0.00508 3.78-0.129 3.02-0.129 3.02-1.13 6.02-8.64 0.982-17.7-3.2-24.4-8.51-7.89-7.39-11-15.1-11.9-25.9-0.115-3.7-0.133-7.38-0.116-11.1-0.00408-1.41-0.00942-2.81-0.0159-4.22-0.0135-3.78-0.00843-7.56 0.00114-11.3 0.00765-3.97 5.38e-4 -7.93-0.00416-11.9-0.00544-6.65 0.00169-13.3 0.016-19.9 0.0164-7.69 0.011-15.4-0.00548-23.1-0.0136-6.61-0.0155-13.2-0.00768-19.8 0.00468-3.94 0.0053-7.89-0.00461-11.8-0.00865-3.7-0.00268-7.4 0.0147-11.1 0.00587-2.01-0.00306-4.01-0.0124-6.02 0.00846-1.19 0.0169-2.38 0.0256-3.61 0.00113-1.04 0.00226-2.07 0.00343-3.14 0.378-2.57 0.378-2.57 1.76-4.4 2.2-1.59 3.67-1.52 6.37-1.49z" fill="#00A50E"/>
<path transform="translate(1049 379)" d="m0 0c7.98 8.42 13.5 18.3 18.5 28.7 0.311 0.64 0.623 1.28 0.944 1.94 2.11 4.57 2.11 4.57 0.994 7.94-1.76-1.04-3.52-2.08-5.27-3.12-1.7-1.03-1.7-1.03-3.73-0.875 0.66 0.66 1.32 1.32 2 2-3.13 1.04-3.99 0.934-7 0v-2c-5.94 0.33-11.9 0.66-18 1-1.23 2.46-1.07 4.28-1 7-0.103-0.639-0.206-1.28-0.312-1.94-0.34-1.02-0.34-1.02-0.688-2.06-0.99-0.33-1.98-0.66-3-1-3-5.22-3-5.22-3-8h-2c-1.07-1.17-2.08-2.39-3.06-3.62-3.75-4.45-7.97-7.4-12.9-10.4 3.2-1.6 5.72-0.0317 9 1 0.66-0.99 1.32-1.98 2-3l2 1c-0.33 0.66-0.66 1.32-1 2l2 1v-3c1.98-0.66 3.96-1.32 6-2 0.16-8.06 0.16-8.06-3.56-14.8-0.804-0.413-1.61-0.825-2.44-1.25-0.99 0.66-1.98 1.32-3 2-2.69-0.875-2.69-0.875-5-2v-4h-5v-2c-0.66 0.66-1.32 1.32-2 2-1.99 0.0469-1.99 0.0469-4.31-0.25-0.759-0.0877-1.52-0.175-2.3-0.266-2.39-0.484-2.39-0.484-4.66-1.44-4.26-1.64-8.7-2.18-13.2-2.9-1.86-0.32-3.7-0.725-5.53-1.14-0.495-0.99-0.495-0.99-1-2-9.46-0.841-17.8 3.66-25.9 8.05-2.09 0.953-2.09 0.953-5.09 0.953-0.268 0.598-0.536 1.2-0.812 1.81-1.19 2.19-1.19 2.19-2.75 3.62-1.89 2.05-2.07 3.84-2.44 6.56-0.949 0.186-1.9 0.371-2.88 0.562-3.51 1.17-3.51 1.17-4.5 5.06-0.206 1.11-0.413 2.23-0.625 3.38-0.577 0.0206-1.15 0.0412-1.75 0.0625-3.55 1.48-4.72 4.59-6.25 7.94-0.492 1.37-0.972 2.75-1.44 4.12-1.4 4.01-3.37 6.11-6.56 8.88 0.33 0.99 0.66 1.98 1 3h-3c-0.33 1.32-0.66 2.64-1 4-0.598 0.0206-1.2 0.0412-1.81 0.0625-2.62 0.842-2.62 0.842-3.94 4.5-0.413 1.13-0.825 2.27-1.25 3.44h2c-0.309 0.598-0.619 1.2-0.938 1.81-1.16 2.28-1.16 2.28-2.06 5.19h-4c0.752 8.94 1.61 16.6 5.98 24.7 1.15 2.62 1.21 4.5 1.02 7.33l3 1c2.34 3.24 3.44 6.05 4 10 1.32 0.33 2.64 0.66 4 1v3h3c2.09 3.4 2.18 6.05 2 10h4v2h2c0.99 6.44 0.99 6.44 2 13 1.98 0.33 3.96 0.66 6 1v3c0.99-0.33 1.98-0.66 3-1 3 6.62 3 6.62 3 10 0.66 0.33 1.32 0.66 2 1 0.625 2.56 0.625 2.56 1 5-5.04-1.45-9.15-3.62-13.6-6.38-0.691-0.431-1.38-0.862-2.09-1.31-7.15-4.61-13.6-10.1-19.3-16.3v-2h-2c-14.1-16.8-22.4-40.4-20.8-62.3 2.08-20.7 10.3-40.8 23.8-56.7 0.445-0.588 0.889-1.18 1.35-1.78 11.7-15 34-25.8 52.7-28.2 29.7-2.93 57.7 5.63 79.5 26.4z" fill="#049F09"/>
<path transform="translate(856,418)" d="m0 0c1.32 0.33 2.64 0.66 4 1v2c1.32-0.33 2.64-0.66 4-1v3c1.11 0.248 2.23 0.495 3.38 0.75 3.62 1.25 3.62 1.25 4.94 3.31 0.227 0.639 0.454 1.28 0.688 1.94l2 1c2.32 6.2 2.21 12.6 1.81 19.1-0.0512 0.914-0.102 1.83-0.155 2.77-0.747 11.5-2.62 22.6-7.66 33.1-0.42 0.88-0.84 1.76-1.27 2.67-10.8 21.1-29.6 37.5-51.9 45.2-24 7.5-49 2.73-71-8.45-2.83-2.39-2.83-2.39-3.52-5.97 9.44e-4 -1.42 0.0345-2.84 0.0952-4.25 0.00849-0.749 0.017-1.5 0.0257-2.27 0.0335-2.39 0.109-4.77 0.185-7.15 0.0301-1.62 0.0575-3.24 0.082-4.86 0.0661-3.96 0.17-7.93 0.293-11.9 4.03-1.14 5.99-0.929 9.7 0.984 0.882 0.441 1.76 0.882 2.67 1.34 0.91 0.472 1.82 0.944 2.76 1.43 6.52 3.35 12.6 5.94 19.8 7.49 0.7 0.252 1.4 0.505 2.12 0.765 0.33 0.99 0.66 1.98 1 3h24c0.33 0.66 0.66 1.32 1 2h5c-0.66-0.66-1.32-1.32-2-2 4.1-1.54 7.79-0.69 12 0 0.33 0.33 0.66 0.66 1 1 2.05-0.409 2.05-0.409 4-1-0.33-0.66-0.66-1.32-1-2 1.32-0.33 2.64-0.66 4-1v-2c2.61-0.931 3.64-1.15 6.25-0.0625 0.577 0.351 1.15 0.701 1.75 1.06v2h4c0.33-3.3 0.66-6.6 1-10h3c0.103-1.05 0.206-2.1 0.312-3.19 0.667-3.7 1.44-5.84 3.69-8.81h2c-0.0412-0.99-0.0825-1.98-0.125-3-0.00689-3.44 0.709-6.44 1.61-9.77 1.56-6.75 1.66-13.2 0.707-20.1-0.264-2.99 0.142-5.75 0.562-8.7 0.389-3.89 0.164-7.77-0.0117-11.7 0.303-3.29 1.39-5.11 3.26-7.8z" fill="#00A50E"/>
<path transform="translate(1267,277)" d="m0 0c1.65 1.65 1.23 3.64 1.32 5.91 0.0419 0.989 0.0838 1.98 0.127 3 0.0393 1.04 0.0786 2.08 0.119 3.15 0.0432 1.04 0.0864 2.09 0.131 3.17 0.106 2.59 0.208 5.18 0.307 7.77-1.48-0.495-1.48-0.495-3-1v-2c-6.54-1.09-6.54-1.09-13 0-0.33 0.66-0.66 1.32-1 2 1.98-0.33 3.96-0.66 6-1-0.495 1.49-0.495 1.49-1 3h-7c-0.33 1.32-0.66 2.64-1 4h-2c-0.33 2.31-0.66 4.62-1 7h-2c0.00524 1.08 0.0105 2.17 0.0159 3.28 0.0183 4.08 0.0297 8.16 0.0391 12.2 0.00498 1.75 0.0118 3.51 0.0205 5.26 0.0454 9.36 0.0157 18.6-1.05 27.9-0.00701 0.773-0.014 1.55-0.0212 2.34 0.66 0.66 1.32 1.32 2 2-0.495 1.49-0.495 1.49-1 3h-8c-0.027 2.92-0.0468 5.83-0.0625 8.75-0.0126 1.24-0.0126 1.24-0.0254 2.5-0.00483 1.2-0.00483 1.2-0.00977 2.42-0.00786 1.1-0.00786 1.1-0.0159 2.22 0.116 2.15 0.523 4.04 1.11 6.11h2v-12h1c0.495 5.44 0.495 5.44 1 11 1.48 0.495 1.48 0.495 3 1v-12h1c0.121 0.762 0.242 1.52 0.367 2.31 0.8 4.93 1.61 9.86 2.57 14.8 0.133 0.692 0.266 1.38 0.402 2.1 0.524 1.93 0.524 1.93 2.12 3.12 2.37 2.65 2.63 5.82 3.23 9.22 0.13 0.677 0.259 1.35 0.393 2.05 0.533 2.86 0.92 5.53 0.92 8.45h2v12c-0.66 0.33-1.32 0.66-2 1-0.0606-0.592-0.121-1.18-0.184-1.79-0.0838-0.79-0.168-1.58-0.254-2.39-0.0812-0.777-0.162-1.55-0.246-2.36-0.566-4.39-1.58-8.54-2.88-12.8-0.269-0.883-0.539-1.77-0.816-2.68-0.205-0.664-0.41-1.33-0.621-2.01 0.133 0.643 0.266 1.29 0.402 1.95 1.26 6.43 1.97 12.8 2.35 19.3 0.148 2.84 0.148 2.84 1.25 5.75 0.123 2.76 0.185 5.49 0.188 8.25 0.0122 0.739 0.0245 1.48 0.0371 2.24 0.0129 4.88-0.674 8.88-2.22 13.5-0.99-0.33-1.98-0.66-3-1-1.61 4.95-2.36 9.58-2.75 14.8-0.246 2.23-0.246 2.23-1.25 5.23-0.99 0.66-1.98 1.32-3 2-1.21 3.05-1.21 3.05-2 6h-2c-0.33 1.32-0.66 2.64-1 4-3.16 0.842-5.73 1-9 1v10c-1.32 0.33-2.64 0.66-4 1v-2c-0.784 0.33-1.57 0.66-2.38 1-2.62 1-2.62 1-4.62 1v-2c-3.3 0.33-6.6 0.66-10 1v-2h-5v2l-2.25-0.0352c-5.03-0.0431-10-0.0562-15.1 0.363-8.09 0.671-15.1 0.99-22.7-2.33v-1c0.73 0.0157 1.46 0.0314 2.21 0.0476 3.37 0.0631 6.73 0.102 10.1 0.14 1.15 0.0251 2.3 0.0503 3.48 0.0762 14.8 0.126 26.1-3.73 36.9-13.8 11.7-12.2 15.4-27.3 15.9-43.7 0.0563-1.62 0.0563-1.62 0.114-3.27 0.376-11.8 0.441-23.6 0.474-35.3 0.012-3.96 0.0313-7.92 0.0531-11.9 0.061-11.2 0.116-22.5 0.149-33.7 0.0184-6.25 0.0474-12.5 0.088-18.8 0.0209-3.29 0.0348-6.57 0.0388-9.86 0.00492-3.65 0.0281-7.3 0.0553-10.9-0.00451-1.6-0.00451-1.6-0.00911-3.23 0.122-11 2.56-19.7 10.4-27.7 6.72-5.7 16-10.7 25-10z" fill="#07A20B"/>
<path transform="translate(1415,458)" d="m0 0h2c0.33 0.99 0.66 1.98 1 3 0.351 0.969 0.701 1.94 1.06 2.94 0.938 3.06 0.938 3.06 0.938 7.06h2c0.625 1.88 0.625 1.88 1 4-0.66 0.66-1.32 1.32-2 2 0.99 0.33 1.98 0.66 3 1 0.66 0.99 1.32 1.98 2 3 1.21 0.433 1.21 0.433 2.44 0.875 2.56 1.12 2.56 1.12 4.06 3.75 0.495 0.784 0.99 1.57 1.5 2.38 1.67 0.0438 3.33 0.0397 5 0 0.721 0.594 1.44 1.19 2.18 1.8 3.28 2.56 6.63 3.94 10.5 5.32 0.71 0.259 1.42 0.517 2.15 0.784 14.9 5.29 28.4 5.54 43.1-0.846 5.88-3.1 10.5-7.73 15.2-12.3 2.23-2.12 4.38-3.99 6.88-5.74 1.68 3.65 2.23 6.44 2.16 10.4-0.0164 1.52-0.0164 1.52-0.0332 3.07-0.0213 1.05-0.0425 2.09-0.0645 3.17-0.0343 2.09-0.0645 4.17-0.0898 6.26-0.018 0.921-0.0359 1.84-0.0544 2.79-0.0732 2.29-0.0732 2.29 1.08 4.26 0.259 4.58 0.076 7.9-2 12-8.56 8.04-20.8 12.8-32 16-0.9 0.258-0.9 0.258-1.82 0.521-10.9 2.4-24.8 1.49-35.2-2.52-1.12-0.364-2.24-0.727-3.4-1.1-8.7-2.98-8.7-2.98-12.4-6.71-1.5-3.81-1.84-7.12-2.25-11.2-0.66-0.33-1.32-0.66-2-1-0.33-0.99-0.66-1.98-1-3-0.928-0.619-1.86-1.24-2.81-1.88-6.68-4.45-8.27-9.65-10.2-17.1h-2c-0.124-1.2-0.247-2.39-0.375-3.62-0.452-3.66-1.39-6.89-2.62-10.4-1.09-4.04-1.05-7.85-0.938-12 0.0741-2.06 0.0741-2.06-1.06-3.99h3c0.33-0.66 0.66-1.32 1-2 0.33-0.33 0.66-0.66 1-1z" fill="#03A910"/>
<path transform="translate(933,422)" d="m0 0c0.66 0.66 1.32 1.32 2 2 1.07 0.144 2.14 0.289 3.25 0.438 3.82 0.573 6.4 1.69 9.75 3.56v3h4v2c6.93 1.49 6.93 1.49 14 3v-2c13.4 0.495 13.4 0.495 27 1v2h28c0.33-1.32 0.66-2.64 1-4h11c0.495 1.49 0.495 1.49 1 3h2c0.33-0.99 0.66-1.98 1-3h11c0.33-0.66 0.66-1.32 1-2-3.96-0.33-7.92-0.66-12-1 0.33-0.66 0.66-1.32 1-2 7.35-0.0953 14.6-0.104 21.9 0.793 2.31 0.281 2.31 0.281 5.43 0.0195 2.69 0.188 2.69 0.188 5.5 1.5 2.96 3.64 2.87 6.64 3.05 11.2-0.0218 2.47-0.0218 2.47 1.14 4.46 0.137 3.33 0.0428 6.66 0 10-8.67 0.872-17.2 1.14-25.9 1.11-1.35-2.83e-4 -2.7-1.22e-4 -4.05 4.43e-4 -3.63 2.84e-4 -7.26-0.00555-10.9-0.0126-3.81-0.0063-7.62-0.00684-11.4-0.00803-7.19-0.00309-14.4-0.0113-21.6-0.0213-8.2-0.0112-16.4-0.0167-24.6-0.0217-16.8-0.0104-33.7-0.028-50.5-0.0503v-3h-4c-3.47-3.72-3.39-7.6-3.23-12.4 0.332-3.77 1.01-6.98 2.23-10.6 0.99-0.66 1.98-1.32 3-2 1.19-2.05 1.19-2.05 2-4h2c2.7-1.19 2.7-1.19 5-3z" fill="#03A910"/>
<path transform="translate(60,412)" d="m0 0h7v5h2c0.0248 6.16 0.0429 12.3 0.0549 18.5 0.00502 2.09 0.0118 4.19 0.0205 6.28 0.0122 3.01 0.0178 6.03 0.0222 9.04 0.00516 0.931 0.0103 1.86 0.0156 2.82 3.95e-4 4.6-0.324 8.84-1.11 13.4 0.33 0.66 0.66 1.32 1 2 0.0458 1.35 0.0382 2.71 0 4.06-0.0642 6.66 0.037 13.9 3 19.9 4.46 2.53 9.62 3.11 14.7 3.21 0.901 0.0199 1.8 0.0399 2.73 0.0604 0.959 0.0167 1.92 0.0334 2.9 0.0506 0.992 0.0208 1.98 0.0416 3.01 0.063 3.16 0.0652 6.32 0.124 9.48 0.183 2.15 0.0432 4.29 0.0868 6.44 0.131 5.25 0.107 10.5 0.209 15.8 0.307 2.08 3.8 2.25 6.55 2.23 10.9-4.58e-4 0.658-9.16e-4 1.32-0.00139 1.99-0.00301 1.38-0.0109 2.77-0.0233 4.15-0.0183 2.13-0.0205 4.25-0.0203 6.38-0.038 10.4-0.038 10.4-1.19 11.6-1.55 0.104-3.11 0.139-4.67 0.145-0.995 0.00638-1.99 0.0128-3.02 0.0193-1.63 0.00167-1.63 0.00167-3.29 0.00337-1.11 0.00333-2.22 0.00666-3.37 0.0101-2.36 0.00508-4.72 0.00741-7.08 0.00725-3.6 0.00217-7.19 0.0203-10.8 0.0393-2.29 0.00294-4.59 0.00492-6.88 0.00586-1.07 0.00719-2.14 0.0144-3.25 0.0218-5.91-0.0179-11-0.538-16.7-2.25v-2c-0.66-0.33-1.32-0.66-2-1v-2c-0.725-0.613-0.725-0.613-1.46-1.24-2.22-2.55-1.98-4.61-2.1-7.95-0.28-5.23-0.989-9.79-2.44-14.8v-1c-0.99-0.33-1.98-0.66-3-1v-8c-2.48 0.495-2.48 0.495-5 1-1.81-4.62-2.19-8.3-2.01-13.2 0.0227-0.686 0.0453-1.37 0.0686-2.08 0.0749-2.19 0.165-4.37 0.256-6.55 0.0498-1.43 0.0986-2.85 0.146-4.28 0.492-14 1.1-28 3.54-41.8 0.99-0.33 1.98-0.66 3-1 0.66-3.63 1.32-7.26 2-11z" fill="#03A910"/>
<path transform="translate(1180,357)" d="m0 0c3.95 0.0196 7.89 0.072 11.8 0.153 1.99 0.0342 3.98 0.0436 5.97 0.0525 9.96 0.226 17.6 1.82 24.8 9 3.27 4.25 3.12 8.36 2.84 13.5-0.0187 0.849-0.0374 1.7-0.0566 2.57-0.103 3.51-0.263 6.32-1.38 9.68-0.068 1.73-0.085 3.46-0.0625 5.19 0.00902 0.901 0.018 1.8 0.0273 2.73 0.0116 0.687 0.0232 1.37 0.0352 2.08-3.76-0.56-6.18-1.57-9.31-3.69-4.46-2.78-8.97-4.78-13.9-6.62-0.665-0.254-1.33-0.508-2.01-0.77-12.5-4.56-30.1-4.73-42.5 0.145-14.4 7.3-22.7 16.8-28.2 31.9-0.491 2.62-0.738 5.11-0.855 7.77-0.212 3.27-1.13 6.13-2.14 9.23-0.619 0.124-1.24 0.248-1.88 0.375-2.32 0.497-2.32 0.497-4.12 2.62-0.33-1.32-0.66-2.64-1-4 1.48-0.495 1.48-0.495 3-1 0.66 0.33 1.32 0.66 2 1v-3c-0.763 0.165-1.53 0.33-2.31 0.5-2.69 0.5-2.69 0.5-5.69 0.5-1.34 0.306-2.68 0.635-4 1-1.47-6.89-0.78-11 3-17-3.46 3.23-4.85 6.36-5.12 11.2-0.00344 1.94 0.0541 3.89 0.121 5.83-0.99-0.33-1.98-0.66-3-1 0.373-12.2 2.81-18.4 10.4-27.8 2.16-2.93 3.38-5.78 4.62-9.19h3c-0.66 1.32-1.32 2.64-2 4h2v-2h2c-0.33-0.99-0.66-1.98-1-3h2c0.33-1.32 0.66-2.64 1-4h3c-0.0619-0.784-0.124-1.57-0.188-2.38 0.0928-1.3 0.0928-1.3 0.188-2.62 0.99-0.66 1.98-1.32 3-2 0.693-1.68 1.38-3.37 2.05-5.06 1.4-2.84 3.4-4.97 5.55-7.26 1.51-1.61 1.51-1.61 2.15-3.69 1.95-3.09 4.97-3.89 8.25-5.11 1-0.388 1-0.388 2.03-0.784 5.22-1.96 10.4-3.34 16-4.09v-1c1.75-0.196 3.5-0.381 5.25-0.562 0.975-0.104 1.95-0.209 2.95-0.316 2.56-0.111 4.38 0.102 6.8 0.879v-2h-5v-2z" fill="#00A50E"/>
<path transform="translate(68,312)" d="m0 0c0.33 8.91 0.66 17.8 1 27-2.47-0.99-2.47-0.99-5-2-2.92 0.181-2.92 0.181-5.81 0.875-0.976 0.204-1.95 0.407-2.96 0.617-0.736 0.168-1.47 0.335-2.23 0.508v3c-0.99 0.33-1.98 0.66-3 1-3.94 3.88-3.94 3.88-5 9h1c0.185 11.5 0.185 11.5-1 17h-2c0.329 0.905 0.657 1.81 0.996 2.74 1.54 5.38 1.18 10.8 1.07 16.4-0.0346 2.13-0.0647 4.26-0.0898 6.38-0.018 0.935-0.0359 1.87-0.0544 2.83-0.00296 2.63-0.00296 2.63 0.614 5.03 0.479 2.69 0.383 4.7 0.0412 7.4-0.792 7.62-0.737 15.2-0.741 22.9-0.00322 1.59-0.00659 3.17-0.0101 4.76-0.00595 3.3-0.00784 6.61-0.00725 9.91 1.02e-4 4.23-0.0136 8.45-0.0308 12.7-0.0111 3.27-0.0131 6.53-0.0126 9.8-0.00118 1.56-0.00558 3.12-0.0133 4.68-0.00981 2.17-0.00692 4.35-8.95e-4 6.52-0.00143 1.23-0.00285 2.47-0.00432 3.74 0.243 3.21 0.971 5.35 2.25 8.26v3h2c0.289 0.949 0.578 1.9 0.875 2.88 0.893 3.18 0.893 3.18 3.12 5.12 2 3 2 3 3 6 0.804 0.588 0.804 0.588 1.62 1.19 1.38 1.81 1.38 1.81 1.31 3.68-0.205 1.4-0.442 2.81-0.711 4.2-0.391 2.15-0.391 2.15 0.773 4.94h2c-0.33 0.66-0.66 1.32-1 2-12.7-7.58-20.6-14.7-25-29.3-4.21-17.8-3.14-36.6-3.13-54.8-2.24e-4 -2.71-0.00165-5.43-0.0029-8.14-0.00181-5.66 5.48e-4 -11.3 0.00534-17 0.00546-6.52 0.00366-13-0.00183-19.6-0.00455-5.63-0.00517-11.3-0.00256-16.9 0.00155-3.35 0.00139-6.7-0.00154-10-0.00255-3.73 0.00134-7.46 0.0069-11.2-0.00202-1.09-0.00405-2.19-0.00613-3.31 0.0329-11.9 0.927-22.3 8.89-31.9 5.22-4.93 19.9-15.6 27.2-11.9z" fill="#07A20A"/>
<path transform="translate(191 493)" d="m0 0c6.58 0.592 12 2.57 18.1 5.07 3.64 1.31 6.2 1.52 10 1.08v2c3.3 1.1 6.02 1.25 9.5 1.43 1.28 0.0735 2.56 0.147 3.88 0.223 2.03 0.113 4.06 0.223 6.1 0.322 1.97 0.0978 3.93 0.214 5.9 0.331 1.17 0.0617 2.35 0.123 3.56 0.187 3.23 0.535 4.69 1.32 7.07 3.51 0.33-0.66 0.66-1.32 1-2 6.85-1.32 14-1.14 21-1v2c-4.45 0.495-4.45 0.495-9 1 3.77 1.88 5.03 2.22 9 2v2h2c-0.33 1.98-0.66 3.96-1 6h2c0.495-1.49 0.495-1.49 1-3v7c-20.2 12.8-43.2 19-67 13.8-1.89-0.485-3.77-0.992-5.65-1.52-0.878-0.244-1.76-0.487-2.66-0.739-4.93-1.54-7.93-2.93-10.7-7.57v-2c-0.288-1.32-0.604-2.63-0.938-3.94-0.174-0.69-0.348-1.38-0.527-2.09-0.454-1.67-0.987-3.33-1.54-4.97h-2v-2c-0.99-0.33-1.98-0.66-3-1-1.69-2.56-1.69-2.56-3-5h2c0.049-0.626 0.098-1.25 0.148-1.9 0.112-1.23 0.112-1.23 0.227-2.48 0.0696-0.812 0.139-1.62 0.211-2.46 0.543-2.84 1.36-4.08 4.34-4.32z" fill="#00A50E"/>
<path transform="translate(1547,415)" d="m0 0c1.34 0.312 2.67 0.648 4 1h3c2.63 4.91 4.64 9.56 6 15 0.206 0.804 0.412 1.61 0.625 2.44 0.124 0.516 0.247 1.03 0.375 1.56h2c3.24 10.5 3.4 20.5 3.28 31.4-0.0316 2.83-0.041 5.66-0.0469 8.5-0.00915 1.8-0.0195 3.61-0.0312 5.41-0.00637 1.27-0.00637 1.27-0.0129 2.56-0.0729 5.91-0.0729 5.91-1.19 8.14-0.0748 2.81-0.0912 5.59-0.0625 8.4 0.00379 0.834 0.00757 1.67 0.0115 2.53 0.0164 3.57 0.0445 7.15 0.0715 10.7 0.0181 2.61 0.0302 5.21 0.042 7.82 0.0083 0.809 0.0166 1.62 0.0251 2.45 0.0144 3.29-0.0385 5.93-1.09 9.08-5.5 0.352-9.37-0.623-14.2-3.12-0.603-0.284-1.21-0.567-1.83-0.859-4.56-2.3-6.53-4.71-8.99-9.02 0.99-0.495 0.99-0.495 2-1-0.186-0.887-0.371-1.77-0.562-2.69-0.425-3.22-0.174-5.2 0.562-8.31v-4c-0.99-0.33-1.98-0.66-3-1v-2h-2c-1.53-3.07-1.1-6.27-1.06-9.62 0.00451-0.706 0.00902-1.41 0.0137-2.14 0.0118-1.74 0.0297-3.49 0.0488-5.23h2c0.8 3.29 1.1 4.71 0 8-0.0395 2.33-0.044 4.67 0 7h2c-0.0619-1.7-0.0619-1.7-0.125-3.44-0.0108-3.1 0.338-5.76 1.12-8.75 1.47-5.88 1.17-11.8 1-17.8h-1c-0.0249-4.13-0.043-8.25-0.0549-12.4-0.00499-1.4-0.0118-2.8-0.0205-4.2-0.0438-7.22 0.00859-14.3 1.08-21.4-0.0412-1.28-0.0825-2.56-0.125-3.88 0.0412-1.03 0.0825-2.06 0.125-3.12 0.99-0.66 1.98-1.32 3-2 0.722-1.64 1.39-3.31 2-5 0.33-0.33 0.66-0.66 1-1z" fill="#00A50E"/>
<path transform="translate(458 355)" d="m0 0c0.766-0.00429 1.53-0.00857 2.32-0.013 1.62-0.00574 3.23-0.00625 4.85-0.00191 2.48 0.00316 4.95-0.0203 7.43-0.0457 1.57-0.00227 3.14-0.00298 4.71-0.00195 0.741-0.00921 1.48-0.0184 2.24-0.0279 5.15 0.0464 5.15 0.0464 7.59 1.91 0.333 0.488 0.666 0.975 1.01 1.48-0.378 0.646-0.755 1.29-1.14 1.96-2.79 4.78-5.58 9.57-8.35 14.4-19.8 34.3-19.8 34.3-27.5 44.7-0.99-0.33-1.98-0.66-3-1 0.33-0.99 0.66-1.98 1-3-0.33 0.33-0.66 0.66-1 1-2.55 0.243-5.1 0.384-7.65 0.523-2.72 0.264-2.72 0.264-4.35 3.48-0.928-0.33-1.86-0.66-2.81-1-5-1.46-10-1.17-15.2-1v-2c-0.66-0.33-1.32-0.66-2-1l1-1c-0.99-0.33-1.98-0.66-3-1 0.597-4.14 2.97-7.1 5.31-10.4 4.22-6.16 8.02-12.5 11.7-19 3.75-6.65 7.55-13.3 11.6-19.8 0.405-0.665 0.811-1.33 1.23-2.02 3.93-6.28 6.96-7.11 14.1-7.1z" fill="#00A50E"/>
<path transform="translate(1019,399)" d="m0 0c2.93 2.45 5.69 4.94 8 8v2h2c0.841 1.6 1.67 3.21 2.5 4.81 0.696 1.34 0.696 1.34 1.41 2.71 1.09 2.48 1.09 2.48 1.09 5.48-48.5 0.495-48.5 0.495-98 1-1-4-1-4 0.223-6.33 1.91-2.57 3.82-5.14 5.78-7.67 0.468-0.636 0.936-1.27 1.42-1.93 7.25-9.25 19.6-17.4 31.2-19.8 16.8-2.02 30.6 2.37 44.4 11.7z" fill="#FBFDFD"/>
<path transform="translate(1538 372)" d="m0 0c8.34 7.99 15.4 18 19.6 28.8v3c-1.32-0.66-2.64-1.32-4-2v-2h-2v-5c-0.66-0.33-1.32-0.66-2-1-0.625-1.25-1.22-2.52-1.75-3.81-3.06-5.36-9.37-11.2-15.2-13.2v-3h-2c-2-2-2-2-3-4-12-6.91-26.8-10.8-40.4-12.6-2.58-0.395-2.58-0.395-4.58-1.39-4.65-0.305-4.65-0.305-9 1l-2-1v4c-0.33 0.66-0.66 1.32-1 2-2.87 0.598-2.87 0.598-6.44 1.06-4.43 0.478-4.43 0.478-8.56 1.94 0.495 0.99 0.495 0.99 1 2-0.874 0.22-0.874 0.22-1.77 0.445-7.24 1.98-13.6 5.08-20.2 8.55-1.6 0.754-1.6 0.754-3.23 1.52-3.18 1.69-4.57 3.68-6.77 6.48-2.25 0.812-2.25 0.812-4 1 0.33 0.99 0.66 1.98 1 3-1.29 1.38-2.63 2.71-4 4h-2c-5.04 5.6-7.59 11.2-9.26 18.4-1.16 3.99-2.99 6.47-5.74 9.56h-3c-0.495 0.99-0.495 0.99-1 2-2.56 0.625-2.56 0.625-5 1-0.0606 1.19-0.121 2.38-0.184 3.61-0.0844 1.57-0.169 3.13-0.254 4.7-0.0393 0.786-0.0786 1.57-0.119 2.38-0.0419 0.757-0.0838 1.51-0.127 2.29-0.0367 0.696-0.0733 1.39-0.111 2.11-0.205 1.9-0.205 1.9-1.21 4.9 0.456 2.43 1.21 4.64 2 7 0.809 0.291 1.62 0.583 2.45 0.883 2.55 1.12 2.55 1.12 3.65 3.3 0.328 1.33 0.328 1.33 0.663 2.7 0.375 1.48 0.375 1.48 0.758 2.99 0.24 1.04 0.48 2.07 0.727 3.14 0.255 1 0.51 2.01 0.773 3.04 1.88 7.64 2.98 15.1 2.98 23 2.76 8.5 8.79 14.1 16 19v2h2c0.33-0.66 0.66-1.32 1-2 0.247 1.05 0.495 2.1 0.75 3.19 1.02 3.64 2.79 5.94 5.25 8.81v2c-16.5-5.86-26.4-22.5-33.7-37.4-9.7-21.4-12.3-44.8-6.31-67.6 0.267-1.01 0.534-2.02 0.809-3.07 6.6-22 21.3-39.8 41.4-51 32.8-17 78.1-14.2 107 9.3z" fill="#049F09"/>
<path transform="translate(68,338)" d="m0 0v17c0.66 0.33 1.32 0.66 2 1-2.64 1.41-5.07 2.37-8 3v3c-0.33 0.99-0.66 1.98-1 3h-3v-7c-2.14 1.02-2.14 1.02-4 3-0.419 3.7-0.223 6.36 1 9.88 0.929 2.9 1.08 4.59 1 7.56-0.0574 4.26 0.12 7.65 2 11.6 2.56 1.47 5.16 2.23 8 3 0.66 0.33 1.32 0.66 2 1v23h-1v-5h-7c0.124 1.86 0.124 1.86 0.25 3.75 0.141 2.11 0.141 2.11-0.25 4.25-0.641 0.583-1.28 1.17-1.94 1.77-2.86 3.1-2.93 6.2-3.25 10.2-0.069 0.692-0.138 1.38-0.209 2.1-0.223 2.3-0.413 4.6-0.604 6.9-0.0825 0.872-0.165 1.74-0.25 2.64-0.734 8.02-1.07 16-1.31 24.1-0.068 2.23-0.146 4.46-0.224 6.69-0.0449 1.43-0.0891 2.87-0.133 4.3-0.0408 1.28-0.0815 2.56-0.124 3.88 0.0329 2.98 0.326 5.53 1.04 8.41h5c1 5.75 1 5.75 1 8 0.66 0.33 1.32 0.66 2 1 0.33-0.66 0.66-1.32 1-2 0.66 0.66 1.32 1.32 2 2-0.66 0.33-1.32 0.66-2 1 0.144 0.691 0.289 1.38 0.438 2.09 0.819 4.23 1.43 8.49 2.06 12.8 0.434 2.74 0.933 5.44 1.5 8.16 0.66-0.33 1.32-0.66 2-1 0.33 1.98 0.66 3.96 1 6-0.66 0.33-1.32 0.66-2 1-2.03-0.934-4.04-1.93-6-3v-3h-2c-2.57-3.78-1.8-6.66-1-11v-2c-0.99-0.33-1.98-0.66-3-1-0.704-1.31-1.36-2.65-2-4-0.701-0.804-1.4-1.61-2.12-2.44-2.09-2.86-2.27-4.11-1.88-7.56h-2c-3.82-7.75-3.4-15.6-3.33-24 0.00307-1.57 0.00494-3.13 0.00568-4.7 0.00459-3.28 0.0189-6.56 0.0412-9.84 0.0281-4.16 0.0392-8.32 0.0437-12.5 0.00521-4.02 0.0197-8.03 0.0344-12 0.00188-0.745 0.00376-1.49 0.0057-2.26 0.0293-9.01 0.333-17.9 1.08-26.9 0.0376-0.919 0.0752-1.84 0.114-2.78-0.33-0.33-0.66-0.66-1-1-0.0752-1.7-0.0831-3.4-0.0625-5.1 0.00773-1.05 0.0155-2.1 0.0234-3.18 0.0258-2.21 0.0518-4.42 0.0781-6.62 0.0402-5.49-0.0485-10.7-1.04-16.1h2v-11c-0.33 2.31-0.66 4.62-1 7h-1c-0.738-13.6-0.738-13.6 4-20h2c0.289-0.784 0.578-1.57 0.875-2.38 1.12-2.62 1.12-2.62 3.12-4.62 2.46-0.703 2.46-0.703 5.38-1.25 0.956-0.191 1.91-0.382 2.9-0.578 2.73-0.172 2.73-0.172 6.73 1.83z" fill="#00A60E"/>
<path transform="translate(381,277)" d="m0 0v18h-11v2h-4c-0.33 0.66-0.66 1.32-1 2-0.959 1.08-0.959 1.08-1.94 2.19-2.38 3.25-3.03 5.93-4.06 9.81-0.708 1.25-1.42 2.5-2.12 3.75-5.11 11.3-2.11 25.6 1.25 36.9 0.782 2.97 1.06 5.28 0.875 8.32h-2v14c0.99 0.33 1.98 0.66 3 1 0.349 9.99 0.349 9.99-2 15 0.33 0.66 0.66 1.32 1 2-0.445 0.797-0.445 0.797-0.898 1.61-1.59 3.44-1.57 6.91-1.73 10.6-0.0387 0.745-0.0773 1.49-0.117 2.26-0.0939 1.83-0.177 3.66-0.258 5.49h-2v4c2.71-1.35 2.96-2.81 4.12-5.56 0.53-1.24 0.53-1.24 1.07-2.5 0.398-0.957 0.398-0.957 0.805-1.93 1.33 3.99 0.192 5.99-1 10-0.476 2.63-0.807 5.28-1.12 7.94-0.0864 0.684-0.173 1.37-0.262 2.07-0.209 1.66-0.412 3.33-0.613 4.99-1.32 0.33-2.64 0.66-4 1v-6h-2c0.495 2.48 0.495 2.48 1 5-0.99 0.33-1.98 0.66-3 1 0.33 5.61 0.66 11.2 1 17h1v9h-2c0.58 12.7 1.22 25.3 2 38 0.99-0.33 1.98-0.66 3-1 0.389 1.45 0.761 2.91 1.12 4.38 0.313 1.22 0.313 1.22 0.633 2.46 0.0799 0.714 0.16 1.43 0.242 2.16-0.99 0.99-0.99 0.99-2 2-0.33-0.99-0.66-1.98-1-3-0.0823 3.04 0.0239 5.07 1 8h3c0.125 3.38 0.125 3.38 0 7-0.99 0.99-0.99 0.99-2 2-8.02-7.84-9.2-16.9-9.38-27.7-0.0292-3.42-0.0196-6.85-0.00723-10.3-0.00407-1.9-0.00942-3.79-0.0159-5.69-0.0136-5.12-0.00841-10.2 0.00114-15.4 0.00763-5.37 5.42e-4 -10.7-0.00416-16.1-0.00545-9.02 0.00171-18 0.016-27.1 0.0163-10.4 0.011-20.8-0.00548-31.2-0.0136-8.96-0.0155-17.9-0.00768-26.9 0.00466-5.34 0.00534-10.7-0.00461-16-0.0087-5.02-0.0026-10 0.0147-15.1 0.00395-1.84 0.00286-3.67-0.00379-5.51-0.0716-21.8-0.0716-21.8 6.27-30.9 0.472-0.699 0.944-1.4 1.43-2.12 3.58-4.24 7.82-6.77 12.8-9.2 1.02-0.509 2.04-1.02 3.1-1.54 4.41-1.97 6.88-2.27 11.8-2.27z" fill="#06A10A"/>
<path transform="translate(1475,363)" d="m0 0c12.6-0.471 27 0.00549 38 7 0.766 2.13 0.766 2.13 1 4 1.05-0.157 1.05-0.157 2.12-0.316 7.63-0.653 7.63-0.653 11.4 2.25 3.97 4.51 6.67 7.6 6.59 13.7-0.00902 0.817-0.018 1.63-0.0273 2.48-0.0116 0.626-0.0232 1.25-0.0352 1.9-4.44 1.48-8.24 0.209-12.8-0.625-3.14-0.364-5.2-0.136-8.23 0.625-5.97 0.568-9.56-0.132-15.1-2.5-13.2-5.03-29.9-4.62-42.9 0.926-4.06 2.14-7.92 4.49-11.7 7.12-2.17 1.37-3.8 2.01-6.3 2.45-0.66-0.99-1.32-1.98-2-3h-3-4c-0.99 2.48-0.99 2.48-2 5-1.1-3.29-0.8-4.71 0-8h2c0.0928-1.11 0.0928-1.11 0.188-2.25 1.06-3.58 2.92-4.51 5.81-6.75 0.87-2.13 0.87-2.13 1-4h4c-0.33-0.99-0.66-1.98-1-3h2c0.33-0.66 0.66-1.32 1-2 0.33 0.99 0.66 1.98 1 3h2c-0.33-0.99-0.66-1.98-1-3 1.44-3.19 1.44-3.19 3-6h8v-3c2.37-0.845 4.75-1.68 7.12-2.5 0.665-0.238 1.33-0.477 2.02-0.723 4.09-1.4 7.47-2.05 11.9-1.78v-1z" fill="#00A50E"/>
<path transform="translate(396,430)" d="m0 0v7h3v2c0.763-0.227 1.53-0.454 2.31-0.688 2.69-0.312 2.69-0.312 4.5 1 1.19 1.69 1.19 1.69 1.19 3.69h3c0.495 0.99 0.495 0.99 1 2 4.99 2.57 10.4 3 16 3 0.495 2.97 0.495 2.97 1 6-3.94 1.29-7.91 1.15-12 1.12-1.07 0.0058-1.07 0.0058-2.16 0.0117-3.47-0.00648-6.5-0.294-9.84-1.14-2.68-0.12-5.32-0.185-8-0.188-0.712-0.0122-1.42-0.0245-2.16-0.0371-5.26-0.0397-5.26-0.0397-9.84 2.22-0.935 2.8-1.12 4.45-1.1 7.35 0.00495 1.31 0.00495 1.31 0.01 2.65 0.0083 0.941 0.0166 1.88 0.0251 2.85 0.00379 0.968 0.00757 1.94 0.0115 2.93 0.0122 3.09 0.0309 6.19 0.051 9.28 0.0265 4.07 0.0465 8.15 0.0625 12.2 0.0083 0.943 0.0166 1.89 0.0251 2.86 0.00495 1.31 0.00495 1.31 0.01 2.64 0.00786 1.15 0.00786 1.15 0.0159 2.33-0.114 1.89-0.114 1.89-1.11 3.89-0.0723 1.52-0.0838 3.05-0.0625 4.58 0.00773 0.914 0.0155 1.83 0.0234 2.77 0.0258 1.92 0.0519 3.84 0.0781 5.76 0.04 4.76-0.034 9.21-1.04 13.9-2.97-0.33-5.94-0.66-9-1v-2c-0.784-0.0825-1.57-0.165-2.38-0.25-2.62-0.75-2.62-0.75-3.75-2.75-0.289-0.66-0.577-1.32-0.875-2-0.99-0.33-1.98-0.66-3-1 0.33-0.99 0.66-1.98 1-3h5c-0.66-3.63-1.32-7.26-2-11l-2 2c-1.94-4.13-2.37-7.77-2.62-12.3-0.0748-1.25-0.15-2.51-0.227-3.8-0.049-0.953-0.098-1.91-0.148-2.89l2-1c-0.0157-0.854-0.0157-0.854-0.0317-1.72-0.0419-2.61-0.0677-5.22-0.0933-7.84-0.0168-0.895-0.0335-1.79-0.0508-2.71-0.0392-5.35 0.484-9.66 2.18-14.7v-2c0.315-1.34 0.646-2.67 1-4 0.66 0.33 1.32 0.66 2 1-0.165 1.13-0.33 2.27-0.5 3.44-0.356 2.27-0.356 2.27-0.5 4.56 1.32-1.32 2.64-2.64 4-4-0.351-0.598-0.701-1.2-1.06-1.81-0.938-2.19-0.938-2.19 0.0625-5.19h-2c-2.24-4.77-2.82-8.65-1.06-13.7 0.351-0.763 0.701-1.53 1.06-2.31 0.33-0.99 0.66-1.98 1-3h3c-0.33 1.65-0.66 3.3-1 5h2v-3c1.65-0.66 3.3-1.32 5-2v-2c-1.65 0.33-3.3 0.66-5 1 0.33-0.99 0.66-1.98 1-3 0.99-0.33 1.98-0.66 3-1-0.33-0.66-0.66-1.32-1-2 6.35-1.69 13.6-1.69 20 0z" fill="#03A910"/>
<path transform="translate(1311,358)" d="m0 0h2c0.878 2.64 1.17 4.37 1.28 7.09 0.0374 0.784 0.0748 1.57 0.113 2.38 0.0522 1.22 0.0522 1.22 0.105 2.47 0.0692 1.61 0.142 3.23 0.219 4.84 0.0303 0.714 0.0606 1.43 0.0918 2.16 0.194 2.1 0.624 4.03 1.19 6.06 1.32-0.66 2.64-1.32 4-2 4.12 4.48 4.06 9.5 3.94 15.3-0.0704 6.92 1.59 13.3 3.69 19.9 1.28 4.07 1.55 7.53 1.38 11.8 0.238 0.908 0.238 0.908 0.482 1.83 1.16 4.84 0.708 10 0.706 15 6.45e-4 1.22 0.00129 2.44 0.00195 3.7-0.0444 7.59-0.521 14.8-1.75 22.3-0.606 4.42-0.526 8.74-0.449 13.2 0.0284 11 0.0284 11-1.99 15 0.285 2.06 0.285 2.06 0.875 4.31 0.187 0.803 0.374 1.61 0.566 2.43 0.426 1.72 0.89 3.43 1.37 5.13 0.188 2.12 0.188 2.12-1.12 3.94-1.69 1.19-1.69 1.19-3.69 1.19 1.21 4.61 1.21 4.61 3 9-4.16-1.35-6.35-3.01-9.12-6.38-0.663-0.771-1.33-1.54-2.01-2.34-5.22-9.19-5.29-19.5-5.21-29.8 8.48e-4 -1.41 3.67e-4 -2.82-0.00133-4.23-8.53e-4 -3.79 0.0167-7.58 0.0377-11.4 0.0189-3.98 0.0205-7.95 0.0241-11.9 0.00929-7.51 0.0339-15 0.064-22.5 0.0337-8.56 0.0501-17.1 0.0651-25.7 0.0313-17.6 0.084-35.2 0.151-52.8z" fill="#07A20A"/>
<path transform="translate(246,363)" d="m0 0c2.31 0.33 4.62 0.66 7 1v3c4.73 0.601 9.11 1.03 13.9 0.75 2.24-0.0391 2.24-0.0391 4.12 0.25 2.1 2.42 3 3.78 3 7 2.31 0.33 4.62 0.66 7 1 0.495 1.98 0.495 1.98 1 4h2c0.495 2.48 0.495 2.48 1 5 1.49 0.495 1.49 0.495 3 1-0.33 2.97-0.66 5.94-1 9-2.75 0.917-4.36 1.11-7.19 1.06-1.26-0.0206-2.52-0.0412-3.81-0.0625-0.33 1.65-0.66 3.3-1 5-7.31-0.12-11.2-2.13-17.2-6.21-6.36-4.11-12.2-6.25-19.8-5.79-0.639-0.165-1.28-0.33-1.94-0.5-5.23-1.27-10.9-0.621-16.1 0.5-0.767 0.161-1.53 0.322-2.32 0.488-7.11 1.69-13.1 4.56-19.5 7.99-2.82 1.36-5.09 2.1-8.16 2.52-1.37-4.11-0.831-7.23 1-11.1 0.33-0.619 0.66-1.24 1-1.88 0.33-0.99 0.66-1.98 1-3 1.98-0.33 3.96-0.66 6-1v-2c0.99-0.66 1.98-1.32 3-2 0.724-2.06 0.724-2.06 1-4h2v-4c1.92-0.816 3.83-1.63 5.75-2.44 1.6-0.679 1.6-0.679 3.23-1.37 4.42-1.74 8.12-2.34 12.9-2.51 1.12-0.0419 2.23-0.0838 3.38-0.127 1.16-0.0393 2.32-0.0786 3.51-0.119 1.17-0.0432 2.35-0.0864 3.56-0.131 2.9-0.106 5.79-0.208 8.69-0.307v-1z" fill="#00A50E"/>
<path transform="translate(941,375)" d="m0 0c1.68 0.286 3.34 0.618 5 1-0.474 0.557-0.949 1.11-1.44 1.69-1.69 2.5-2.15 4.36-2.56 7.31-1.42 0.278-1.42 0.278-2.88 0.562-3.51 1.17-3.51 1.17-4.5 5.06-0.206 1.11-0.413 2.23-0.625 3.38-0.577 0.0206-1.15 0.0412-1.75 0.0625-3.55 1.48-4.72 4.59-6.25 7.94-0.492 1.37-0.972 2.75-1.44 4.12-1.4 4.01-3.37 6.11-6.56 8.88 0.33 0.99 0.66 1.98 1 3h-3c-0.33 1.32-0.66 2.64-1 4-0.598 0.0206-1.2 0.0412-1.81 0.0625-2.62 0.842-2.62 0.842-3.94 4.5-0.413 1.13-0.825 2.27-1.25 3.44h2c-0.309 0.598-0.619 1.2-0.938 1.81-1.16 2.28-1.16 2.28-2.06 5.19h-4c0.752 8.94 1.61 16.6 5.98 24.7 1.15 2.62 1.21 4.5 1.02 7.33 1.49 0.495 1.49 0.495 3 1 2.34 3.24 3.44 6.05 4 10 1.32 0.33 2.64 0.66 4 1v3h3c2.09 3.4 2.18 6.05 2 10h4v2h2c0.66 4.29 1.32 8.58 2 13 1.98 0.33 3.96 0.66 6 1v3c0.99-0.33 1.98-0.66 3-1 3 6.62 3 6.62 3 10 0.66 0.33 1.32 0.66 2 1 0.625 2.56 0.625 2.56 1 5-5.04-1.45-9.15-3.62-13.6-6.38-0.691-0.431-1.38-0.862-2.09-1.31-7.15-4.61-13.6-10.1-19.3-16.3v-2h-2c-13.6-16.2-21.9-38.9-21-60 0.728-8.12 2.08-16.2 4.36-24 0.324-1.11 0.324-1.11 0.655-2.25 0.985-1.75 0.985-1.75 3.09-2.5 0.626-0.0826 1.25-0.165 1.9-0.25v2h2v2h2c-0.66-1.32-1.32-2.64-2-4 2.88-0.625 2.88-0.625 6-1 0.66 0.66 1.32 1.32 2 2-0.33 0.33-0.66 0.66-1 1 4.71-4.06 6.71-8.28 9-14 0.33-0.66 0.66-1.32 1-2h2v-5c0.99-0.33 1.98-0.66 3-1 1.01-1.33 2.01-2.66 3-4h2c1.28-2.39 2.1-4.41 2.75-7.06 1.63-3.84 3.48-4.41 7.25-5.94 0.33-0.33 0.66-0.66 1-1z" fill="#07A20B"/>
<path transform="translate(225 353)" d="m0 0c1.25 0.102 2.49 0.204 3.77 0.309 1.41 0.126 1.41 0.126 2.85 0.254v1c-0.58 0.0374-1.16 0.0748-1.76 0.113-5.06 0.426-8.78 1.26-13.2 3.89v2c-0.784 0.248-1.57 0.495-2.38 0.75-2.75 0.954-2.75 0.954-3.44 3.19-1.74 3.03-4.18 3.41-7.41 4.45-1.78 0.469-1.78 0.469-2.78 1.61-1.67 0.0406-3.33 0.0427-5 0-0.33 0.66-0.66 1.32-1 2-0.99 0.33-1.98 0.66-3 1-0.33 0.66-0.66 1.32-1 2h-3v2c-1.98 0.66-3.96 1.32-6 2v2c-1.33 1.33-2.71 2.63-4.12 3.88-2.32 2.15-2.32 2.15-1.88 6.12-1.35 3.49-3.62 6.14-6 9-0.66-0.33-1.32-0.66-2-1 0.66-0.66 1.32-1.32 2-2v-3c0.33-0.66 0.66-1.32 1-2-0.433 0.433-0.866 0.866-1.31 1.31-1.69 1.69-1.69 1.69-3.31 3.06-1.78 2.11-1.85 3.94-2.38 6.62-1.56 2.31-1.56 2.31-3 4v-2h-3c0.33 0.99 0.66 1.98 1 3-0.618 1.36-1.3 2.69-2 4-0.741 2.24-1.45 4.49-2.12 6.75-0.53 1.76-0.53 1.76-1.07 3.55-0.266 0.892-0.531 1.78-0.805 2.7h-2v7c-1.49 0.495-1.49 0.495-3 1-0.33 0.99-0.66 1.98-1 3-0.33-1.32-0.66-2.64-1-4-0.99 0.495-0.99 0.495-2 1-0.109 2.69-0.188 5.37-0.25 8.06-0.0335 0.752-0.067 1.5-0.102 2.28-0.0998 5.76 1.23 8.83 4.35 13.7v2h2c0.254 1.09 0.508 2.17 0.77 3.29 0.347 1.45 0.695 2.89 1.04 4.34 0.166 0.713 0.331 1.43 0.502 2.16 1.07 4.39 2.3 8.33 4.69 12.2 1.11 0.454 2.23 0.908 3.38 1.38 4.8 2.15 6.65 4.82 8.62 9.62 0.628 3.01 0.922 5.93 1 9 0.784 0.0825 1.57 0.165 2.38 0.25 1.3 0.371 1.3 0.371 2.62 0.75 0.684 1.32 1.35 2.66 2 4 0.825 0.206 1.65 0.413 2.5 0.625 2.5 1.38 2.5 1.38 3.27 3.61 0.73 3.63 1.23 7.05 1.23 10.8-21.3-12.7-35.1-30.9-41.5-54.9-6-24.7-1.71-49.1 10.6-71 3.29-5.32 6.94-10.3 10.9-15.1 0.59-0.718 1.18-1.44 1.79-2.18 9.66-10.6 24.7-18.4 38.3-22.5 0.677-0.212 1.35-0.424 2.05-0.643 6.7-2.05 12.2-2.83 19.2-2.23z" fill="#049F09"/>
<path transform="translate(613,356)" d="m0 0c0.495 1.49 0.495 1.49 1 3-5.46 0.0975-10.6-0.228-16-1v-2c-0.99 0.33-1.98 0.66-3 1v-2c-2.59 0.256-5.17 0.529-7.75 0.812-0.73 0.0703-1.46 0.141-2.21 0.213-4.26 0.484-6.81 1.17-10 3.97-2.08 0.798-4.16 1.43-6.29 2.06-1.92 0.802-1.92 0.802-2.34 2.96-0.122 0.652-0.245 1.3-0.371 1.98-2.21 1.5-4 2-6.62 2.5-2.55 0.311-2.55 0.311-4.38 2.5v-2c-2.97 0.495-2.97 0.495-6 1v2c-4.38 3-4.38 3-7 3v3c-1.79 2.42-4.03 3.6-6.62 5-3.62 1.65-3.62 1.65-4.38 5h-2c-0.33-0.33-0.66-0.66-1-1-0.433 0.928-0.433 0.928-0.875 1.88-1.12 2.12-1.12 2.12-3.12 4.12-1.5 3.3-2.85 6.56-4 10-1.94 1.06-1.94 1.06-4 2-0.66 0.66-1.32 1.32-2 2-3.62-0.375-3.62-0.375-7-1-0.33 2.97-0.66 5.94-1 9h-3c-1.86 7.32-2.56 14.5-3 22h-2c0.33 0.99 0.66 1.98 1 3 0.0665 2.26-0.00144 4.49-0.0625 6.75 0.0627 2.26 0.514 4.07 1.06 6.25 0.259 3.14 0.442 6.27 0.621 9.42 0.125 0.852 0.25 1.7 0.379 2.58 0.66 0.33 1.32 0.66 2 1v9c1.32 0.33 2.64 0.66 4 1 2.44 2.65 3.86 4.57 5 8 0.99 0.33 1.98 0.66 3 1v2c1.13 0.557 2.27 1.11 3.44 1.69 3.43 1.93 3.43 1.93 4.5 5.06 0.0206 0.742 0.0412 1.48 0.0625 2.25 0.835 0.186 0.835 0.186 1.69 0.375 2.62 0.709 4.9 1.35 7.31 2.62 0.267 0.754 0.534 1.51 0.809 2.29 1.55 3.53 3.61 5.04 6.63 7.4 0.968 0.767 1.94 1.53 2.93 2.32 1.83 1.39 3.72 2.71 5.63 3.99 0.695 1.8 0.695 1.8 1.12 3.88 0.147 0.678 0.294 1.36 0.445 2.05 0.142 0.683 0.284 1.37 0.43 2.07 0.328 1.33 0.66 2.67 1 4-8.88-4.01-16.5-8.85-24-15-0.889-0.723-1.78-1.45-2.7-2.19-16-13.6-26-34.6-28.1-55.4-1.81-23.2 2.52-44.9 15.8-64.4 0.447-0.669 0.895-1.34 1.36-2.03 13.4-18.9 34.1-30.5 56.3-35.6 14.4-1.66 29.3-1.2 43.3 2.62z" fill="#049F09"/>
<path transform="translate(659,419)" d="m0 0c4.4 0.896 7.81 2.83 11 6 0.438 2.81 0.438 2.81 0 5l4 2c0.33-0.66 0.66-1.32 1-2v3h2c0.228 3.83 0.429 7.67 0.625 11.5 0.0645 1.08 0.129 2.16 0.195 3.27 0.305 6.26 0.0501 11.3-1.82 17.2-0.333 1.25-0.665 2.5-1.01 3.79-3.68 12.6-9.31 25.9-19 35.2-2 0.695-2 0.695-4 1-1.07 0.186-2.14 0.371-3.25 0.562-1.36 0.217-1.36 0.217-2.75 0.438 0.66-1.32 1.32-2.64 2-4-1.32-0.33-2.64-0.66-4-1l3-6h2v-5h-3v-2c-0.66-0.33-1.32-0.66-2-1 0.783-1.34 1.58-2.67 2.38-4 0.441-0.743 0.882-1.49 1.34-2.25 0.638-0.866 0.638-0.866 1.29-1.75h2c-0.0206-1.28-0.0412-2.56-0.0625-3.88-0.0531-3.29 0.2-6.47 0.57-9.74 0.684-6.51 0.511-13 0.365-19.5-0.0603-5.11 0.274-9.02 2.13-13.9-0.247-0.784-0.495-1.57-0.75-2.38-0.383-4.02 1.95-6.02 4.4-9.05 0.445-0.519 0.889-1.04 1.35-1.57z" fill="#00A50E"/>
<path transform="translate(563,504)" d="m0 0c6.9-0.511 11.7 1.13 18 4v2c5.94 0.66 11.9 1.32 18 2v2c3.47-0.458 6.67-0.891 10-2 0.99 0.33 1.98 0.66 3 1 0.155 1.14 0.155 1.14 0.312 2.31 0.738 2.89 1.31 3.95 3.69 5.69h3 6c0.495 1.49 0.495 1.49 1 3 0.66 0.33 1.32 0.66 2 1h-2c-0.495 1.49-0.495 1.49-1 3-1.95 0.967-1.95 0.967-4.48 1.79-0.917 0.302-1.83 0.603-2.78 0.914-0.966 0.304-1.93 0.608-2.93 0.922-0.947 0.312-1.89 0.624-2.87 0.945-15.5 5.01-36.8 6.87-51.9-0.57-2.33-3-3.32-5.36-3.5-9.12-0.52-4.03-0.686-4.41-3.5-6.88-0.688-2.69-0.688-2.69-1-5 1.32-0.33 2.64-0.66 4-1v6c0.0825-0.784 0.165-1.57 0.25-2.38 0.247-0.866 0.495-1.73 0.75-2.62 1.32-0.684 2.66-1.35 4-2 1.28-2.54 1.28-2.54 2-5z" fill="#03A910"/>
<path transform="translate(995,359)" d="m0 0c2.38 0.383 2.38 0.383 4.94 0.5 3.51 0.212 6.07 0.593 9.06 2.5 0.75 2.12 0.75 2.12 1 4 0.846-0.392 1.69-0.784 2.56-1.19 6.03-1.43 10.4 2.12 15.4 5.19 0.99 0.33 1.98 0.66 3 1v2c0.949 0.248 1.9 0.495 2.88 0.75 3.12 1.25 3.12 1.25 4.5 3.38 0.206 0.619 0.412 1.24 0.625 1.88h2c0.647 1.6 1.29 3.21 1.94 4.81 0.539 1.34 0.539 1.34 1.09 2.71 0.709 1.81 1.36 3.64 1.97 5.48 0.99-0.33 1.98-0.66 3-1 0.66 0.99 1.32 1.98 2 3-0.495 0.99-0.495 0.99-1 2 0.99-0.33 1.98-0.66 3-1 4.13 1.86 6.03 3.96 8 8 0.625 2.12 0.625 2.12 1 4 0.33 0.99 0.66 1.98 1 3 1.32-0.33 2.64-0.66 4-1 1.56 2.81 1.56 2.81 3 6-0.33 0.99-0.66 1.98-1 3-1.76-1.04-3.52-2.08-5.27-3.12-1.7-1.03-1.7-1.03-3.73-0.875 0.66 0.66 1.32 1.32 2 2-3.13 1.04-3.99 0.934-7 0v-2c-5.94 0.33-11.9 0.66-18 1-1.23 2.46-1.07 4.28-1 7-0.155-0.959-0.155-0.959-0.312-1.94-0.227-0.681-0.454-1.36-0.688-2.06-0.99-0.33-1.98-0.66-3-1-3-5.22-3-5.22-3-8h-2c-1.07-1.17-2.08-2.39-3.06-3.62-3.75-4.45-7.97-7.4-12.9-10.4 3.2-1.6 5.72-0.0317 9 1 0.66-0.99 1.32-1.98 2-3l2 1-1 2 2 1v-3c1.98-0.66 3.96-1.32 6-2 0.16-8.06 0.16-8.06-3.56-14.8-0.804-0.413-1.61-0.825-2.44-1.25-0.99 0.66-1.98 1.32-3 2-2.69-0.875-2.69-0.875-5-2v-4h-5v-2c-0.66 0.66-1.32 1.32-2 2-1.99 0.0469-1.99 0.0469-4.31-0.25-0.759-0.0877-1.52-0.175-2.3-0.266-2.39-0.484-2.39-0.484-4.66-1.44-4.26-1.64-8.7-2.18-13.2-2.9-1.86-0.32-3.7-0.725-5.53-1.14-0.33-0.66-0.66-1.32-1-2-0.99-0.66-1.98-1.32-3-2 1.97-1.97 5.35-1.66 8-2-2.97-0.495-2.97-0.495-6-1 0.33-0.66 0.66-1.32 1-2 5.77-1.51 11-1.34 16 2z" fill="#07A30B"/>
<path transform="translate(972 505)" d="m0 0c1.62 0.431 1.62 0.431 3.27 0.871 0.82 0.228 1.64 0.456 2.48 0.691v3c1.64 0.217 1.64 0.217 3.31 0.438 3.69 0.562 3.69 0.562 6.69 1.56 1.82 0.0927 3.63 0.182 5.45 0.24 16.4 0.559 16.4 0.559 21.6 5.76 0.33-0.66 0.66-1.32 1-2 0.413 0.454 0.825 0.908 1.25 1.38 2.65 2.46 5.34 3.49 8.75 4.62 0.938 1.81 0.938 1.81 1 4-3.29 4.34-7.47 5.55-12.4 7.19-1.13 0.39-1.13 0.39-2.28 0.787-5.66 1.93-10.8 3.15-16.8 3.16-1.04 0.00129-2.08 0.00258-3.15 0.00391-1.08-0.00387-2.15-0.00773-3.26-0.0117-1.07 0.00387-2.14 0.00773-3.25 0.0117-5.04-0.00624-9.86-0.0517-14.8-1.14v-2c-0.905-0.164-0.905-0.164-1.83-0.332-7.94-1.57-7.94-1.57-11.2-4.67 0.164-0.705 0.327-1.41 0.496-2.14 0.521-2.96 0.603-5.67 0.566-8.68-0.00902-0.976-0.018-1.95-0.0273-2.96-0.0116-0.736-0.0232-1.47-0.0352-2.23h3c-0.186-0.949-0.371-1.9-0.562-2.88-0.438-3.12-0.438-3.12 0.562-5.12 3.65-1.56 6.54-0.571 10.2 0.438z" fill="#03A910"/>
<path transform="translate(1213 366)" d="m0 0c0.82-0.0245 1.64-0.049 2.48-0.0742 5.83-0.0286 5.83-0.0286 8.56 1.88 1.49 4.02 1.31 7.89 1.2 12.1-0.00516 0.863-0.0103 1.73-0.0156 2.62-0.0445 3.58-0.0934 6.4-1.23 9.82-0.068 1.73-0.085 3.46-0.0625 5.19 0.00902 0.901 0.018 1.8 0.0273 2.73 0.0116 0.687 0.0232 1.37 0.0352 2.08-3.76-0.56-6.18-1.57-9.31-3.69-4.48-2.79-9.01-4.78-13.9-6.62-0.673-0.254-1.35-0.508-2.04-0.77-6.21-2.26-11.9-3.03-18.5-3.13-1.91-0.0425-1.91-0.0425-3.85-0.0859-2-0.0392-4-0.0783-6-0.104-1.95-0.0276-3.89-0.0746-5.84-0.122-1.16-0.0198-2.31-0.0396-3.5-0.0601-3.25-0.448-4.64-1.22-7.02-3.42 1.32-1.32 2.64-2.64 4-4-0.99-0.66-1.98-1.32-3-2 2.87-2.87 6.13-2.71 10-3h3v-5c0.976 0.0157 0.976 0.0157 1.97 0.0317 2.95 0.0416 5.89 0.0676 8.84 0.0933 1.54 0.0251 1.54 0.0251 3.1 0.0508 0.983 0.00645 1.97 0.0129 2.98 0.0195 0.906 0.0105 1.81 0.0209 2.75 0.0317 2.63-0.0654 2.63-0.0654 5.36-2.23v2c19.1-4.37 19.1-4.37 20-4.38z" fill="#03A910"/>
<path transform="translate(1156,503)" d="m0 0c5.65 0.496 9.78 1.64 15 4 1.66 0.357 3.33 0.687 5 1 2.11 0.51 4.21 1.03 6.31 1.56 1.07 0.269 2.14 0.539 3.24 0.816 1.21 0.307 1.21 0.307 2.45 0.621-0.33 0.99-0.66 1.98-1 3h5c-0.99-0.33-1.98-0.66-3-1 0.33-0.66 0.66-1.32 1-2 1.07 0.309 2.14 0.619 3.25 0.938 2.58 0.731 5.15 1.44 7.75 2.06v4c0.66 0.33 1.32 0.66 2 1 0.33-0.66 0.66-1.32 1-2 0.66 0.33 1.32 0.66 2 1-0.33 0.99-0.66 1.98-1 3h-6v2c0.675-0.0954 1.35-0.191 2.05-0.289 1.34-0.166 1.34-0.166 2.7-0.336 1.32-0.174 1.32-0.174 2.67-0.352 2.84-0.0258 4.24 0.402 6.58 1.98 0.75 2.12 0.75 2.12 1 4h-2v2c-2.39 0.816-4.79 1.63-7.19 2.44-1.01 0.345-1.01 0.345-2.04 0.697-14.1 4.75-31.7 4.96-45.8-0.135v-2c-0.619-0.124-1.24-0.247-1.88-0.375-2.12-0.625-2.12-0.625-4.12-2.62-0.379-2.71-0.379-2.71-0.562-5.94-0.197-3.31-0.387-5.91-1.44-9.06v-3l4-1c-0.66-1.32-1.32-2.64-2-4 1.65-0.33 3.3-0.66 5-1v-1z" fill="#03A910"/>
<path transform="translate(1415,458)" d="m0 0h2c0.33 0.99 0.66 1.98 1 3 0.351 0.969 0.701 1.94 1.06 2.94 0.938 3.06 0.938 3.06 0.938 7.06h2c0.625 1.88 0.625 1.88 1 4-0.66 0.66-1.32 1.32-2 2 0.99 0.33 1.98 0.66 3 1 0.66 0.99 1.32 1.98 2 3 1.21 0.433 1.21 0.433 2.44 0.875 2.56 1.12 2.56 1.12 4.06 3.75 0.495 0.784 0.99 1.57 1.5 2.38 1.67 0.0438 3.33 0.0397 5 0 0.721 0.594 1.44 1.19 2.18 1.8 3.28 2.56 6.63 3.94 10.5 5.32 0.71 0.259 1.42 0.517 2.15 0.784 12.3 4.36 22.8 5.39 35.4 1.75 2.7-0.641 5-0.777 7.76-0.656-0.33 0.99-0.66 1.98-1 3h2c0 4 0 4-1 6h-4v-2c-3.73 0.502-7.36 1.06-11 2-7.63 1.56-14 1.09-21.5-0.555-3.55-0.638-6.88-0.579-10.5-0.445-0.33 1.65-0.66 3.3-1 5-2.97 0.495-2.97 0.495-6 1 0.66 1.98 1.32 3.96 2 6h-2c0.66 1.98 1.32 3.96 2 6h2c-0.495 1.49-0.495 1.49-1 3 0.33 0.33 0.66 0.66 1 1 0.362 1.33 0.697 2.66 1 4-5.14-0.881-8.76-1.56-12.2-5.62-2.08-4.01-2.3-6.92-2.75-11.4-0.66-0.33-1.32-0.66-2-1-0.33-0.99-0.66-1.98-1-3-0.928-0.619-1.86-1.24-2.81-1.88-6.68-4.45-8.27-9.65-10.2-17.1h-2c-0.124-1.2-0.247-2.39-0.375-3.62-0.452-3.66-1.39-6.89-2.62-10.4-1.09-4.04-1.05-7.85-0.938-12 0.0741-2.06 0.0741-2.06-1.06-3.99h3c0.33-0.66 0.66-1.32 1-2 0.33-0.33 0.66-0.66 1-1z" fill="#00A50E"/>
<path transform="translate(1339 302)" d="m0 0c5.02 4.35 10.2 10.5 11 17.3 0.134 10.5 0.134 10.5-4.34 15.2-5.35 4.54-10.4 8.66-17.7 8.44-7.5-1.44-13.2-6.89-18-12.5-2.67-4.04-2.59-8.19-2.28-12.9 1.66-6.74 4.84-11.8 10.6-15.8 6.55-3.19 14.5-3.75 20.7 0.34z" fill="#00A50E"/>
<path transform="translate(317,425)" d="m0 0c0.33 0.99 0.66 1.98 1 3 0.503 0.469 1.01 0.938 1.52 1.42 1.86 1.99 1.92 3.14 2.1 5.83 0.231 2.95 0.535 5.76 1 8.69 0.375 3.06 0.375 3.06-0.625 5.06-0.0201 1.54 0.00764 3.08 0.0625 4.62 0.0337 4.72-0.646 8.88-2.06 13.4-0.268 0.917-0.536 1.83-0.812 2.78-2.25 7.27-5.32 13.7-9.19 20.2-1.49-0.99-1.49-0.99-3-2-0.598 0.474-1.2 0.949-1.81 1.44-2.19 1.56-2.19 1.56-5.19 2.56-0.66-0.33-1.32-0.66-2-1l-1 2c-0.99-0.33-1.98-0.66-3-1l-1 2c-0.332-4.64-0.425-7.69 1.94-11.8 2.91-5.21 4.09-12.4 2.55-18.2-0.7-2.97-0.319-5.65-0.0469-8.68 0.358-4.27 0.592-8.41 0.438-12.7-0.0624-5.4 0.913-11.2 4.56-15.3 4.98-4.32 8.48-4.99 14.6-2.36z" fill="#00A50E"/>
<path transform="translate(765,509)" d="m0 0c3.62-0.188 3.62-0.188 7 0-0.33 0.66-0.66 1.32-1 2-2.56 0.625-2.56 0.625-5 1v3c0.66-0.33 1.32-0.66 2-1 6.3-0.518 12.4 0.371 18.6 1.5 0.818 0.143 1.64 0.286 2.48 0.434 1.99 0.349 3.97 0.707 5.96 1.07v-2c-0.99-0.33-1.98-0.66-3-1v-1h13c-0.33 0.99-0.66 1.98-1 3 0.922 0.307 0.922 0.307 1.86 0.621l10.1 3.38c-0.33 0.66-0.66 1.32-1 2 3.14 0.786 5.97 1.03 9.19 0.938 3.81 0.0625 3.81 0.0625 5.81 2.06-3.55 4.43-7.71 5.57-12.9 7.19-0.799 0.26-1.6 0.519-2.42 0.787-20.7 6.65-42 2.88-62-4.53-3.12-1.73-4.69-3.44-6.6-6.44v-4h9c0.33-1.65 0.66-3.3 1-5 1.11-0.103 2.23-0.206 3.38-0.312 1.2-0.227 2.39-0.454 3.62-0.688 0.66-0.99 1.32-1.98 2-3z" fill="#03A910"/>
<path transform="translate(1207,357)" d="m0 0v2c-3.75-0.139-7.5-0.287-11.2-0.438-1.06-0.0393-2.13-0.0786-3.22-0.119-1.02-0.0419-2.05-0.0838-3.11-0.127-0.943-0.0367-1.89-0.0733-2.86-0.111-2.31-0.185-4.35-0.564-6.57-1.21v2h5v2c-1.83-0.0309-1.83-0.0309-3.69-0.0625-3.23-0.00574-6.16 0.275-9.31 1.06v1c-0.559 0.00258-1.12 0.00516-1.7 0.00781-7.06 0.34-12.6 2.63-18.9 5.62-3.39 1.38-3.39 1.38-7.18 1.91-3.4 0.142-3.4 0.142-5.4 2.97-0.598 0.825-1.2 1.65-1.81 2.5-1.33 0.352-2.66 0.688-4 1-0.309 0.66-0.619 1.32-0.938 2-0.526 0.99-0.526 0.99-1.06 2-2.56 0.625-2.56 0.625-5 1-0.33 0.66-0.66 1.32-1 2h-2c-0.33 2.31-0.66 4.62-1 7h-4c-1.21 1.81-2.38 3.64-3.5 5.5s-2.29 3.69-3.5 5.5h-2c-0.0825 0.577-0.165 1.15-0.25 1.75-0.985 2.96-2.33 4.31-4.75 6.25h-4v-3h4c-1.98-0.66-3.96-1.32-6-2-0.99 3.3-1.98 6.6-3 10h-1c-0.502-5.57 1.1-9.03 3.62-13.8 0.368-0.71 0.737-1.42 1.12-2.15 11.9-22.6 28.8-36.1 52.9-44.3 18.6-5.72 37-3.01 55.3 2.25z" fill="#049F09"/>
<path transform="translate(445,360)" d="m0 0c1.98 0.66 3.96 1.32 6 2 0.417 1.77 0.808 3.54 1.19 5.31 0.22 0.986 0.441 1.97 0.668 2.99 0.145 2.7 0.145 2.7-1.18 4.55-1.68 1.14-1.68 1.14-3.68 1.14-0.186 1.83-0.186 1.83-0.375 3.69-0.574 5.22-1.39 10.4-2.22 15.6-0.451 2.59-0.451 2.59-0.402 4.72 1.38 2.02 1.38 2.02 4 3 3.14-0.659 6.04-1.77 9-3 0.99 1.32 1.98 2.64 3 4-3.3 4.95-6.6 9.9-10 15-0.99-0.33-1.98-0.66-3-1 0.33-0.99 0.66-1.98 1-3-0.33 0.33-0.66 0.66-1 1-2.55 0.243-5.1 0.384-7.65 0.523-2.72 0.264-2.72 0.264-4.35 3.48-0.928-0.33-1.86-0.66-2.81-1-5-1.46-10-1.17-15.2-1v-2c-0.66-0.33-1.32-0.66-2-1l1-1c-0.99-0.33-1.98-0.66-3-1 0.597-4.14 2.97-7.1 5.31-10.4 4.85-7.08 9.13-14.4 13.3-21.9 3.95-7 8.06-13.9 12.3-20.7z" fill="#07A20B"/>
<path transform="translate(209,509)" d="m0 0c7.43-0.204 13.9-0.0244 21 2 2.99 0.428 5.99 0.735 9 1-0.33 1.32-0.66 2.64-1 4 1.26-0.0619 2.52-0.124 3.81-0.188 3.94-0.0208 3.94-0.0208 5.94 1.69 0.412 0.495 0.825 0.99 1.25 1.5h4v2h2v2h2c0.33-0.66 0.66-1.32 1-2 0.66 0.33 1.32 0.66 2 1 1.67 0.0397 3.33 0.0438 5 0-0.66-0.33-1.32-0.66-2-1v-2h6c0.99 2.97 0.99 2.97 2 6-3.54 4.41-7.66 5.57-12.9 7.19-0.79 0.26-1.58 0.519-2.39 0.787-8.06 2.59-15.5 3.23-23.9 3.28-1.47 0.0309-1.47 0.0309-2.96 0.0625-7.05 0.0373-13.2-1.13-19.8-3.31v-2c-0.639-0.227-1.28-0.454-1.94-0.688-2.06-1.31-2.06-1.31-2.72-3.44-0.416-3.48-0.2-6.69 0.0938-10.2 0.102-1.25 0.204-2.51 0.309-3.8 0.0838-0.953 0.168-1.91 0.254-2.89 1.91 3.21 2.22 5.54 2.12 9.25-0.018 0.892-0.0361 1.78-0.0547 2.7-0.0232 0.675-0.0464 1.35-0.0703 2.05 0.336-1.94 0.669-3.87 1-5.81 0.186-1.08 0.371-2.16 0.562-3.27 0.512-2.92 0.512-2.92 0.438-5.92z" fill="#03A910"/>
<path transform="translate(820,359)" d="m0 0v2c-0.643-0.121-1.29-0.242-1.95-0.367-24.9-5.86-24.9-5.86-48.4 0.0156-1.89 1.36-1.89 1.36-2.6 4.35-3.02 3.02-6.15 3.58-10.2 4.47-2.29 0.667-3.31 1.72-4.82 3.53-2.19 1.19-2.19 1.19-4 2v1h-5c0.155 1.14 0.155 1.14 0.312 2.31-0.103 0.887-0.206 1.77-0.312 2.69-2.33 1.81-4.13 2.87-7.06 3.31-3.31 1.17-4.28 3.71-5.94 6.69-0.828 2.32-1.42 4.59-2 7-0.66-0.33-1.32-0.66-2-1-0.392 1.05-0.784 2.1-1.19 3.19-1.59 3.75-3.86 6.01-6.81 8.81-1.19 2.05-1.19 2.05-2 4-0.66 0.99-1.32 1.98-2 3-0.33-1.98-0.66-3.96-1-6h-3c0.33-0.99 0.66-1.98 1-3l-2 1c-0.33 0.99-0.66 1.98-1 3h-2c-0.33 0.66-0.66 1.32-1 2 0.466-5.95 1.65-10.2 4.56-15.4 0.354-0.646 0.709-1.29 1.07-1.96 4.37-7.75 9.83-14.6 16.4-20.7 0.49-0.507 0.98-1.01 1.48-1.54 23.5-22.8 62.1-25.7 91.5-14.5z" fill="#049F09"/>
<path transform="translate(352,317)" d="m0 0h1v13h2c-0.0825 1.15-0.165 2.31-0.25 3.5-0.0352 5.52 1.36 10.5 2.83 15.8 1 3.65 1.66 6.88 1.42 10.7h-2v14c0.99 0.33 1.98 0.66 3 1 0.349 9.99 0.349 9.99-2 15 0.33 0.66 0.66 1.32 1 2-0.445 0.797-0.445 0.797-0.898 1.61-1.59 3.44-1.57 6.91-1.73 10.6-0.0387 0.745-0.0773 1.49-0.117 2.26-0.0939 1.83-0.177 3.66-0.258 5.49h-2v4c2.71-1.35 2.96-2.81 4.12-5.56 0.353-0.826 0.706-1.65 1.07-2.5 0.266-0.638 0.531-1.28 0.805-1.93 1.33 3.99 0.192 5.99-1 10-0.476 2.63-0.807 5.28-1.12 7.94-0.0864 0.684-0.173 1.37-0.262 2.07-0.209 1.66-0.412 3.33-0.613 4.99-1.98 0.495-1.98 0.495-4 1v-6h-2c0.33 1.65 0.66 3.3 1 5-1.49 0.495-1.49 0.495-3 1v7h-1c-0.0936-14.6-0.164-29.2-0.207-43.7-0.0206-6.77-0.0486-13.5-0.0945-20.3-0.0443-6.54-0.0674-13.1-0.0778-19.6-0.00738-2.49-0.0218-4.98-0.0434-7.47-0.0291-3.49-0.033-6.99-0.0312-10.5-0.0144-1.02-0.0288-2.05-0.0436-3.1 0.0378-6.62 1.32-11.5 4.5-17.3z" fill="#07A30B"/>
<path transform="translate(467,467)" d="m0 0c0.33 2.64 0.66 5.28 1 8h3c-0.33-1.32-0.66-2.64-1-4 0.99 0.33 1.98 0.66 3 1 0.33 0.99 0.66 1.98 1 3 0.66 0.33 1.32 0.66 2 1 0.33-1.32 0.66-2.64 1-4 1 1 1 1 1.11 4.33-1.59e-4 1.48-0.00585 2.95-0.0159 4.43-0.00141 0.775-0.00283 1.55-0.00429 2.35-0.00562 2.49-0.0182 4.97-0.0309 7.46-0.00501 1.68-0.00958 3.36-0.0137 5.04-0.011 4.13-0.0283 8.26-0.0488 12.4h-2v6h-1c-0.33 1.98-0.66 3.96-1 6-1.65-0.33-3.3-0.66-5-1-0.33 2.97-0.66 5.94-1 9h-5c-0.33-0.66-0.66-1.32-1-2 0.99-0.495 0.99-0.495 2-1v-12c-1.3 1.07-1.3 1.07-1.06 3.56 0.0206 0.804 0.0412 1.61 0.0625 2.44-0.66-0.33-1.32-0.66-2-1-1.29-7.41-1.29-7.41 0-10-0.433-2.59-0.433-2.59-1.25-5.44-0.253-0.968-0.505-1.94-0.766-2.93-1.02-2.71-1.98-3.65-3.98-5.63-2.34-7.17-3.36-15.1 0-22 0.33 0.99 0.66 1.98 1 3 1.05-1.96 1.05-1.96 1.62-4 2.07-3.01 5.72-4 9.38-4z" fill="#03A910"/>
<path transform="translate(1312,385)" d="m0 0c2.83 2.83 3.11 5.22 3.14 9.05 0.0193 0.78 0.0387 1.56 0.0586 2.36 0.0337 1.63 0.0521 3.26 0.0547 4.89 0.137 4.38 0.217 6.1 3.24 9.48 0.826 0.731 1.65 1.46 2.5 2.21 0.707 2.25 0.707 2.25 0.812 4.56 0.0464 0.855 0.0928 1.71 0.141 2.59 0.0815 4.95 0.123 9.9 0.0469 14.8h-2v34c0.33-4.29 0.66-8.58 1-13h1c0.0539 2.94 0.0936 5.87 0.125 8.81 0.0251 1.25 0.0251 1.25 0.0508 2.53 0.00645 0.802 0.0129 1.6 0.0195 2.43 0.0105 0.738 0.0209 1.48 0.0317 2.24-0.227 1.99-0.227 1.99-2.23 4.99h-2c-1 3.58-1 3.58 0 7 0.0947 1.36 0.131 2.73 0.133 4.1 0.00129 0.801 0.00258 1.6 0.00391 2.43-0.00387 0.837-0.00773 1.67-0.0117 2.54 0.00387 0.841 0.00773 1.68 0.0117 2.55-0.0101 6.26-0.0101 6.26-1.14 7.39-0.446 5.02-0.35 9.45 2 14h-2c-5.65-8.86-6.3-17.2-6.24-27.6-0.0019-1.12-0.0038-2.24-0.00575-3.4-0.00368-3.68 0.00696-7.36 0.0182-11 0.00119-2.56 0.00164-5.13 0.00139-7.69 0.00156-5.36 0.00957-10.7 0.0233-16.1 0.0158-6.2 0.021-12.4 0.0203-18.6-6.09e-4 -5.97 0.00459-11.9 0.0128-17.9 0.00319-2.54 0.00516-5.08 0.00589-7.62 0.00216-3.53 0.0109-7.07 0.0216-10.6-4.53e-4 -1.06-9.06e-4 -2.12-0.00137-3.2 0.00426-0.956 0.00853-1.91 0.0129-2.9 0.00168-0.835 0.00335-1.67 0.00508-2.53 0.129-1.89 0.129-1.89 1.13-2.89z" fill="#049F09"/>
<path transform="translate(1233,394)" d="m0 0h1c0.748 7.03 1.14 13.9 1 21 2.31 0.33 4.62 0.66 7 1 1.63 5 2.24 9.15 2.2 14.5-0.00283 0.678-0.00566 1.36-0.00858 2.06-0.0111 2.14-0.0362 4.28-0.0617 6.42-0.01 1.46-0.0192 2.92-0.0273 4.38-0.0219 3.56-0.0563 7.12-0.0977 10.7h-1c-0.33 1.98-0.66 3.96-1 6h-2c0.0322 0.724 0.0645 1.45 0.0977 2.2-0.0925 7.71-0.0925 7.71-2.99 10.9-4.24 2.92-6.95 4.05-12.1 3.93-1.81 1.4-1.81 1.4-3 3 0.423-5.22 2.41-9.23 4.75-13.8 3.15-7.97 3.6-16.3 3.85-24.8 0.0588-1.61 0.0588-1.61 0.119-3.26 0.123-3.4 0.235-6.81 0.346-10.2 0.116-3.41 0.235-6.81 0.357-10.2 0.0752-2.11 0.147-4.22 0.214-6.33 0.202-5.84 0.644-11.6 1.37-17.4z" fill="#049F09"/>
<path transform="translate(1339 356)" d="m0 0c5.11-0.171 5.11-0.171 7.12 0.16 2.49 3.74 2.25 6.63 2.2 10.9-0.00283 0.773-0.00566 1.55-0.00858 2.34-0.0112 2.47-0.0363 4.93-0.0617 7.4-0.01 1.67-0.0192 3.35-0.0273 5.02-0.022 4.1-0.0566 8.2-0.0977 12.3h-11c-0.268-1.09-0.536-2.19-0.812-3.31-1.11-3.44-1.56-4.5-4.19-6.69-2.59-3.89-2.41-6.93-2.66-11.5-0.111-2.67-0.111-2.67-2.34-4.5-0.33 0.66-0.66 1.32-1 2-2.25-2.43-2.97-3.72-3.31-7.06 0.312-2.94 0.312-2.94 2.31-5.94 4.52-1.03 9.26-0.903 13.9-1.16z" fill="#03A910"/>
<path transform="translate(722,485)" d="m0 0c0.33 0.66 0.66 1.32 1 2 0.99-0.66 1.98-1.32 3-2v2h2c0.33-0.66 0.66-1.32 1-2 2.18 5.89 3.61 11.4 4.19 17.7 0.121 1.23 0.121 1.23 0.244 2.49 1.1 12.9 0.737 25.9 0.569 38.8h-3v2h-2c-0.66-3.96-1.32-7.92-2-12-1.32-0.33-2.64-0.66-4-1-0.124-0.804-0.247-1.61-0.375-2.44-0.206-0.846-0.413-1.69-0.625-2.56-0.66-0.33-1.32-0.66-2-1 0.66-1.32 1.32-2.64 2-4-1.32-0.33-2.64-0.66-4-1-0.33-7.26-0.66-14.5-1-22h1c0.133 0.638 0.266 1.28 0.402 1.93 0.177 0.826 0.353 1.65 0.535 2.5 0.261 1.24 0.261 1.24 0.527 2.5 0.343 2.04 0.343 2.04 1.54 3.07 0.0721 1.69 0.0839 3.38 0.0625 5.06-0.00902 0.919-0.018 1.84-0.0273 2.79-0.0116 0.71-0.0232 1.42-0.0352 2.15h2c-0.31-1.77-0.623-3.54-0.938-5.31-0.174-0.986-0.348-1.97-0.527-2.99-0.493-2.78-0.493-2.78-1.54-5.7-0.068-1.73-0.085-3.46-0.0625-5.19 0.00902-0.901 0.018-1.8 0.0273-2.73 0.0116-0.687 0.0232-1.37 0.0352-2.08h-2c-1.4-2.8-1.25-4.9-1-8 1.63-2.23 2.2-3 5-3z" fill="#03A910"/>
<path transform="translate(1092,421)" d="m0 0c1.27 2.54 0.716 3.32 0 6-0.0569 3.55-0.0225 7.08 0.0391 10.6 0.0451 4.25-0.188 8.18-1.04 12.4 0.99 0.33 1.98 0.66 3 1 1.22 3.46 2 6.33 2 10 0.66 0.33 1.32 0.66 2 1 0.407 2.32 0.744 4.66 1 7h2c0.196 0.715 0.392 1.43 0.594 2.17 2.58 8.61 6.46 15.4 11.4 22.8 0.99-0.495 0.99-0.495 2-1v5c1.48-0.495 1.48-0.495 3-1 2.06 0.625 2.06 0.625 4 2 1.19 2.5 1.19 2.5 2 5 0.33 0.66 0.66 1.32 1 2h3c2.22 2.22 2.96 3.47 3.19 6.62-0.0928 1.18-0.0928 1.18-0.188 2.38-0.229 2.3-0.229 2.3 2.25 4.38 0.908 0.866 1.82 1.73 2.75 2.62 1.33 1.33 2.67 2.67 4 4-19-6.87-32.9-22.9-41.8-40.5-7.53-17.4-13.3-40.5-9.22-59.5h2c0.33-1.65 0.66-3.3 1-5z" fill="#049F09"/>
<path transform="translate(68,312)" d="m0 0v17c-2.31-0.33-4.62-0.66-7-1-2.68-0.108-5.32-0.0471-8 0-0.124 0.928-0.124 0.928-0.25 1.88-0.75 2.12-0.75 2.12-2.56 3.38-2.19 0.75-2.19 0.75-6.19 0.75v4c-0.639 0.289-1.28 0.577-1.94 0.875-2.21 0.953-2.21 0.953-3.06 3.12h-4c0.0722 0.799 0.144 1.6 0.219 2.42 0.957 11.3 1.03 22.3-0.219 33.6-0.33-1.32-0.66-2.64-1-4h-2c-0.0293-4.31-0.0469-8.62-0.0625-12.9-0.00838-1.21-0.0168-2.42-0.0254-3.67-0.0344-12.7 0.322-23.3 8.84-33.5 5.22-4.93 19.9-15.6 27.2-11.9z" fill="#049F09"/>
<path transform="translate(33,452)" d="m0 0c1.68 2.96 2.3 5.28 2.53 8.67 0.0703 0.894 0.141 1.79 0.213 2.71 0.13 1.85 0.258 3.71 0.383 5.56 0.429 5.4 1.31 10.1 3.24 15.2 0.793 2.35 0.875 4.43 0.637 6.89h2c0.33-1.32 0.66-2.64 1-4 2 1 2 1 3.12 3.38 0.875 2.62 0.875 2.62 0.875 5.62h2c0.289 0.949 0.578 1.9 0.875 2.88 0.893 3.18 0.893 3.18 3.12 5.12 2 3 2 3 3 6 0.804 0.588 0.804 0.588 1.62 1.19 1.38 1.81 1.38 1.81 1.31 3.68-0.205 1.4-0.442 2.81-0.711 4.2-0.391 2.15-0.391 2.15 0.773 4.94h2c-0.33 0.66-0.66 1.32-1 2-12.7-7.58-20.6-14.7-25-29.3-2.8-11.9-3.06-24-3.12-36.1-0.00475-0.74-0.00951-1.48-0.0144-2.24 0.0166-5.2 0.0166-5.2 1.14-6.32z" fill="#049F09"/>
<path transform="translate(893,455)" d="m0 0c3.63 5.45 5.6 11.9 7.06 18.3 0.91 3.58 2.26 6.42 3.94 9.69v3l2-1c-0.33-0.66-0.66-1.32-1-2 0.835 0.433 0.835 0.433 1.69 0.875 2.4 1.17 4.83 2.16 7.31 3.12-0.33 0.66-0.66 1.32-1 2l1 1c0.685 1.32 1.35 2.66 2 4 0.351 0.681 0.701 1.36 1.06 2.06 0.938 1.94 0.938 1.94 1.94 4.94 1.49-0.495 1.49-0.495 3-1 3.19 0.938 3.19 0.938 6 2v2c0.99 0.33 1.98 0.66 3 1 0.66 0.99 1.32 1.98 2 3 3.56 1.22 3.56 1.22 7 2v3c0.99-0.33 1.98-0.66 3-1 3 6.62 3 6.62 3 10 0.99 0.495 0.99 0.495 2 1 0.625 2.56 0.625 2.56 1 5-5.04-1.45-9.15-3.62-13.6-6.38-0.691-0.431-1.38-0.862-2.09-1.31-7.15-4.61-13.6-10.1-19.3-16.3v-2h-2c-10.7-12.7-17.2-28.7-20-45 0.33-0.66 0.66-1.32 1-2z" fill="#049F09"/>
<path transform="translate(171,421)" d="m0 0h3v2h2v-2h2c2.11 6.43 1.88 10.6 0 17-0.338 1.33-0.672 2.67-1 4-4.72 0.652-9.22 1.12-14 1v3.81 7.19c0.825 0.495 1.65 0.99 2.5 1.5 0.825 0.495 1.65 0.99 2.5 1.5v3h3v8c-3.47 0.495-3.47 0.495-7 1 0.66 1.32 1.32 2.64 2 4-1.88-0.25-1.88-0.25-4-1-1.74-2.8-2.3-5.18-2.56-8.44-0.221-2.39-0.456-4.65-0.938-7-1.19-6.1-1.66-12.4-1.5-18.6h3v4c0.66-1.65 1.32-3.3 2-5h3c0.33-2.64 0.66-5.28 1-8h2c0.124-0.577 0.248-1.15 0.375-1.75 0.631-2.27 1.51-4.18 2.62-6.25z" fill="#00A50E"/>
<path transform="translate(937,422)" d="m0 0c12-0.0232 24.1-0.0409 36.1-0.0518 5.59-0.00522 11.2-0.0123 16.8-0.0236 5.39-0.0109 10.8-0.0168 16.2-0.0194 2.06-0.00185 4.12-0.00546 6.18-0.0109 2.88-0.00726 5.76-0.00826 8.65-0.0078 0.852-0.0036 1.7-0.00719 2.58-0.0109 3.98 0.00693 7.64 0.133 11.5 1.12-0.33 0.66-0.66 1.32-1 2-1.21 0.049-2.42 0.098-3.66 0.148-7.49 0.333-14.9 0.664-22.3 1.91-8.97 1.44-18 1.1-27.1 0.938v2h20v2c-7.44 2.09-15.7 1.35-23-1-0.495-0.99-0.495-0.99-1-2-8.08-4.43-19.7-3.27-28.7-3.61-0.889-0.0374-1.78-0.0748-2.7-0.113-1.19-0.0454-1.19-0.0454-2.41-0.0918-2.17-0.185-4.13-0.599-6.22-1.19v-2z" fill="#049F09"/>
<path transform="translate(380,305)" d="m0 0h2c-0.00524 0.565-0.0105 1.13-0.0159 1.71-0.0208 2.55-0.0338 5.11-0.0466 7.66-0.00838 0.889-0.0168 1.78-0.0254 2.7-0.00322 0.851-0.00645 1.7-0.00977 2.58-0.00524 0.786-0.0105 1.57-0.0159 2.38-0.0122 2.05-0.0122 2.05 1.11 3.97 0.0981 2.68 0.139 5.32 0.125 8 0.00387 0.737 0.00773 1.47 0.0117 2.23-0.0101 5.51-0.0101 5.51-1.14 7.77-0.0856 2.18-0.107 4.36-0.0977 6.54 0.00322 1.3 0.00645 2.6 0.00977 3.95 0.00836 1.38 0.0168 2.76 0.0254 4.14 0.00501 1.39 0.00958 2.78 0.0137 4.16 0.0118 3.4 0.0283 6.81 0.0488 10.2h-2c-0.506-2.56-1-5.12-1.5-7.69-0.143-0.721-0.286-1.44-0.434-2.19-0.722-3.77-1.25-7.27-1.07-11.1h-2v-2h-2v-3h-2c-1.61-3.23-1.51-6.76-1.75-10.3-0.0683-0.76-0.137-1.52-0.207-2.3-0.315-4.65-0.216-7.66 2.96-11.4 2.69-0.312 2.69-0.312 5 0-0.0116-0.615-0.0232-1.23-0.0352-1.86-0.00902-0.808-0.018-1.62-0.0273-2.45-0.0116-0.801-0.0232-1.6-0.0352-2.43 0.0977-2.26 0.0977-2.26 1.1-5.26h2v-6z" fill="#03A910"/>
<path transform="translate(1030 475)" d="m0 0c5.88 1.47 10.1 5.17 14.8 8.94-0.33 0.99-0.66 1.98-1 3l-4-1c-0.33 1.65-0.66 3.3-1 5-0.99-0.33-1.98-0.66-3-1-0.33 1.32-0.66 2.64-1 4-1.65 0.33-3.3 0.66-5 1v-2c-0.99 0.66-1.98 1.32-3 2h-3v2c3.34 0.0743 5.8 0.0655 9-1v2h-2v2c-4.19 0.0821-7.91-0.181-12-1l-2 1v-3c-0.99-0.33-1.98-0.66-3-1 0.33-0.99 0.66-1.98 1-3h-3c0-3 0-3 1.5-4.58 0.679-0.552 1.36-1.1 2.06-1.67 2.92-2.41 5.48-4.87 8-7.69 2.39-2.36 3.35-3.04 6.69-4z" fill="#07A30B"/>
<path transform="translate(1267,277)" d="m0 0c1 1 1 1 1.1 3.94-0.0116 1.19-0.0232 2.39-0.0352 3.62-0.00902 1.2-0.018 2.4-0.0273 3.63-0.0116 0.927-0.0232 1.85-0.0352 2.81-3.3-0.33-6.6-0.66-10-1 0.33-0.99 0.66-1.98 1-3-0.66-0.99-1.32-1.98-2-3h-4c-0.687 2.49-1 4.38-1 7-0.333 2.82-0.747 3.77-2.89 5.7-0.779 0.51-1.56 1.02-2.36 1.55-0.768 0.521-1.54 1.04-2.33 1.58-2.7 1.31-4.46 1.4-7.42 1.17 0.0412 1.07 0.0825 2.14 0.125 3.25-0.122 3.67-0.535 4.66-2.12 7.75-0.469 2.66-0.731 5.31-1 8h-1c-1.32-11.1-1.51-19.5 5.12-28.8 6.81-8.08 18-15.1 28.9-14.2z" fill="#049F09"/>
<path transform="translate(698,467)" d="m0 0h1c0.803 13 1.08 25.9 1.03 38.9-0.00268 0.747-0.00537 1.49-0.00813 2.26-0.0262 7-0.0648 14-0.115 21-0.198 22-0.198 22 0.912 44 0.0698 0.885 0.14 1.77 0.212 2.68 0.558 5.72 1.97 10.8 3.97 16.2 0.33 0.99 0.66 1.98 1 3h-2c-1.25-1.61-1.25-1.61-2.56-3.75-0.652-1.04-0.652-1.04-1.32-2.11-2.29-4.37-2.41-8.9-2.68-13.8-0.0421-0.749-0.0842-1.5-0.128-2.27-0.439-8.45-0.463-16.9-0.451-25.4-6.77e-4 -1.7-0.00165-3.4-0.0029-5.1-0.00146-3.53 6.22e-4 -7.07 0.00534-10.6 0.00568-4.47 0.00233-8.94-0.00345-13.4-0.0386-35.4-0.0386-35.4 1.13-51.7z" fill="#049F09"/>
<path transform="translate(1347,403)" d="m0 0h1c0.0233 16.4 0.041 32.8 0.0518 49.1 0.00516 7.6 0.0122 15.2 0.0236 22.8 0.00996 6.63 0.0164 13.3 0.0186 19.9 0.00131 3.51 0.00438 7.02 0.0116 10.5 0.00804 3.91 0.00826 7.83 0.0078 11.7 0.0036 1.17 0.00719 2.33 0.0109 3.54-0.00137 1.06-0.00275 2.13-0.00417 3.23 9.22e-4 0.926 0.00184 1.85 0.00279 2.81-0.123 2.34-0.123 2.34-1.12 5.34h-7c0.99-0.99 0.99-0.99 2-2h3c1.04-6.84 1.15-13.5 1.12-20.4 0.00387-1.08 0.00773-2.16 0.0117-3.28-0.00193-1.59-0.00193-1.59-0.00391-3.22-0.00169-1.42-0.00169-1.42-0.00342-2.88-0.0993-2.45-0.314-4.75-0.627-7.17-0.753-6.46-0.665-12.9-0.67-19.4-0.00322-1.4-0.00659-2.79-0.0101-4.19-0.00596-2.92-0.00784-5.84-0.00725-8.77 8.08e-5 -2.95-0.00679-5.91-0.0205-8.86-0.075-16.4 0.0236-32.5 2.21-48.8z" fill="#06A10A"/>
<path transform="translate(440,471)" d="m0 0c1.67 2.96 2.32 5.32 2.6 8.7 0.0793 0.88 0.159 1.76 0.24 2.67 0.0741 0.911 0.148 1.82 0.225 2.76 0.154 1.82 0.311 3.63 0.473 5.45 0.0987 1.2 0.0987 1.2 0.199 2.43 0.164 2.07 0.164 2.07 1.27 4 1.3 0.467 2.61 0.876 3.94 1.25 3.87 1.36 3.87 1.36 5.56 4.75 0.749 4.49 0.176 6.86-1.5 11-0.933 3.48-0.965 5.57 0 9-6.86-4.85-9.57-10-12-18-0.833-5.16-1.14-10.3-1.38-15.5-0.0802-1.36-0.162-2.71-0.246-4.07-0.587-10.7-0.587-10.7 0.621-14.4z" fill="#07A20B"/>
<path transform="translate(623,401)" d="m0 0c4.22 1.56 6.53 4.72 9.25 8.12 0.688 0.845 0.688 0.845 1.39 1.71 1.13 1.38 2.24 2.78 3.36 4.17 0.99-0.33 1.98-0.66 3-1 0.103 0.804 0.206 1.61 0.312 2.44 0.966 5 2.4 9.99 4.69 14.6 0.145 3.92-0.0572 7.23-1 11 0.0412 0.99 0.0825 1.98 0.125 3 0.0879 4.54-1.23 8.7-2.4 13.1-0.624 2.54-0.997 4.91-1.22 7.51-0.529 3.64-0.838 4.2-3.5 6.44-1.19 2.6-1.19 2.6-2 5h-2l-1 2c0.506-4.81 2.03-8.76 3.96-13.1 5.38-14.8 4.69-32.2-0.965-46.9-3.18-6.54-7.51-12.3-12-18z" fill="#049F09"/>
<path transform="translate(276,411)" d="m0 0c10.7 8.89 10.9 24.2 12.2 37.1 0.0962 0.941 0.192 1.88 0.292 2.85 0.083 0.885 0.166 1.77 0.251 2.68 0.0763 0.799 0.153 1.6 0.231 2.42 0.0383 1.98 0.0383 1.98-0.962 3.98h2c0.33-1.32 0.66-2.64 1-4 1.33 4.47 1.08 8.49 0 13-2.06 3.06-2.06 3.06-4 5v-3c-0.33-0.33-0.66-0.66-1-1h-3c-1.47 1.77-1.47 1.77-2.69 4-0.437 0.743-0.874 1.49-1.32 2.25-0.326 0.577-0.652 1.15-0.988 1.75-1.58-3.96-0.309-6.33 1.31-10.1 6.2-15.4 6.56-31.5 0.375-47.2-0.867-1.88-1.76-3.75-2.7-5.6-0.988-2.07-0.988-2.07-0.988-4.07z" fill="#049F09"/>
<path transform="translate(631,366)" d="m0 0c10.9 1.57 20.9 13.4 27.4 21.9 12.6 17.3 12.6 17.3 12.6 24.1-1.32-0.66-2.64-1.32-4-2v-2c-0.577-0.227-1.15-0.454-1.75-0.688-2.89-1.69-4.4-3.54-6.25-6.31v-4h-2v-2l-2-1c-3.29-2.97-4.98-4.76-6-9-1.98-1.28-1.98-1.28-4-2v-6c-0.784-0.144-1.57-0.289-2.38-0.438-2.62-0.562-2.62-0.562-4.62-1.56-0.0825-0.598-0.165-1.2-0.25-1.81-1.16-3.38-3.8-4.37-6.75-6.19v-1z" fill="#049F09"/>
<path transform="translate(826,403)" d="m0 0c6.15 3.17 9.62 7.59 12 14l2 1c0.616 2.64 1.12 5.21 1.56 7.88 0.934 5.63 0.934 5.63 2.44 11.1 0.689 13.5 0.689 13.5-1 19.2-1.32 4.96-1.17 9.65-1 14.8-0.634 0.286-1.27 0.572-1.92 0.867-2.49 1.36-3.04 2.54-4.08 5.13h-2c0.569-4.09 1.57-7.54 3.06-11.4 4.58-14.5 3.91-33.8-2.46-47.7-2.46-4.72-5.18-8.88-8.61-13v-2z" fill="#049F09"/>
<path transform="translate(1207,357)" d="m0 0v2c-3.75-0.139-7.5-0.287-11.2-0.438-1.06-0.0393-2.13-0.0786-3.22-0.119-1.54-0.0628-1.54-0.0628-3.11-0.127-0.943-0.0367-1.89-0.0733-2.86-0.111-2.31-0.185-4.35-0.564-6.57-1.21v2h5v2c-1.83-0.0309-1.83-0.0309-3.69-0.0625-3.23-0.00574-6.16 0.275-9.31 1.06v1c-3.63 0.33-7.26 0.66-11 1-1-2-1-2-0.75-4 0.75-2 0.75-2 3.75-4 1.66-0.385 3.32-0.728 5-1v-1c13.5-1.02 24.9-0.96 38 3z" fill="#07A20A"/>
<path transform="translate(941,424)" d="m0 0h93v1c-1.21 0.049-2.42 0.098-3.66 0.148-7.49 0.333-14.9 0.664-22.3 1.91-8.97 1.44-18 1.1-27.1 0.938v2h20v2c-7.44 2.09-15.7 1.35-23-1-0.495-0.99-0.495-0.99-1-2-7.44-4.08-17.9-3.21-26.1-3.56-0.956-0.0432-1.91-0.0864-2.9-0.131-2.33-0.105-4.65-0.207-6.98-0.307v-1z" fill="#08A30B"/>
<path transform="translate(381,277)" d="m0 0v16h-6l-2-2c-2.32-0.4-4.66-0.74-7-1 0.33-0.99 0.66-1.98 1-3-2.31-0.33-4.62-0.66-7-1v-2c1.91-0.984 3.83-1.96 5.75-2.94 1.07-0.545 2.13-1.09 3.23-1.65 4.51-2.11 6.91-2.41 12-2.41z" fill="#049F09"/>
<path transform="translate(348,440)" d="m0 0h1c0.33 2.97 0.66 5.94 1 9h1v9h-2c0.58 12.7 1.22 25.3 2 38 1.49-0.495 1.49-0.495 3-1 0.389 1.45 0.761 2.91 1.12 4.38 0.209 0.812 0.418 1.62 0.633 2.46 0.0799 0.714 0.16 1.43 0.242 2.16-0.99 0.99-0.99 0.99-2 2-0.33-0.99-0.66-1.98-1-3-0.0823 3.04 0.0239 5.07 1 8h3c0.125 3.38 0.125 3.38 0 7-0.99 0.99-0.99 0.99-2 2-8.57-9.38-7.15-24.7-7.1-36.4 0.00141-1.25 0.00283-2.5 0.00429-3.79 0.00462-3.29 0.0136-6.58 0.0247-9.87 0.0103-3.37 0.0148-6.74 0.0198-10.1 0.011-6.59 0.0277-13.2 0.0488-19.8z" fill="#07A30B"/>
<path transform="translate(1334,318)" d="m0 0c6.62-0.25 6.62-0.25 10 2 0.78 6.91 0.78 6.91-1.75 10.4-3.76 2.61-6.76 2.67-11.2 2.56h-4c-1.88-2.19-1.88-2.19-3-5 0.812-2.81 0.812-2.81 2-5 0.33 1.32 0.66 2.64 1 4h2c-0.33-1.32-0.66-2.64-1-4 1.42-0.464 1.42-0.464 2.88-0.938 2.99-0.936 2.99-0.936 5.12-2.06-0.66-0.66-1.32-1.32-2-2z" fill="#03A910"/>
<path transform="translate(533,436)" d="m0 0h1c-0.0348 1.1-0.0696 2.2-0.105 3.33-0.194 8.71 0.00813 16.4 3.11 24.7l1.17 3.12c2.14 5.4 4.4 10.2 7.83 14.9 1.01 1.66 2.01 3.32 3 5-3.47-0.495-3.47-0.495-7-1-0.227-0.681-0.454-1.36-0.688-2.06-1.23-3.08-1.23-3.08-3.62-5.81-6.05-8.25-9.08-20-7.69-30.1 0.33-0.33 0.66-0.66 1-1 0.208-1.66 0.367-3.33 0.5-5 0.389-4.89 0.389-4.89 1.5-6z" fill="#07A20A"/>
<path transform="translate(76,495)" d="m0 0c0.775 0.158 1.55 0.317 2.35 0.48 4.7 0.669 9.34 0.753 14.1 0.836 1.49 0.0312 1.49 0.0312 3 0.063 3.15 0.0651 6.3 0.124 9.44 0.183 2.14 0.0432 4.28 0.0868 6.42 0.131 5.23 0.107 10.5 0.209 15.7 0.307 0.495 1.98 0.495 1.98 1 4h-2v-2c-4.44 0.11-8.88 0.24-13.3 0.375-1.89 0.0464-1.89 0.0464-3.83 0.0938-1.81 0.058-1.81 0.058-3.66 0.117-1.12 0.0314-2.23 0.0628-3.38 0.0952-3.02 0.124-3.02 0.124-5.82 2.32-6.35 0.705-12.7 0.921-18-3-1.38-2.19-1.38-2.19-2-4z" fill="#01A60E"/>
<path transform="translate(289,375)" d="m0 0c9.58 3.9 16 15.4 21 24 0.508 0.853 1.02 1.71 1.54 2.59 3.46 5.97 3.46 5.97 3.46 9.41-1.49-0.495-1.49-0.495-3-1-0.33-0.99-0.66-1.98-1-3-0.99-0.33-1.98-0.66-3-1-0.289-1.05-0.577-2.1-0.875-3.19-1.33-4.49-2.98-6.42-6.12-9.81-0.66 0.33-1.32 0.66-2 1-1.03-1.26-2.05-2.53-3.06-3.81-0.853-1.06-0.853-1.06-1.72-2.14-0.401-0.674-0.802-1.35-1.21-2.04 0.33-0.99 0.66-1.98 1-3-0.974-2.12-0.974-2.12-2.44-4.19-0.473-0.715-0.946-1.43-1.43-2.17-0.373-0.543-0.745-1.09-1.13-1.64z" fill="#049F09"/>
<path transform="translate(49,501)" d="m0 0c3.65 2.56 5.56 4.68 7 9 0.536 0.392 1.07 0.784 1.62 1.19 1.38 1.81 1.38 1.81 1.31 3.68-0.205 1.4-0.442 2.81-0.711 4.2-0.391 2.15-0.391 2.15 0.773 4.94h2c-0.33 0.66-0.66 1.32-1 2-1.28-0.74-2.55-1.49-3.81-2.25-0.708-0.418-1.42-0.835-2.14-1.27-2.38-1.73-3.65-2.88-5.04-5.48-0.213-2.83-0.285-5.43-0.188-8.25 0.0135-0.745 0.0271-1.49 0.041-2.26 0.0352-1.83 0.089-3.66 0.146-5.49z" fill="#07A20B"/>
<path transform="translate(1523,410)" d="m0 0h2c6.94 9.54 7.18 17.8 7.12 29.2-0.00193 0.965-0.00387 1.93-0.00586 2.92-0.0735 12.9-0.602 25.9-1.12 38.8h-1c-0.0184-0.652-0.0368-1.3-0.0557-1.98-0.195-6.83-0.409-13.7-0.634-20.5-0.0812-2.54-0.158-5.09-0.229-7.63-0.104-3.67-0.226-7.34-0.35-11-0.0424-1.69-0.0424-1.69-0.0856-3.41-0.266-7.21-1.43-13.6-3.64-20.5-0.392-1.22-0.784-2.43-1.19-3.69-0.268-0.763-0.536-1.53-0.812-2.31z" fill="#049F09"/>
<path transform="translate(824,361)" d="m0 0c17.9 8.28 30.8 20.4 40 38v2h-4c-0.516-2.06-1.02-4.09-1.38-6.19-0.206-0.598-0.413-1.2-0.625-1.81-0.99-0.33-1.98-0.66-3-1v-2h-2c-0.231-0.519-0.461-1.04-0.699-1.57-2.87-6.15-6.02-10.5-12.3-13.4-2.27-1.71-4.42-3.38-6.36-5.46-1.95-1.83-3.97-2.96-6.33-4.23-0.808-0.437-1.62-0.874-2.45-1.32-0.615-0.326-1.23-0.652-1.86-0.988 0.33-0.66 0.66-1.32 1-2z" fill="#049F09"/>
<path transform="translate(716,563)" d="m0 0h10v5c0.66 0.33 1.32 0.66 2 1l-2 1v3h4c0.33 0.99 0.66 1.98 1 3-3 1-3 1-6 0-0.66 1.32-1.32 2.64-2 4-1.32-1.65-2.64-3.3-4-5h4c-2.31-0.33-4.62-0.66-7-1v-11z" fill="#04AA11"/>
<path transform="translate(934,509)" d="m0 0c2.97 0.495 2.97 0.495 6 1v3c0.99-0.33 1.98-0.66 3-1 3 6.62 3 6.62 3 10 0.66 0.33 1.32 0.66 2 1 0.625 2.56 0.625 2.56 1 5-6.52-1.97-11.2-4.15-15-10 0.33-0.99 0.66-1.98 1-3-0.65-1.34-1.32-2.68-2-4 0.33-0.66 0.66-1.32 1-2z" fill="#07A20B"/>
<path transform="translate(449,431)" d="m0 0c9.29 2.9 15.6 10.2 21 18 0.33 0.99 0.66 1.98 1 3-1.98 0.99-1.98 0.99-4 2-0.248-0.784-0.495-1.57-0.75-2.38-1.45-3.05-2.25-3.35-5.25-4.62-1.75-1.44-1.75-1.44-3-3v-3c-0.949-0.0825-1.9-0.165-2.88-0.25-3.12-0.75-3.12-0.75-4.56-2.62-0.562-2.12-0.562-2.12 0.438-5.12h-2v-2z" fill="#07A20B"/>
<path transform="translate(54,420)" d="m0 0c1.42 2.85 0.676 4.69 0.125 7.81-2.24 12.7-2.36 25.6-2.69 38.5-0.0433 1.63-0.0869 3.25-0.131 4.88-0.106 3.94-0.207 7.87-0.307 11.8h-1c-2.05-14.4-1.14-29-0.307-43.5 0.0797-1.4 0.155-2.8 0.226-4.2 0.102-1.98 0.226-3.96 0.351-5.94 0.0681-1.15 0.136-2.3 0.206-3.48 0.557-3.03 1.11-4.02 3.52-5.85z" fill="#04AA11"/>
<path transform="translate(1518,477)" d="m0 0c0.66 0.33 1.32 0.66 2 1 0.998 4.63 1.01 8.38 0 13h-2c-0.33-0.66-0.66-1.32-1-2-0.804-0.144-1.61-0.289-2.44-0.438-2.56-0.562-2.56-0.562-4.56-3.56 2.64-2.64 5.28-5.28 8-8z" fill="#00A50E"/>
<path transform="translate(932,470)" d="m0 0c1.67 2.19 3.27 4.39 4.83 6.66 5.07 7.28 5.07 7.28 12.2 12.3-0.33 0.66-0.66 1.32-1 2-1.58-0.959-1.58-0.959-3.19-1.94-2.44-1.43-3.63-2.05-6.5-2.25-3.01-1.06-3.26-2.11-4.62-4.94-1.67-4.18-2.07-7.42-1.69-11.9z" fill="#07A30B"/>
<path transform="translate(661,489)" d="m0 0c2.19 0.312 2.19 0.312 4 1-1.48 4.43-3.73 8.63-7 12h-3c0.33-1.65 0.66-3.3 1-5-0.99 0.66-1.98 1.32-3 2-0.188-2.38-0.188-2.38 0-5 3-2 3-2 5-2 0.454-0.516 0.908-1.03 1.38-1.56 0.536-0.474 1.07-0.949 1.62-1.44z" fill="#07A30B"/>
<path transform="translate(352,317)" d="m0 0h1c0.0494 4.24 0.0857 8.47 0.11 12.7 0.0101 1.44 0.0237 2.88 0.041 4.32 0.0242 2.07 0.0356 4.14 0.0444 6.21 0.0105 1.25 0.0209 2.49 0.0317 3.78-0.227 2.98-0.227 2.98-2.23 4.98-1.08-11.3-1.08-11.3-1-17 0.187-3.71 0.187-3.71-0.59-6.02-0.715-3.46 1.1-5.88 2.59-8.98z" fill="#00A60F"/>
<path transform="translate(541,514)" d="m0 0c3.27 0 4.43 0.0115 7 2 0.977 2.61 1.48 5.27 2 8 0.326 1.34 0.657 2.67 1 4-6.46-2.19-6.46-2.19-8.94-5.88-1.01-2.97-1.34-5.03-1.06-8.12z" fill="#07A20A"/>
<path transform="translate(224 499)" d="m0 0c0.889 0.0516 1.78 0.103 2.7 0.156 0.92 0.0645 1.84 0.129 2.79 0.195 0.936 0.0567 1.87 0.113 2.84 0.172 2.31 0.141 4.61 0.293 6.91 0.453-0.33 0.99-0.66 1.98-1 3-2.52 0.0545-5.04 0.0939-7.56 0.125-0.704 0.0168-1.41 0.0335-2.13 0.0508-4.82 0.0444-8.73-0.648-13.3-2.18 3.11-1.83 5.18-2.21 8.77-1.98z" fill="#06A10A"/>
<path transform="translate(743,487)" d="m0 0c4.57 0.425 7.99 1.8 12 4v3c-3.86 0.22-6.49-0.396-10-2-0.33 2.31-0.66 4.62-1 7h-1c-0.194-1.81-0.38-3.62-0.562-5.44-0.104-1.01-0.209-2.02-0.316-3.06-0.04-0.826-0.0799-1.65-0.121-2.5 0.33-0.33 0.66-0.66 1-1z" fill="#07A20B"/>
<path transform="translate(1148,504)" d="m0 0h3c2 2 2 2 2 5-1.32 0.33-2.64 0.66-4 1 0.66 2.97 1.32 5.94 2 9h-2c-4-6.5-4-6.5-4-11h2c0.33-1.32 0.66-2.64 1-4z" fill="#01A70F"/>
<path transform="translate(475,372)" d="m0 0 2 2c-0.389 3.01-1.26 4.4-3 7h-2l-2-2c-0.99-0.33-1.98-0.66-3-1 0.33-0.99 0.66-1.98 1-3-0.33-0.66-0.66-1.32-1-2 2.76-1.38 4.95-1.19 8-1z" fill="#03A910"/>
<path transform="translate(1026,378)" d="m0 0c3 2 3 2 3.58 4.06 0.0761 0.785 0.152 1.57 0.23 2.38 0.0889 0.782 0.178 1.56 0.27 2.37-0.082 2.19-0.082 2.19-2.08 5.19h-2c-0.33-0.66-0.66-1.32-1-2-1.32 0.99-2.64 1.98-4 3 0.33-1.65 0.66-3.3 1-5 0.99-0.33 1.98-0.66 3-1 0.33-2.97 0.66-5.94 1-9z" fill="#08A30B"/>
<path transform="translate(571,500)" d="m0 0c3.27-0.058 6.54-0.0936 9.81-0.125 0.929-0.0168 1.86-0.0335 2.81-0.0508 0.893-0.00645 1.79-0.0129 2.71-0.0195 0.822-0.0105 1.64-0.0209 2.49-0.0317 2.18 0.227 2.18 0.227 5.18 2.23-6.66 2.73-12.8 3.02-19.6 0.5-1.13-0.495-2.27-0.99-3.44-1.5v-1z" fill="#04A10A"/>
<path transform="translate(733,515)" d="m0 0h1c0.0974 8.73 0.167 17.3-1 26-3.69-5.54-2.61-14.3-1.55-20.8 0.444-1.76 0.982-3.5 1.55-5.23z" fill="#01A30D"/>
<path transform="translate(1330,419)" d="m0 0 2 1c0.598 2.04 0.598 2.04 1.06 4.62 0.246 1.36 0.246 1.36 0.496 2.75 0.218 1.3 0.218 1.3 0.441 2.63 0.206 1.22 0.412 2.43 0.625 3.69 0.392 3.47 0.446 6.83 0.375 10.3-0.66 0.33-1.32 0.66-2 1-0.779-4.34-1.3-8.66-1.72-13-0.187-2.03-0.187-2.03-1.28-3.95-0.0695-1.54-0.0845-3.08-0.0625-4.62 0.00902-0.817 0.018-1.63 0.0273-2.48 0.0116-0.626 0.0232-1.25 0.0352-1.9z" fill="#08A30B"/>
<path transform="translate(166,416)" d="m0 0c1.32 0.33 2.64 0.66 4 1-0.495 0.433-0.99 0.866-1.5 1.31-1.83 1.68-1.83 1.68-1.5 4.69-1.44 2.69-1.44 2.69-3 5h-1c-0.66 2.97-1.32 5.94-2 9-0.33-1.32-0.66-2.64-1-4-0.66-0.33-1.32-0.66-2-1 0.66-0.33 1.32-0.66 2-1 0.347-1.66 0.678-3.33 1-5 0.8-1.8 1.66-3.57 2.56-5.31 0.455-0.883 0.91-1.77 1.38-2.68 0.524-0.996 0.524-0.996 1.06-2.01z" fill="#00A50E"/>
<path transform="translate(70,356)" d="m0 0c7.73-0.137 15.3 0.248 23 1v1c-3.08 0.395-6.16 0.762-9.25 1.12-0.873 0.112-1.75 0.224-2.64 0.34-1.27 0.145-1.27 0.145-2.56 0.293-0.775 0.0943-1.55 0.189-2.35 0.286-2.55-0.0505-4.02-0.755-6.2-2.04v-2z" fill="#00A50E"/>
<path transform="translate(703,418)" d="m0 0c1.61 3.22 0.314 6.42-0.375 9.81-0.139 0.712-0.278 1.42-0.422 2.16-0.394 2.01-0.799 4.02-1.2 6.03-0.199 0.994-0.397 1.99-0.602 3.01-0.131 0.656-0.263 1.31-0.398 1.99h-1c-1.45-7.77-0.535-14.5 2-22l2-1z" fill="#05A009"/>
<path transform="translate(1030 476)" d="m0 0c1.39 0.34 1.39 0.34 2.81 0.688v5h-8c-0.33-0.99-0.66-1.98-1-3 2.04-2.83 2.6-3.04 6.19-2.69z" fill="#00A50E"/>
<path transform="translate(440,471)" d="m0 0c2.47 3.82 2.44 7.85 2.62 12.2 0.0387 0.745 0.0773 1.49 0.117 2.26 0.0939 1.83 0.177 3.66 0.258 5.49-0.66 0.33-1.32 0.66-2 1-0.363-2.75-0.716-5.5-1.06-8.25-0.104-0.777-0.208-1.55-0.314-2.36-0.0935-0.754-0.187-1.51-0.283-2.29-0.089-0.691-0.178-1.38-0.27-2.09-0.0761-2.19 0.305-3.92 0.93-6.01z" fill="#05A30B"/>
<path transform="translate(180,463)" d="m0 0c0.276 0.554 0.552 1.11 0.836 1.68 0.809 1.61 1.63 3.22 2.45 4.83 0.441 0.864 0.882 1.73 1.34 2.62 0.446 0.869 0.892 1.74 1.35 2.63 1.02 2.24 1.02 2.24 1.02 4.24-3.65-1.25-4.78-1.67-7-5-0.195-2.7-0.195-2.7-0.125-5.69 0.018-0.994 0.0361-1.99 0.0547-3.01 0.0232-0.759 0.0464-1.52 0.0703-2.3z" fill="#049F09"/>
<path transform="translate(1266,440)" d="m0 0h1c0.196 1.92 0.381 3.83 0.562 5.75 0.104 1.07 0.209 2.13 0.316 3.23 0.108 2.7-0.0902 4.47-0.879 7.02-0.346 2-0.681 4-1 6h-2c0.486-7.36 0.977-14.7 2-22z" fill="#07A20A"/>
<path transform="translate(1006,496)" d="m0 0c-0.33 0.99-0.66 1.98-1 3h-2v2c-3.3 0.33-6.6 0.66-10 1v-2c1.6-0.673 3.21-1.34 4.81-2 0.893-0.371 1.79-0.743 2.71-1.12 2.48-0.875 2.48-0.875 5.48-0.875z" fill="#05A30B"/>
<path transform="translate(396 419)" d="m0 0c0.75 0.00451 1.5 0.00902 2.27 0.0137 1.85 0.0118 3.69 0.0297 5.54 0.0488-3.46 2.3-5.4 2.44-9.5 2.75-1.14 0.098-2.29 0.196-3.47 0.297-3.03-0.0469-3.03-0.0469-6.03-2.05 3.76-1.25 7.27-1.11 11.2-1.06z" fill="#04A20B"/>
<path transform="translate(1458,499)" d="m0 0c3.96 0.33 7.92 0.66 12 1v2h7v1c-7.13 0.354-12.5-0.0433-19-3v-1z" fill="#06A20B"/>
<path transform="translate(1232,492)" d="m0 0c0.33 1.32 0.66 2.64 1 4 0.33-0.66 0.66-1.32 1-2h3c-0.33 0.99-0.66 1.98-1 3h-3v5c-1.32 0.33-2.64 0.66-4 1 0.33-1.32 0.66-2.64 1-4h2c-0.833-2.17-0.833-2.17-3-3 0.33-0.66 0.66-1.32 1-2h2v-2z" fill="#08A30B"/>
<path transform="translate(244,354)" d="m0 0c5.6 0.421 10.7 0.916 16 3v2c-1.24-0.217-1.24-0.217-2.5-0.438-1.86-0.299-3.73-0.583-5.61-0.746-1.97-0.177-3.94-0.491-5.89-0.816-0.66-0.99-1.32-1.98-2-3z" fill="#049F09"/>
<path transform="translate(1232,510)" d="m0 0h2c0.33 1.98 0.66 3.96 1 6-0.99 0.66-1.98 1.32-3 2-0.66-0.66-1.32-1.32-2-2l-2 1-2-1v-2c0.619-0.289 1.24-0.577 1.88-0.875 2.26-1.06 2.26-1.06 4.12-3.12z" fill="#07A30B"/>
<path transform="translate(1194,500)" d="m0 0c-5.55 3.18-11.9 2.57-18 1v-1c12.7-1.33 12.7-1.33 18 0z" fill="#04A30C"/>
<path transform="translate(1563,525)" d="m0 0h2c-0.33 2.31-0.66 4.62-1 7-3.38 0.125-3.38 0.125-7 0-0.66-0.66-1.32-1.32-2-2 3.46-0.495 3.46-0.495 7-1 0.33-1.32 0.66-2.64 1-4z" fill="#06A10A"/>
<path transform="translate(1319,478)" d="m0 0h3v2h-2v3c0.66 0.33 1.32 0.66 2 1-0.217 1.05-0.217 1.05-0.438 2.12-0.577 2.95-1.08 5.91-1.56 8.88h-1c-0.893-5.94-0.97-11.1 0-17z" fill="#049F09"/>
<path transform="translate(705,455)" d="m0 0c2.65 2.65 2.72 4.3 3 8-0.938 3.38-0.938 3.38-2 6h-2c-0.0269-2.15-0.0463-4.29-0.0625-6.44-0.0116-1.19-0.0232-2.39-0.0352-3.62 0.0977-2.94 0.0977-2.94 1.1-3.94z" fill="#08A30B"/>
<path transform="translate(1034,389)" d="m0 0h4c-1.88 4.75-1.88 4.75-3 7h-4v-4h2c0.33-0.99 0.66-1.98 1-3z" fill="#00A50E"/>
<path transform="translate(1486,507)" d="m0 0v2c-2.99 0.872-5.64 1.11-8.75 1.06-0.799-0.00902-1.6-0.018-2.42-0.0273-0.603-0.0116-1.21-0.0232-1.83-0.0352 3.78-3.95 7.92-3.29 13-3z" fill="#00A60F"/>
<path transform="translate(645,500)" d="m0 0 2 1c0 3.58-0.344 5.47-1.5 8.75-0.278 0.799-0.557 1.6-0.844 2.42-0.325 0.905-0.325 0.905-0.656 1.83-0.66-0.99-1.32-1.98-2-3 0.812-3.44 0.812-3.44 2-7 0.341-1.33 0.679-2.66 1-4z" fill="#07A30B"/>
<path transform="translate(1268,417)" d="m0 0h1v17c-3-3-3-3-3.19-6.69 0.0619-1.09 0.124-2.19 0.188-3.31h1c0.33-2.31 0.66-4.62 1-7z" fill="#05A00A"/>
<path transform="translate(450,376)" d="m0 0c2.38 3.36 1.98 6.07 1.36 10-0.425 2.33-0.853 4.66-1.36 6.97-0.66-0.33-1.32-0.66-2-1 0.57-5.35 1.21-10.7 2-16z" fill="#08A30B"/>
<path transform="translate(730,592)" d="m0 0c2 2 2 2 2.2 3.95-0.0651 2.02-0.13 4.04-0.195 6.05-2.48-0.99-2.48-0.99-5-2 0-4.27 0.376-4.94 3-8z" fill="#08A30B"/>
<path transform="translate(1518,477)" d="m0 0c0.66 0.33 1.32 0.66 2 1 0.407 2.32 0.744 4.66 1 7-1.98-0.66-3.96-1.32-6-2 0.573-2.87 0.861-3.86 3-6z" fill="#06A10A"/>
<path transform="translate(366,458)" d="m0 0c0.66 0.33 1.32 0.66 2 1-0.508 4.32-1.2 8.03-3 12h-1c-0.125-2.88-0.125-2.88 0-6 0.66-0.66 1.32-1.32 2-2-0.409-2.05-0.409-2.05-1-4l1-1z" fill="#04AA11"/>
<path transform="translate(907,428)" d="m0 0c0.33 0.66 0.66 1.32 1 2h2c-0.309 0.598-0.619 1.2-0.938 1.81-1.16 2.28-1.16 2.28-2.06 5.19h-2c-0.688-2.81-0.688-2.81-1-6 1.44-1.88 1.44-1.88 3-3z" fill="#04A40C"/>
<path transform="translate(1245,503)" d="m0 0c0.66 0.33 1.32 0.66 2 1-2.97 3.3-5.94 6.6-9 10 0-3.11 0.539-4.35 2-7h2v-2c0.99-0.66 1.98-1.32 3-2z" fill="#08A30B"/>
<path transform="translate(1223,397)" d="m0 0c0.33 1.65 0.66 3.3 1 5-3.69-0.498-5.6-1.1-8-4 3-1 3-1 7-1z" fill="#01A40D"/>
<path transform="translate(64,500)" d="m0 0h2v2h2v8c-0.99 0.495-0.99 0.495-2 1-0.66-3.63-1.32-7.26-2-11z" fill="#00A60F"/>
</svg>
